<svg width="688" height="405" viewBox="0 0 688 405" fill="none" xmlns="http://www.w3.org/2000/svg">
<g filter="url(#filter0_d_48_299)">
<rect x="32" y="26.5" width="624" height="340" rx="24" fill="white" shape-rendering="crispEdges"/>
<path d="M200.496 120.45C200.467 120.45 200.438 120.441 200.414 120.424L160.822 92.6456C160.701 92.5615 160.558 92.5165 160.412 92.5168C160.265 92.517 160.122 92.5625 160.002 92.647L120.695 120.423C120.664 120.445 120.625 120.454 120.588 120.447C120.551 120.44 120.517 120.419 120.496 120.388C120.474 120.357 120.465 120.318 120.472 120.28C120.478 120.243 120.499 120.209 120.53 120.187L159.837 92.4108C160.006 92.2925 160.206 92.2289 160.411 92.2285C160.617 92.2282 160.817 92.2911 160.986 92.4089L200.578 120.187C200.603 120.204 200.622 120.23 200.632 120.259C200.642 120.288 200.642 120.319 200.633 120.349C200.624 120.378 200.605 120.403 200.581 120.422C200.556 120.44 200.527 120.45 200.496 120.45Z" fill="#111F2B"/>
<path d="M144.557 158.073H126.026C125.796 158.073 125.576 157.982 125.414 157.818C125.251 157.655 125.159 157.433 125.159 157.202C125.159 156.971 125.25 156.749 125.412 156.585C125.574 156.421 125.794 156.329 126.024 156.329H144.557C144.786 156.328 145.007 156.42 145.169 156.583C145.332 156.746 145.424 156.968 145.424 157.199C145.424 157.431 145.333 157.653 145.171 157.817C145.009 157.98 144.789 158.073 144.559 158.073H144.557Z" fill="url(#paint0_linear_48_299)"/>
<path d="M132.675 154.323H126.026C125.797 154.323 125.576 154.232 125.414 154.068C125.251 153.905 125.16 153.683 125.16 153.452C125.159 153.221 125.25 152.999 125.412 152.835C125.574 152.671 125.794 152.579 126.024 152.579H132.675C132.788 152.578 132.901 152.601 133.006 152.644C133.111 152.688 133.207 152.752 133.287 152.833C133.368 152.914 133.432 153.01 133.476 153.116C133.519 153.221 133.542 153.335 133.542 153.45C133.542 153.564 133.52 153.678 133.477 153.784C133.433 153.889 133.37 153.986 133.289 154.067C133.209 154.148 133.114 154.212 133.008 154.256C132.903 154.3 132.791 154.323 132.677 154.323H132.675Z" fill="url(#paint1_linear_48_299)"/>
<path d="M160.978 137.033C160.837 137.033 160.698 137.006 160.567 136.952L137.434 127.282V97.013C137.434 96.7453 137.54 96.4887 137.728 96.2995C137.916 96.1102 138.17 96.0037 138.436 96.0034H182.816C183.082 96.0037 183.336 96.1102 183.524 96.2995C183.712 96.4887 183.818 96.7453 183.818 97.013V127.303L183.775 127.322L161.401 136.947C161.267 137.004 161.123 137.033 160.978 137.033Z" fill="white"/>
<path d="M160.978 137.105C160.828 137.106 160.679 137.076 160.54 137.019L137.362 127.33V97.0133C137.363 96.7265 137.476 96.4516 137.677 96.2488C137.878 96.046 138.151 95.932 138.436 95.9316H182.816C183.101 95.932 183.373 96.046 183.575 96.2488C183.776 96.4516 183.889 96.7265 183.89 97.0133V127.351L161.429 137.014C161.287 137.074 161.133 137.105 160.978 137.105ZM137.649 127.138L160.649 136.752C160.864 136.84 161.104 136.839 161.318 136.748L183.603 127.161V97.0133C183.603 96.803 183.52 96.6014 183.372 96.4527C183.225 96.304 183.025 96.2204 182.816 96.2201H138.436C138.227 96.2204 138.027 96.304 137.879 96.4527C137.732 96.6014 137.649 96.803 137.649 97.0133L137.649 127.138Z" fill="#3F3D56"/>
<path d="M200.21 120.161H200.181L183.746 127.231L161.26 136.904C161.172 136.941 161.078 136.961 160.983 136.961C160.887 136.962 160.793 136.943 160.705 136.907L137.505 127.211L120.667 120.173L120.641 120.161H120.612C120.347 120.161 120.092 120.268 119.904 120.457C119.716 120.646 119.611 120.903 119.61 121.171V165.015C119.611 165.282 119.716 165.539 119.904 165.728C120.092 165.918 120.347 166.024 120.612 166.024H200.21C200.476 166.024 200.73 165.918 200.918 165.728C201.106 165.539 201.212 165.282 201.212 165.015V121.171C201.212 120.903 201.106 120.646 200.918 120.457C200.73 120.268 200.476 120.161 200.21 120.161ZM200.926 165.015C200.926 165.206 200.85 165.389 200.716 165.525C200.582 165.66 200.4 165.736 200.21 165.736H120.612C120.423 165.736 120.241 165.66 120.106 165.525C119.972 165.389 119.897 165.206 119.897 165.015V121.171C119.897 120.984 119.969 120.805 120.097 120.671C120.225 120.536 120.4 120.457 120.585 120.45L137.505 127.522L160.594 137.174C160.844 137.276 161.124 137.275 161.373 137.169L183.746 127.544L200.239 120.45C200.423 120.458 200.598 120.537 200.726 120.671C200.854 120.806 200.925 120.985 200.926 121.171V165.015Z" fill="#111F2B"/>
<path d="M157.377 107.318H141.629C141.325 107.318 141.035 107.196 140.82 106.98C140.606 106.763 140.485 106.47 140.485 106.165C140.485 105.859 140.606 105.566 140.82 105.349C141.035 105.133 141.325 105.011 141.629 105.011H157.377C157.68 105.011 157.971 105.133 158.185 105.349C158.4 105.566 158.52 105.859 158.52 106.165C158.52 106.47 158.4 106.763 158.185 106.98C157.971 107.196 157.68 107.318 157.377 107.318Z" fill="url(#paint2_linear_48_299)"/>
<path d="M149.216 102.415H141.629C141.325 102.415 141.034 102.293 140.819 102.077C140.604 101.86 140.484 101.567 140.484 101.261C140.484 100.955 140.604 100.661 140.819 100.445C141.034 100.228 141.325 100.107 141.629 100.107H149.216C149.52 100.107 149.811 100.228 150.026 100.445C150.241 100.661 150.362 100.955 150.362 101.261C150.362 101.567 150.241 101.86 150.026 102.077C149.811 102.293 149.52 102.415 149.216 102.415Z" fill="url(#paint3_linear_48_299)"/>
<path d="M172.404 118.856H148.353C148.049 118.855 147.759 118.734 147.544 118.517C147.33 118.301 147.209 118.008 147.209 117.702C147.209 117.396 147.33 117.103 147.544 116.887C147.759 116.671 148.049 116.549 148.353 116.548H172.404C172.707 116.549 172.998 116.671 173.213 116.887C173.427 117.103 173.548 117.396 173.548 117.702C173.548 118.008 173.427 118.301 173.213 118.517C172.998 118.734 172.707 118.855 172.404 118.856Z" fill="#CCCCCC"/>
<path d="M172.404 124.192H148.353C148.049 124.192 147.758 124.071 147.543 123.854C147.328 123.638 147.208 123.345 147.208 123.039C147.208 122.733 147.328 122.439 147.543 122.223C147.758 122.006 148.049 121.885 148.353 121.885H172.404C172.708 121.885 172.999 122.006 173.214 122.223C173.429 122.439 173.549 122.733 173.549 123.039C173.549 123.345 173.429 123.638 173.214 123.854C172.999 124.071 172.708 124.192 172.404 124.192Z" fill="#CCCCCC"/>
<path d="M199.766 131.55C205.781 131.55 210.656 126.638 210.656 120.579C210.656 114.52 205.781 109.608 199.766 109.608C193.752 109.608 188.876 114.52 188.876 120.579C188.876 126.638 193.752 131.55 199.766 131.55Z" fill="url(#paint4_linear_48_299)"/>
<path d="M198.728 125.211L195.469 120.988L197.364 119.503L198.908 121.502L204.121 115.958L205.865 117.622L198.728 125.211Z" fill="white"/>
<path d="M98.4956 101.45C98.4213 101.405 98.3361 101.383 98.2498 101.385C98.1635 101.388 98.0795 101.414 98.0076 101.463C97.9356 101.511 97.8786 101.578 97.8431 101.658C97.8075 101.737 97.7948 101.825 97.8065 101.911L98.1614 104.533C98.1663 104.572 98.1637 104.611 98.1537 104.649C98.1425 104.686 98.124 104.72 98.0991 104.75L96.1113 107.122C96.0449 107.199 96.0059 107.295 96.0006 107.397C95.9953 107.498 96.024 107.598 96.0821 107.681L96.0842 107.684C96.1398 107.768 96.2217 107.831 96.3168 107.862C96.4119 107.894 96.5147 107.892 96.6089 107.858L98.0445 107.367C98.0921 107.352 98.143 107.349 98.1919 107.36C98.2408 107.371 98.2858 107.396 98.3221 107.43C98.3491 107.456 98.3707 107.486 98.3854 107.52C98.4002 107.554 98.4078 107.591 98.4077 107.628L98.4638 112.781C98.4644 112.856 98.483 112.929 98.518 112.995C98.553 113.06 98.6034 113.117 98.6648 113.158C98.7259 113.2 98.7961 113.226 98.8694 113.235C98.9427 113.243 99.017 113.234 99.086 113.208L109.801 109.08C109.881 109.049 109.952 108.995 110.004 108.926C110.056 108.856 110.087 108.773 110.095 108.687C110.102 108.6 110.085 108.513 110.045 108.435C110.006 108.358 109.945 108.293 109.871 108.249L109.725 108.162L98.4956 101.45ZM97.9879 101.886C97.981 101.834 97.9887 101.781 98.0101 101.734C98.0316 101.686 98.0659 101.646 98.1091 101.617C98.1523 101.588 98.2027 101.572 98.2546 101.571C98.3064 101.569 98.3575 101.583 98.4021 101.609L109.628 108.319L109.777 108.409C109.822 108.435 109.858 108.474 109.882 108.521C109.905 108.567 109.915 108.619 109.911 108.671C109.907 108.723 109.888 108.772 109.857 108.814C109.826 108.856 109.784 108.888 109.735 108.907L99.021 113.035C98.9795 113.051 98.9349 113.056 98.8909 113.051C98.8468 113.046 98.8047 113.03 98.7681 113.005C98.7314 112.98 98.7013 112.946 98.6803 112.907C98.6594 112.867 98.6482 112.824 98.6476 112.779L98.5915 107.626C98.5916 107.575 98.5829 107.525 98.5658 107.477L109.474 108.739C109.517 108.745 109.56 108.735 109.596 108.712C109.632 108.688 109.659 108.653 109.672 108.612C109.685 108.571 109.684 108.526 109.668 108.486C109.652 108.446 109.622 108.413 109.584 108.392C109.575 108.387 109.566 108.383 109.556 108.38L98.3461 104.61C98.3488 104.576 98.3477 104.542 98.3428 104.508L97.9879 101.886Z" fill="#F1F1F1"/>
<path d="M98.4956 101.45C98.4213 101.405 98.3361 101.383 98.2498 101.385C98.1635 101.388 98.0795 101.414 98.0076 101.463C97.9356 101.511 97.8786 101.578 97.8431 101.658C97.8075 101.737 97.7948 101.825 97.8065 101.911L98.1614 104.533C98.1663 104.572 98.1637 104.611 98.1537 104.649C98.1425 104.686 98.124 104.72 98.0991 104.75L96.1113 107.122C96.0449 107.199 96.0059 107.295 96.0006 107.397C95.9953 107.498 96.024 107.598 96.0821 107.681L96.0842 107.684C96.1398 107.768 96.2217 107.831 96.3168 107.862C96.4119 107.894 96.5147 107.892 96.6089 107.858L98.0445 107.367C98.0921 107.352 98.143 107.349 98.1919 107.36C98.2408 107.371 98.2858 107.396 98.3221 107.43C98.3491 107.456 98.3707 107.486 98.3854 107.52C98.4002 107.554 98.4078 107.591 98.4077 107.628L98.4638 112.781C98.4644 112.856 98.483 112.929 98.518 112.995C98.553 113.06 98.6034 113.117 98.6648 113.158C98.7259 113.2 98.7961 113.226 98.8694 113.235C98.9427 113.243 99.017 113.234 99.086 113.208L109.801 109.08C109.881 109.049 109.952 108.995 110.004 108.926C110.056 108.856 110.087 108.773 110.095 108.687C110.102 108.6 110.085 108.513 110.045 108.435C110.006 108.358 109.945 108.293 109.871 108.249L109.725 108.162L98.4956 101.45ZM97.9879 101.886C97.981 101.834 97.9887 101.781 98.0101 101.734C98.0316 101.686 98.0659 101.646 98.1091 101.617C98.1523 101.588 98.2027 101.572 98.2546 101.571C98.3064 101.569 98.3575 101.583 98.4021 101.609L109.628 108.319L109.777 108.409C109.822 108.435 109.858 108.474 109.882 108.521C109.905 108.567 109.915 108.619 109.911 108.671C109.907 108.723 109.888 108.772 109.857 108.814C109.826 108.856 109.784 108.888 109.735 108.907L99.021 113.035C98.9795 113.051 98.9349 113.056 98.8909 113.051C98.8468 113.046 98.8047 113.03 98.7681 113.005C98.7314 112.98 98.7013 112.946 98.6804 112.907C98.6594 112.867 98.6482 112.824 98.6476 112.779L98.5915 107.626C98.5916 107.575 98.5829 107.525 98.5658 107.477C98.5418 107.407 98.5014 107.345 98.4481 107.295C98.4409 107.288 98.4329 107.281 98.4249 107.274L98.4244 107.274C98.3642 107.224 98.2923 107.19 98.2155 107.176C98.1388 107.161 98.0597 107.167 97.9857 107.192L96.5495 107.684C96.4928 107.705 96.4309 107.705 96.3738 107.686C96.3167 107.667 96.2676 107.629 96.2347 107.578L96.2336 107.577C96.1984 107.527 96.1809 107.467 96.1842 107.406C96.1874 107.345 96.2111 107.287 96.2514 107.242L98.2392 104.869C98.2604 104.844 98.2788 104.817 98.2941 104.788L98.2948 104.788C98.3095 104.76 98.3212 104.731 98.3298 104.7C98.3384 104.671 98.3438 104.641 98.3461 104.61C98.3488 104.576 98.3477 104.542 98.3428 104.508L97.9879 101.886Z" fill="#111F2B"/>
<path d="M98.3461 104.61L109.556 108.38C109.566 108.383 109.575 108.387 109.584 108.392C109.622 108.413 109.652 108.446 109.668 108.486C109.684 108.526 109.685 108.571 109.672 108.612C109.659 108.653 109.632 108.688 109.596 108.711C109.56 108.735 109.517 108.744 109.474 108.739L98.5659 107.476L98.3732 107.454L98.3945 107.271L98.4244 107.274L98.4249 107.274L109.495 108.555L98.2949 104.787L98.2941 104.788L98.2457 104.771L98.3038 104.596L98.3461 104.61Z" fill="#84939E"/>
<path d="M223.504 90.5644L212.275 97.2765L212.129 97.3638C212.055 97.4081 211.994 97.4727 211.955 97.5501C211.915 97.6275 211.898 97.7146 211.905 97.8014C211.913 97.8881 211.944 97.971 211.996 98.0406C212.048 98.1101 212.119 98.1634 212.199 98.1944L222.914 102.322C222.983 102.349 223.057 102.358 223.131 102.349C223.204 102.341 223.274 102.315 223.335 102.273C223.397 102.231 223.447 102.175 223.482 102.109C223.517 102.044 223.536 101.97 223.536 101.896L223.592 96.743C223.592 96.7059 223.6 96.6691 223.615 96.635C223.629 96.601 223.651 96.5704 223.678 96.5451C223.714 96.5103 223.759 96.486 223.808 96.4749C223.857 96.4638 223.908 96.4664 223.956 96.4822L225.391 96.9731C225.485 97.0072 225.588 97.0086 225.683 96.9771C225.778 96.9455 225.86 96.8828 225.916 96.7989L225.918 96.7959C225.976 96.7129 226.005 96.6127 225.999 96.5113C225.994 96.4099 225.955 96.3133 225.889 96.2369L223.901 93.8645C223.876 93.835 223.857 93.8006 223.846 93.7635C223.836 93.7259 223.834 93.6866 223.839 93.648L224.194 91.0255C224.205 90.9393 224.193 90.8515 224.157 90.7723C224.121 90.693 224.064 90.6254 223.992 90.5773C223.92 90.5292 223.837 90.5024 223.75 90.5002C223.664 90.4979 223.579 90.5202 223.504 90.5644ZM224.012 91.0003L223.657 93.6228C223.652 93.6566 223.651 93.6909 223.654 93.7251L212.444 97.4946C212.434 97.4979 212.425 97.5021 212.416 97.5072C212.378 97.5278 212.348 97.5609 212.332 97.601C212.316 97.6411 212.315 97.6855 212.328 97.7266C212.341 97.7678 212.368 97.803 212.404 97.8262C212.44 97.8495 212.483 97.8593 212.526 97.8539L223.434 96.5913C223.417 96.6393 223.408 96.6899 223.408 96.7409L223.352 101.894C223.352 101.938 223.341 101.982 223.32 102.022C223.299 102.061 223.269 102.095 223.232 102.12C223.195 102.145 223.153 102.161 223.109 102.166C223.065 102.171 223.02 102.166 222.979 102.15L212.265 98.0215C212.216 98.0027 212.174 97.9706 212.143 97.9289C212.112 97.8872 212.093 97.8376 212.089 97.7857C212.085 97.7337 212.095 97.6816 212.119 97.6353C212.142 97.5889 212.178 97.5501 212.223 97.5234L212.372 97.4341L223.598 90.7241C223.642 90.6975 223.694 90.684 223.745 90.6853C223.797 90.6867 223.848 90.7026 223.891 90.7315C223.934 90.7603 223.968 90.8008 223.99 90.8483C224.011 90.8959 224.019 90.9486 224.012 91.0003Z" fill="#F1F1F1"/>
<path d="M223.504 90.5644L212.275 97.2765L212.129 97.3638C212.055 97.4081 211.994 97.4727 211.955 97.5501C211.915 97.6275 211.898 97.7146 211.905 97.8014C211.913 97.8881 211.944 97.971 211.996 98.0406C212.048 98.1101 212.119 98.1634 212.199 98.1944L222.914 102.322C222.983 102.349 223.057 102.358 223.131 102.349C223.204 102.341 223.274 102.315 223.335 102.273C223.397 102.231 223.447 102.175 223.482 102.109C223.517 102.044 223.536 101.97 223.536 101.896L223.592 96.743C223.592 96.7059 223.6 96.6691 223.615 96.635C223.629 96.601 223.651 96.5704 223.678 96.5451C223.714 96.5103 223.759 96.486 223.808 96.4749C223.857 96.4638 223.908 96.4664 223.956 96.4822L225.391 96.9731C225.485 97.0072 225.588 97.0086 225.683 96.9771C225.778 96.9455 225.86 96.8828 225.916 96.7989L225.918 96.7959C225.976 96.7129 226.005 96.6127 225.999 96.5113C225.994 96.4099 225.955 96.3133 225.889 96.2369L223.901 93.8645C223.876 93.835 223.857 93.8006 223.846 93.7635C223.836 93.7259 223.834 93.6866 223.839 93.648L224.194 91.0255C224.205 90.9393 224.193 90.8515 224.157 90.7723C224.121 90.693 224.064 90.6254 223.992 90.5773C223.92 90.5292 223.837 90.5024 223.75 90.5002C223.664 90.4979 223.579 90.5202 223.504 90.5644ZM224.012 91.0003L223.657 93.6228C223.652 93.6566 223.651 93.691 223.654 93.7251C223.656 93.7556 223.662 93.7858 223.67 93.8152C223.679 93.8454 223.69 93.8747 223.705 93.9024L223.706 93.903C223.721 93.932 223.74 93.9591 223.761 93.984L225.749 96.3563C225.789 96.4019 225.813 96.4599 225.816 96.5208C225.819 96.5817 225.802 96.6419 225.766 96.6914L225.765 96.693C225.732 96.7437 225.683 96.7818 225.626 96.801C225.569 96.8202 225.507 96.8193 225.451 96.7986L224.014 96.3072C223.94 96.282 223.861 96.2762 223.784 96.2904C223.708 96.3046 223.636 96.3384 223.576 96.3884L223.575 96.3892C223.567 96.396 223.559 96.4028 223.552 96.4101C223.499 96.4599 223.458 96.5221 223.434 96.5913C223.417 96.6393 223.408 96.6899 223.408 96.7409L223.352 101.894C223.352 101.938 223.341 101.982 223.32 102.022C223.299 102.061 223.269 102.095 223.232 102.12C223.195 102.145 223.153 102.161 223.109 102.166C223.065 102.171 223.02 102.166 222.979 102.15L212.265 98.0215C212.216 98.0027 212.174 97.9706 212.143 97.9289C212.112 97.8872 212.093 97.8376 212.089 97.7857C212.085 97.7337 212.095 97.6816 212.119 97.6353C212.142 97.5889 212.178 97.5501 212.223 97.5234L212.372 97.4341L223.598 90.7241C223.642 90.6975 223.694 90.684 223.745 90.6854C223.797 90.6867 223.848 90.7026 223.891 90.7315C223.934 90.7603 223.968 90.8008 223.99 90.8483C224.011 90.8959 224.019 90.9486 224.012 91.0003Z" fill="#111F2B"/>
<path d="M223.696 93.7104L223.754 93.8859L223.706 93.9028L223.705 93.9022L212.505 97.6694L223.575 96.389L223.576 96.3882L223.605 96.3854L223.627 96.569L223.434 96.5911L212.526 97.8537C212.483 97.8591 212.44 97.8493 212.404 97.8261C212.368 97.8028 212.341 97.7676 212.328 97.7265C212.315 97.6853 212.316 97.6409 212.332 97.6008C212.348 97.5608 212.378 97.5276 212.416 97.507C212.425 97.5019 212.434 97.4977 212.444 97.4944L223.654 93.7249L223.696 93.7104Z" fill="#84939E"/>
<path d="M127.413 184.348C127.337 184.387 127.272 184.448 127.228 184.523C127.184 184.597 127.162 184.683 127.163 184.77C127.165 184.857 127.192 184.942 127.239 185.014C127.287 185.087 127.353 185.145 127.432 185.181L129.822 186.28C129.857 186.297 129.888 186.32 129.915 186.349C129.94 186.378 129.959 186.412 129.97 186.449L130.898 189.409C130.927 189.507 130.987 189.592 131.069 189.65C131.152 189.709 131.251 189.738 131.352 189.733L131.355 189.733C131.456 189.73 131.552 189.694 131.629 189.63C131.706 189.566 131.76 189.478 131.782 189.379L132.137 187.895C132.149 187.846 132.175 187.801 132.21 187.765C132.245 187.729 132.29 187.704 132.339 187.692C132.374 187.682 132.411 187.68 132.448 187.686C132.484 187.692 132.519 187.705 132.55 187.725L136.903 190.431C136.966 190.47 137.038 190.493 137.112 190.499C137.185 190.504 137.259 190.491 137.327 190.461C137.395 190.431 137.454 190.386 137.501 190.328C137.547 190.27 137.579 190.202 137.594 190.129L139.857 178.799C139.874 178.714 139.867 178.625 139.836 178.544C139.806 178.463 139.753 178.391 139.684 178.339C139.615 178.286 139.533 178.254 139.447 178.246C139.361 178.239 139.274 178.256 139.197 178.295L139.046 178.373L127.413 184.348ZM127.508 185.013C127.461 184.991 127.421 184.957 127.392 184.913C127.364 184.869 127.348 184.818 127.347 184.766C127.346 184.714 127.36 184.662 127.386 184.618C127.413 184.573 127.451 184.536 127.497 184.513L139.126 178.54L139.281 178.46C139.327 178.437 139.379 178.427 139.431 178.432C139.482 178.436 139.531 178.455 139.573 178.487C139.614 178.518 139.645 178.561 139.664 178.61C139.682 178.658 139.687 178.711 139.677 178.762L137.414 190.092C137.405 190.136 137.386 190.177 137.358 190.211C137.33 190.246 137.294 190.273 137.254 190.291C137.213 190.309 137.169 190.317 137.125 190.313C137.08 190.31 137.038 190.296 137 190.273L132.647 187.567C132.604 187.54 132.557 187.52 132.507 187.509L139.396 178.895C139.424 178.862 139.439 178.82 139.438 178.777C139.438 178.734 139.423 178.692 139.395 178.659C139.368 178.626 139.33 178.603 139.288 178.595C139.245 178.588 139.202 178.595 139.165 178.616C139.155 178.621 139.147 178.627 139.139 178.634L129.985 186.164C129.958 186.144 129.929 186.126 129.898 186.112L127.508 185.013Z" fill="#F1F1F1"/>
<path d="M127.413 184.348C127.337 184.387 127.272 184.448 127.228 184.523C127.184 184.597 127.162 184.683 127.163 184.77C127.165 184.857 127.192 184.942 127.239 185.014C127.287 185.087 127.353 185.145 127.432 185.181L129.822 186.28C129.857 186.297 129.888 186.32 129.915 186.349C129.94 186.378 129.959 186.412 129.97 186.449L130.898 189.409C130.927 189.507 130.987 189.592 131.069 189.65C131.152 189.709 131.251 189.738 131.352 189.733L131.355 189.733C131.456 189.73 131.552 189.694 131.629 189.63C131.706 189.566 131.76 189.478 131.782 189.379L132.137 187.895C132.149 187.846 132.175 187.801 132.21 187.765C132.245 187.729 132.29 187.704 132.339 187.692C132.374 187.682 132.411 187.68 132.448 187.686C132.484 187.692 132.519 187.705 132.55 187.725L136.903 190.431C136.966 190.47 137.038 190.493 137.112 190.499C137.185 190.504 137.259 190.491 137.327 190.461C137.395 190.431 137.454 190.386 137.501 190.328C137.547 190.27 137.579 190.202 137.594 190.129L139.857 178.799C139.874 178.714 139.867 178.625 139.836 178.544C139.806 178.463 139.753 178.391 139.684 178.339C139.615 178.286 139.533 178.254 139.447 178.246C139.361 178.239 139.274 178.256 139.197 178.295L139.046 178.373L127.413 184.348ZM127.508 185.013C127.461 184.991 127.421 184.957 127.392 184.913C127.364 184.869 127.348 184.818 127.347 184.766C127.346 184.714 127.36 184.662 127.386 184.618C127.413 184.573 127.451 184.536 127.497 184.513L139.126 178.54L139.281 178.46C139.327 178.437 139.379 178.427 139.431 178.432C139.482 178.436 139.531 178.455 139.573 178.487C139.614 178.518 139.645 178.561 139.664 178.61C139.682 178.658 139.687 178.711 139.677 178.762L137.414 190.092C137.405 190.136 137.386 190.177 137.358 190.211C137.33 190.246 137.294 190.273 137.254 190.291C137.213 190.309 137.169 190.317 137.125 190.313C137.08 190.31 137.038 190.296 137 190.273L132.647 187.567C132.604 187.54 132.557 187.52 132.507 187.509C132.437 187.492 132.363 187.494 132.293 187.512C132.283 187.515 132.273 187.518 132.263 187.521L132.262 187.521C132.188 187.545 132.121 187.589 132.068 187.646C132.015 187.704 131.977 187.775 131.959 187.851L131.604 189.337C131.591 189.396 131.559 189.449 131.512 189.487C131.465 189.526 131.407 189.547 131.347 189.548L131.345 189.548C131.285 189.552 131.225 189.534 131.175 189.499C131.126 189.464 131.09 189.413 131.073 189.354L130.145 186.394C130.136 186.362 130.123 186.332 130.107 186.304L130.107 186.303C130.091 186.275 130.073 186.25 130.052 186.226C130.032 186.203 130.01 186.182 129.985 186.164C129.958 186.144 129.929 186.126 129.898 186.112L127.508 185.013Z" fill="#111F2B"/>
<path d="M129.985 186.165L139.139 178.634C139.147 178.627 139.155 178.621 139.165 178.616C139.202 178.595 139.245 178.588 139.288 178.596C139.33 178.604 139.368 178.626 139.395 178.659C139.423 178.692 139.438 178.734 139.438 178.777C139.438 178.82 139.424 178.862 139.396 178.896L132.507 187.509L132.386 187.661L132.243 187.545L132.262 187.521L132.263 187.521L139.253 178.779L130.107 186.303L130.107 186.304L130.067 186.336L129.951 186.193L129.985 186.165Z" fill="#84939E"/>
<path d="M289.512 133.74C288.152 133.74 286.824 133.492 285.528 132.996C284.232 132.484 283.08 131.764 282.072 130.836L284.064 128.34C285.04 129.204 285.976 129.828 286.872 130.212C287.784 130.596 288.744 130.788 289.752 130.788C290.456 130.788 291.064 130.708 291.576 130.548C292.088 130.372 292.48 130.124 292.752 129.804C293.04 129.484 293.184 129.108 293.184 128.676C293.184 128.1 292.976 127.66 292.56 127.356C292.144 127.036 291.432 126.788 290.424 126.612L287.088 126.036C285.664 125.796 284.576 125.292 283.824 124.524C283.088 123.756 282.72 122.764 282.72 121.548C282.72 120.508 282.984 119.604 283.512 118.836C284.056 118.068 284.816 117.484 285.792 117.084C286.784 116.668 287.96 116.46 289.32 116.46C290.552 116.46 291.776 116.668 292.992 117.084C294.224 117.5 295.312 118.076 296.256 118.812L294.384 121.404C292.624 120.06 290.856 119.388 289.08 119.388C288.456 119.388 287.912 119.468 287.448 119.628C286.984 119.788 286.624 120.012 286.368 120.3C286.128 120.572 286.008 120.9 286.008 121.284C286.008 121.796 286.192 122.196 286.56 122.484C286.928 122.756 287.544 122.964 288.408 123.108L291.576 123.636C293.256 123.908 294.512 124.444 295.344 125.244C296.176 126.028 296.592 127.068 296.592 128.364C296.592 129.452 296.304 130.404 295.728 131.22C295.152 132.02 294.328 132.644 293.256 133.092C292.2 133.524 290.952 133.74 289.512 133.74ZM303.285 133.74C302.325 133.74 301.469 133.532 300.717 133.116C299.981 132.684 299.397 132.092 298.965 131.34C298.549 130.588 298.341 129.724 298.341 128.748V120.996H301.629V128.268C301.629 129.068 301.861 129.708 302.325 130.188C302.805 130.668 303.445 130.908 304.245 130.908C304.789 130.908 305.277 130.804 305.709 130.596C306.157 130.372 306.525 130.06 306.813 129.66V120.996H310.101V133.5H306.813V132.492C305.853 133.324 304.677 133.74 303.285 133.74ZM312.663 133.5V116.7L315.951 116.148V122.004C316.943 121.22 318.111 120.828 319.455 120.828C320.639 120.828 321.711 121.116 322.671 121.692C323.631 122.268 324.391 123.044 324.951 124.02C325.527 124.98 325.815 126.06 325.815 127.26C325.815 128.46 325.527 129.548 324.951 130.524C324.375 131.484 323.599 132.252 322.623 132.828C321.647 133.388 320.559 133.668 319.359 133.668C318.735 133.668 318.127 133.58 317.535 133.404C316.943 133.228 316.399 132.972 315.903 132.636V133.5H312.663ZM318.927 130.884C319.615 130.884 320.231 130.724 320.775 130.404C321.335 130.084 321.775 129.652 322.095 129.108C322.415 128.564 322.575 127.948 322.575 127.26C322.575 126.572 322.415 125.956 322.095 125.412C321.775 124.852 321.335 124.42 320.775 124.116C320.231 123.796 319.615 123.636 318.927 123.636C318.319 123.636 317.759 123.74 317.247 123.948C316.751 124.14 316.319 124.436 315.951 124.836V129.708C316.303 130.076 316.735 130.364 317.247 130.572C317.775 130.78 318.335 130.884 318.927 130.884ZM332.484 133.74C331.332 133.74 330.268 133.596 329.292 133.308C328.316 133.004 327.468 132.572 326.748 132.012L328.38 129.828C329.1 130.308 329.788 130.668 330.444 130.908C331.116 131.148 331.78 131.268 332.436 131.268C333.172 131.268 333.756 131.148 334.188 130.908C334.636 130.652 334.86 130.324 334.86 129.924C334.86 129.604 334.732 129.348 334.476 129.156C334.236 128.964 333.844 128.828 333.3 128.748L330.9 128.388C329.652 128.196 328.708 127.796 328.068 127.188C327.428 126.564 327.108 125.748 327.108 124.74C327.108 123.924 327.316 123.228 327.732 122.652C328.164 122.06 328.764 121.604 329.532 121.284C330.316 120.948 331.244 120.78 332.316 120.78C333.228 120.78 334.116 120.908 334.98 121.164C335.86 121.42 336.684 121.812 337.452 122.34L335.868 124.476C335.18 124.044 334.524 123.732 333.9 123.54C333.276 123.348 332.644 123.252 332.004 123.252C331.412 123.252 330.932 123.364 330.564 123.588C330.212 123.812 330.036 124.108 330.036 124.476C330.036 124.812 330.164 125.076 330.42 125.268C330.676 125.46 331.116 125.596 331.74 125.676L334.116 126.036C335.364 126.212 336.316 126.612 336.972 127.236C337.628 127.844 337.956 128.636 337.956 129.612C337.956 130.412 337.716 131.124 337.236 131.748C336.756 132.356 336.108 132.844 335.292 133.212C334.476 133.564 333.54 133.74 332.484 133.74ZM345.686 133.74C344.454 133.74 343.342 133.46 342.35 132.9C341.358 132.324 340.574 131.548 339.998 130.572C339.422 129.58 339.134 128.476 339.134 127.26C339.134 126.028 339.422 124.924 339.998 123.948C340.574 122.972 341.358 122.196 342.35 121.62C343.342 121.044 344.454 120.756 345.686 120.756C346.678 120.756 347.622 120.948 348.518 121.332C349.43 121.716 350.214 122.268 350.87 122.988L348.854 125.124C348.39 124.612 347.902 124.236 347.39 123.996C346.894 123.74 346.35 123.612 345.758 123.612C345.118 123.612 344.542 123.772 344.03 124.092C343.534 124.412 343.134 124.844 342.83 125.388C342.542 125.932 342.398 126.556 342.398 127.26C342.398 127.932 342.542 128.548 342.83 129.108C343.134 129.652 343.55 130.084 344.078 130.404C344.606 130.708 345.19 130.86 345.83 130.86C346.39 130.86 346.91 130.748 347.39 130.524C347.886 130.284 348.358 129.932 348.806 129.468L350.774 131.532C350.134 132.22 349.366 132.764 348.47 133.164C347.574 133.548 346.646 133.74 345.686 133.74ZM352.484 133.5V120.996H355.772V122.388C356.172 121.844 356.652 121.428 357.212 121.14C357.772 120.852 358.404 120.708 359.108 120.708C359.716 120.724 360.172 120.82 360.476 120.996V123.876C360.236 123.764 359.972 123.684 359.684 123.636C359.396 123.572 359.1 123.54 358.796 123.54C358.156 123.54 357.572 123.7 357.044 124.02C356.516 124.34 356.092 124.796 355.772 125.388V133.5H352.484ZM362.28 133.5V120.996H365.568V133.5H362.28ZM363.912 119.508C363.4 119.508 362.96 119.324 362.592 118.956C362.224 118.588 362.04 118.148 362.04 117.636C362.04 117.108 362.224 116.668 362.592 116.316C362.96 115.948 363.4 115.764 363.912 115.764C364.44 115.764 364.88 115.948 365.232 116.316C365.6 116.668 365.784 117.108 365.784 117.636C365.784 118.148 365.6 118.588 365.232 118.956C364.88 119.324 364.44 119.508 363.912 119.508ZM368.14 133.5V116.7L371.428 116.148V122.004C372.42 121.22 373.588 120.828 374.932 120.828C376.116 120.828 377.188 121.116 378.148 121.692C379.108 122.268 379.868 123.044 380.428 124.02C381.004 124.98 381.292 126.06 381.292 127.26C381.292 128.46 381.004 129.548 380.428 130.524C379.852 131.484 379.076 132.252 378.1 132.828C377.124 133.388 376.036 133.668 374.836 133.668C374.212 133.668 373.604 133.58 373.012 133.404C372.42 133.228 371.876 132.972 371.38 132.636V133.5H368.14ZM374.404 130.884C375.092 130.884 375.708 130.724 376.252 130.404C376.812 130.084 377.252 129.652 377.572 129.108C377.892 128.564 378.052 127.948 378.052 127.26C378.052 126.572 377.892 125.956 377.572 125.412C377.252 124.852 376.812 124.42 376.252 124.116C375.708 123.796 375.092 123.636 374.404 123.636C373.796 123.636 373.236 123.74 372.724 123.948C372.228 124.14 371.796 124.436 371.428 124.836V129.708C371.78 130.076 372.212 130.364 372.724 130.572C373.252 130.78 373.812 130.884 374.404 130.884ZM389.4 133.74C388.152 133.74 387.016 133.452 385.992 132.876C384.984 132.3 384.184 131.524 383.592 130.548C383 129.572 382.704 128.476 382.704 127.26C382.704 126.044 382.984 124.948 383.544 123.972C384.12 122.996 384.896 122.22 385.872 121.644C386.848 121.068 387.936 120.78 389.136 120.78C390.336 120.78 391.4 121.076 392.328 121.668C393.256 122.26 393.984 123.06 394.512 124.068C395.056 125.076 395.328 126.22 395.328 127.5V128.364H386.064C386.208 128.86 386.44 129.308 386.76 129.708C387.096 130.108 387.504 130.42 387.984 130.644C388.48 130.868 389.008 130.98 389.568 130.98C390.128 130.98 390.64 130.892 391.104 130.716C391.584 130.54 391.992 130.292 392.328 129.972L394.488 131.94C393.72 132.564 392.928 133.02 392.112 133.308C391.312 133.596 390.408 133.74 389.4 133.74ZM386.016 126.012H392.088C391.976 125.516 391.768 125.084 391.464 124.716C391.176 124.332 390.824 124.036 390.408 123.828C390.008 123.604 389.56 123.492 389.064 123.492C388.552 123.492 388.088 123.596 387.672 123.804C387.256 124.012 386.904 124.308 386.616 124.692C386.344 125.06 386.144 125.5 386.016 126.012ZM404.091 133.5V123.732H401.307V120.996H404.091V119.796C404.091 118.388 404.499 117.316 405.315 116.58C406.131 115.828 407.307 115.452 408.843 115.452C409.179 115.452 409.523 115.468 409.875 115.5C410.227 115.532 410.531 115.588 410.787 115.668V118.428C410.483 118.364 410.219 118.316 409.995 118.284C409.771 118.252 409.523 118.236 409.251 118.236C408.627 118.236 408.155 118.372 407.835 118.644C407.531 118.9 407.379 119.308 407.379 119.868V120.996H410.787V123.732H407.379V133.5H404.091ZM418.087 133.74C416.839 133.74 415.711 133.452 414.703 132.876C413.695 132.3 412.895 131.524 412.303 130.548C411.711 129.572 411.415 128.476 411.415 127.26C411.415 126.044 411.703 124.948 412.279 123.972C412.871 122.98 413.671 122.196 414.679 121.62C415.703 121.044 416.839 120.756 418.087 120.756C419.335 120.756 420.463 121.044 421.471 121.62C422.495 122.196 423.295 122.98 423.871 123.972C424.463 124.948 424.759 126.044 424.759 127.26C424.759 128.476 424.463 129.572 423.871 130.548C423.295 131.524 422.503 132.3 421.495 132.876C420.487 133.452 419.351 133.74 418.087 133.74ZM418.087 130.884C418.743 130.884 419.327 130.724 419.839 130.404C420.367 130.084 420.783 129.652 421.087 129.108C421.407 128.548 421.567 127.932 421.567 127.26C421.567 126.572 421.407 125.956 421.087 125.412C420.783 124.868 420.367 124.436 419.839 124.116C419.327 123.78 418.743 123.612 418.087 123.612C417.447 123.612 416.863 123.78 416.335 124.116C415.807 124.436 415.391 124.868 415.087 125.412C414.783 125.956 414.631 126.572 414.631 127.26C414.631 127.932 414.783 128.548 415.087 129.108C415.391 129.652 415.807 130.084 416.335 130.404C416.863 130.724 417.447 130.884 418.087 130.884ZM426.78 133.5V120.996H430.068V122.388C430.468 121.844 430.948 121.428 431.508 121.14C432.068 120.852 432.7 120.708 433.404 120.708C434.012 120.724 434.468 120.82 434.772 120.996V123.876C434.532 123.764 434.268 123.684 433.98 123.636C433.692 123.572 433.396 123.54 433.092 123.54C432.452 123.54 431.868 123.7 431.34 124.02C430.812 124.34 430.388 124.796 430.068 125.388V133.5H426.78ZM441.621 133.5V116.7H444.933L453.285 127.548V116.7H456.549V133.5H453.477L444.909 122.268V133.5H441.621ZM465.502 133.74C464.254 133.74 463.118 133.452 462.094 132.876C461.086 132.3 460.286 131.524 459.694 130.548C459.102 129.572 458.806 128.476 458.806 127.26C458.806 126.044 459.086 124.948 459.646 123.972C460.222 122.996 460.998 122.22 461.974 121.644C462.95 121.068 464.038 120.78 465.238 120.78C466.438 120.78 467.502 121.076 468.43 121.668C469.358 122.26 470.086 123.06 470.614 124.068C471.158 125.076 471.43 126.22 471.43 127.5V128.364H462.166C462.31 128.86 462.542 129.308 462.862 129.708C463.198 130.108 463.606 130.42 464.086 130.644C464.582 130.868 465.11 130.98 465.67 130.98C466.23 130.98 466.742 130.892 467.206 130.716C467.686 130.54 468.094 130.292 468.43 129.972L470.59 131.94C469.822 132.564 469.03 133.02 468.214 133.308C467.414 133.596 466.51 133.74 465.502 133.74ZM462.118 126.012H468.19C468.078 125.516 467.87 125.084 467.566 124.716C467.278 124.332 466.926 124.036 466.51 123.828C466.11 123.604 465.662 123.492 465.166 123.492C464.654 123.492 464.19 123.596 463.774 123.804C463.358 124.012 463.006 124.308 462.718 124.692C462.446 125.06 462.246 125.5 462.118 126.012ZM475.586 133.5L472.154 120.996H475.274L477.338 129.06L479.834 120.996H482.594L485.066 129.084L487.13 120.996H490.202L486.746 133.5H483.602L481.178 125.508L478.754 133.5H475.586ZM496.429 133.74C495.277 133.74 494.213 133.596 493.237 133.308C492.261 133.004 491.413 132.572 490.693 132.012L492.325 129.828C493.045 130.308 493.733 130.668 494.389 130.908C495.061 131.148 495.725 131.268 496.381 131.268C497.117 131.268 497.701 131.148 498.133 130.908C498.581 130.652 498.805 130.324 498.805 129.924C498.805 129.604 498.677 129.348 498.421 129.156C498.181 128.964 497.789 128.828 497.245 128.748L494.845 128.388C493.597 128.196 492.653 127.796 492.013 127.188C491.373 126.564 491.053 125.748 491.053 124.74C491.053 123.924 491.261 123.228 491.677 122.652C492.109 122.06 492.709 121.604 493.477 121.284C494.261 120.948 495.189 120.78 496.261 120.78C497.173 120.78 498.061 120.908 498.925 121.164C499.805 121.42 500.629 121.812 501.397 122.34L499.813 124.476C499.125 124.044 498.469 123.732 497.845 123.54C497.221 123.348 496.589 123.252 495.949 123.252C495.357 123.252 494.877 123.364 494.509 123.588C494.157 123.812 493.981 124.108 493.981 124.476C493.981 124.812 494.109 125.076 494.365 125.268C494.621 125.46 495.061 125.596 495.685 125.676L498.061 126.036C499.309 126.212 500.261 126.612 500.917 127.236C501.573 127.844 501.901 128.636 501.901 129.612C501.901 130.412 501.661 131.124 501.181 131.748C500.701 132.356 500.053 132.844 499.237 133.212C498.421 133.564 497.485 133.74 496.429 133.74ZM503.538 133.5V116.7L506.826 116.148V133.5H503.538ZM515.518 133.74C514.27 133.74 513.134 133.452 512.11 132.876C511.102 132.3 510.302 131.524 509.71 130.548C509.118 129.572 508.822 128.476 508.822 127.26C508.822 126.044 509.102 124.948 509.662 123.972C510.238 122.996 511.014 122.22 511.99 121.644C512.966 121.068 514.054 120.78 515.254 120.78C516.454 120.78 517.518 121.076 518.446 121.668C519.374 122.26 520.102 123.06 520.63 124.068C521.174 125.076 521.446 126.22 521.446 127.5V128.364H512.182C512.326 128.86 512.558 129.308 512.878 129.708C513.214 130.108 513.622 130.42 514.102 130.644C514.598 130.868 515.126 130.98 515.686 130.98C516.246 130.98 516.758 130.892 517.222 130.716C517.702 130.54 518.11 130.292 518.446 129.972L520.606 131.94C519.838 132.564 519.046 133.02 518.23 133.308C517.43 133.596 516.526 133.74 515.518 133.74ZM512.134 126.012H518.206C518.094 125.516 517.886 125.084 517.582 124.716C517.294 124.332 516.942 124.036 516.526 123.828C516.126 123.604 515.678 123.492 515.182 123.492C514.67 123.492 514.206 123.596 513.79 123.804C513.374 124.012 513.022 124.308 512.734 124.692C512.462 125.06 512.262 125.5 512.134 126.012ZM529.037 133.692C527.645 133.692 526.589 133.38 525.869 132.756C525.165 132.116 524.812 131.188 524.812 129.972V123.732H522.245V120.996H524.812V117.804L528.101 117.06V120.996H531.677V123.732H528.101V129.3C528.101 129.876 528.229 130.292 528.485 130.548C528.741 130.788 529.189 130.908 529.829 130.908C530.149 130.908 530.437 130.892 530.693 130.86C530.965 130.812 531.261 130.732 531.581 130.62V133.332C531.245 133.444 530.821 133.532 530.309 133.596C529.813 133.66 529.389 133.692 529.037 133.692ZM539.443 133.692C538.051 133.692 536.995 133.38 536.275 132.756C535.571 132.116 535.219 131.188 535.219 129.972V123.732H532.651V120.996H535.219V117.804L538.507 117.06V120.996H542.083V123.732H538.507V129.3C538.507 129.876 538.635 130.292 538.891 130.548C539.147 130.788 539.595 130.908 540.235 130.908C540.555 130.908 540.843 130.892 541.099 130.86C541.371 130.812 541.667 130.732 541.987 130.62V133.332C541.651 133.444 541.227 133.532 540.715 133.596C540.219 133.66 539.795 133.692 539.443 133.692ZM549.666 133.74C548.418 133.74 547.282 133.452 546.258 132.876C545.25 132.3 544.45 131.524 543.858 130.548C543.266 129.572 542.97 128.476 542.97 127.26C542.97 126.044 543.25 124.948 543.81 123.972C544.386 122.996 545.162 122.22 546.138 121.644C547.114 121.068 548.202 120.78 549.402 120.78C550.602 120.78 551.666 121.076 552.594 121.668C553.522 122.26 554.25 123.06 554.778 124.068C555.322 125.076 555.594 126.22 555.594 127.5V128.364H546.33C546.474 128.86 546.706 129.308 547.026 129.708C547.362 130.108 547.77 130.42 548.25 130.644C548.746 130.868 549.274 130.98 549.834 130.98C550.394 130.98 550.906 130.892 551.37 130.716C551.85 130.54 552.258 130.292 552.594 129.972L554.754 131.94C553.986 132.564 553.194 133.02 552.378 133.308C551.578 133.596 550.674 133.74 549.666 133.74ZM546.282 126.012H552.354C552.242 125.516 552.034 125.084 551.73 124.716C551.442 124.332 551.09 124.036 550.674 123.828C550.274 123.604 549.826 123.492 549.33 123.492C548.818 123.492 548.354 123.596 547.938 123.804C547.522 124.012 547.17 124.308 546.882 124.692C546.61 125.06 546.41 125.5 546.282 126.012ZM557.609 133.5V120.996H560.897V122.388C561.297 121.844 561.777 121.428 562.337 121.14C562.897 120.852 563.529 120.708 564.233 120.708C564.841 120.724 565.297 120.82 565.601 120.996V123.876C565.361 123.764 565.097 123.684 564.809 123.636C564.521 123.572 564.225 123.54 563.921 123.54C563.281 123.54 562.697 123.7 562.169 124.02C561.641 124.34 561.217 124.796 560.897 125.388V133.5H557.609Z" fill="#111F2B"/>
<path d="M288.496 168.676C287.685 168.676 286.928 168.527 286.224 168.228C285.531 167.929 284.917 167.519 284.384 166.996C283.861 166.463 283.451 165.849 283.152 165.156C282.853 164.452 282.704 163.7 282.704 162.9C282.704 162.1 282.848 161.353 283.136 160.66C283.435 159.956 283.845 159.343 284.368 158.82C284.901 158.287 285.515 157.871 286.208 157.572C286.912 157.273 287.669 157.124 288.48 157.124C289.344 157.124 290.16 157.284 290.928 157.604C291.696 157.924 292.352 158.377 292.896 158.964L292.064 159.812C291.637 159.321 291.104 158.943 290.464 158.676C289.835 158.399 289.173 158.26 288.48 158.26C287.84 158.26 287.243 158.377 286.688 158.612C286.144 158.847 285.664 159.177 285.248 159.604C284.843 160.02 284.523 160.511 284.288 161.076C284.064 161.631 283.952 162.239 283.952 162.9C283.952 163.551 284.064 164.159 284.288 164.724C284.523 165.289 284.843 165.785 285.248 166.212C285.664 166.628 286.144 166.953 286.688 167.188C287.243 167.423 287.84 167.54 288.48 167.54C289.237 167.54 289.92 167.375 290.528 167.044C291.147 166.713 291.643 166.26 292.016 165.684C292.4 165.108 292.624 164.457 292.688 163.732H288.672V162.644H293.936V163.14C293.936 163.919 293.797 164.644 293.52 165.316C293.243 165.988 292.859 166.575 292.368 167.076C291.877 167.577 291.301 167.972 290.64 168.26C289.979 168.537 289.264 168.676 288.496 168.676ZM295.617 168.5V160.484H296.801V161.62C297.047 161.204 297.356 160.884 297.729 160.66C298.113 160.425 298.551 160.308 299.041 160.308C299.319 160.308 299.569 160.345 299.793 160.42V161.508C299.655 161.455 299.516 161.417 299.377 161.396C299.239 161.375 299.1 161.364 298.961 161.364C298.471 161.364 298.039 161.508 297.665 161.796C297.303 162.073 297.015 162.479 296.801 163.012V168.5H295.617ZM304.314 168.66C303.557 168.66 302.863 168.479 302.234 168.116C301.615 167.743 301.125 167.241 300.762 166.612C300.399 165.983 300.218 165.279 300.218 164.5C300.218 163.721 300.399 163.017 300.762 162.388C301.125 161.759 301.615 161.263 302.234 160.9C302.863 160.527 303.557 160.34 304.314 160.34C305.082 160.34 305.775 160.527 306.394 160.9C307.013 161.263 307.503 161.759 307.866 162.388C308.229 163.017 308.41 163.721 308.41 164.5C308.41 165.279 308.229 165.983 307.866 166.612C307.503 167.241 307.013 167.743 306.394 168.116C305.775 168.479 305.082 168.66 304.314 168.66ZM304.314 167.604C304.858 167.604 305.349 167.465 305.786 167.188C306.234 166.911 306.586 166.537 306.842 166.068C307.109 165.599 307.242 165.076 307.242 164.5C307.242 163.913 307.109 163.391 306.842 162.932C306.586 162.463 306.234 162.089 305.786 161.812C305.349 161.535 304.858 161.396 304.314 161.396C303.77 161.396 303.274 161.535 302.826 161.812C302.389 162.089 302.037 162.463 301.77 162.932C301.514 163.391 301.386 163.913 301.386 164.5C301.386 165.076 301.514 165.599 301.77 166.068C302.037 166.537 302.389 166.911 302.826 167.188C303.274 167.465 303.77 167.604 304.314 167.604ZM311.371 168.5L309.115 160.484H310.283L312.011 166.884L314.011 160.484H315.067L317.051 166.884L318.795 160.484H319.915L317.643 168.5H316.507L314.523 162.084L312.523 168.5H311.371ZM328.074 168.5V163.94L323.626 157.3H325.066L328.73 162.852L332.378 157.3H333.77L329.306 163.988V168.5H328.074ZM336.611 168.66C335.854 168.66 335.16 168.479 334.531 168.116C333.912 167.743 333.422 167.241 333.059 166.612C332.696 165.983 332.515 165.279 332.515 164.5C332.515 163.721 332.696 163.017 333.059 162.388C333.422 161.759 333.912 161.263 334.531 160.9C335.16 160.527 335.854 160.34 336.611 160.34C337.379 160.34 338.072 160.527 338.691 160.9C339.31 161.263 339.8 161.759 340.163 162.388C340.526 163.017 340.707 163.721 340.707 164.5C340.707 165.279 340.526 165.983 340.163 166.612C339.8 167.241 339.31 167.743 338.691 168.116C338.072 168.479 337.379 168.66 336.611 168.66ZM336.611 167.604C337.155 167.604 337.646 167.465 338.083 167.188C338.531 166.911 338.883 166.537 339.139 166.068C339.406 165.599 339.539 165.076 339.539 164.5C339.539 163.913 339.406 163.391 339.139 162.932C338.883 162.463 338.531 162.089 338.083 161.812C337.646 161.535 337.155 161.396 336.611 161.396C336.067 161.396 335.571 161.535 335.123 161.812C334.686 162.089 334.334 162.463 334.067 162.932C333.811 163.391 333.683 163.913 333.683 164.5C333.683 165.076 333.811 165.599 334.067 166.068C334.334 166.537 334.686 166.911 335.123 167.188C335.571 167.465 336.067 167.604 336.611 167.604ZM345.424 168.66C344.816 168.66 344.277 168.532 343.808 168.276C343.338 168.009 342.97 167.647 342.704 167.188C342.448 166.719 342.32 166.175 342.32 165.556V160.484H343.488V165.316C343.488 166.031 343.69 166.596 344.096 167.012C344.501 167.417 345.045 167.62 345.728 167.62C346.208 167.62 346.634 167.513 347.008 167.3C347.392 167.076 347.701 166.767 347.936 166.372V160.484H349.12V168.5H347.936V167.572C347.306 168.297 346.469 168.66 345.424 168.66ZM351.133 168.5V160.484H352.317V161.62C352.562 161.204 352.872 160.884 353.245 160.66C353.629 160.425 354.066 160.308 354.557 160.308C354.834 160.308 355.085 160.345 355.309 160.42V161.508C355.17 161.455 355.032 161.417 354.893 161.396C354.754 161.375 354.616 161.364 354.477 161.364C353.986 161.364 353.554 161.508 353.181 161.796C352.818 162.073 352.53 162.479 352.317 163.012V168.5H351.133ZM360.326 168.5V157.3H364.87C365.595 157.3 366.219 157.417 366.742 157.652C367.275 157.887 367.686 158.223 367.974 158.66C368.262 159.087 368.406 159.593 368.406 160.18C368.406 160.756 368.251 161.257 367.942 161.684C367.643 162.111 367.227 162.436 366.694 162.66C367.366 162.863 367.894 163.199 368.278 163.668C368.672 164.137 368.87 164.697 368.87 165.348C368.87 165.988 368.71 166.548 368.39 167.028C368.08 167.497 367.638 167.86 367.062 168.116C366.496 168.372 365.83 168.5 365.062 168.5H360.326ZM361.558 162.18H364.806C365.531 162.18 366.107 162.009 366.534 161.668C366.971 161.327 367.19 160.863 367.19 160.276C367.19 159.689 366.971 159.225 366.534 158.884C366.107 158.543 365.531 158.372 364.806 158.372H361.558V162.18ZM361.558 167.428H364.966C365.776 167.428 366.422 167.236 366.902 166.852C367.382 166.468 367.622 165.956 367.622 165.316C367.622 164.676 367.382 164.164 366.902 163.78C366.422 163.396 365.776 163.204 364.966 163.204H361.558V167.428ZM373.533 168.66C372.925 168.66 372.386 168.532 371.917 168.276C371.448 168.009 371.08 167.647 370.813 167.188C370.557 166.719 370.429 166.175 370.429 165.556V160.484H371.597V165.316C371.597 166.031 371.8 166.596 372.205 167.012C372.61 167.417 373.154 167.62 373.837 167.62C374.317 167.62 374.744 167.513 375.117 167.3C375.501 167.076 375.81 166.767 376.045 166.372V160.484H377.229V168.5H376.045V167.572C375.416 168.297 374.578 168.66 373.533 168.66ZM381.802 168.66C381.141 168.66 380.517 168.553 379.93 168.34C379.354 168.116 378.853 167.807 378.426 167.412L379.146 166.644C379.52 166.985 379.93 167.252 380.378 167.444C380.826 167.625 381.285 167.716 381.754 167.716C382.394 167.716 382.917 167.583 383.322 167.316C383.728 167.049 383.93 166.703 383.93 166.276C383.93 165.924 383.808 165.652 383.562 165.46C383.328 165.257 382.954 165.119 382.442 165.044L381.05 164.852C380.25 164.735 379.653 164.495 379.258 164.132C378.874 163.769 378.682 163.279 378.682 162.66C378.682 162.212 378.81 161.812 379.066 161.46C379.322 161.108 379.674 160.831 380.122 160.628C380.581 160.425 381.104 160.324 381.69 160.324C382.277 160.324 382.826 160.409 383.338 160.58C383.85 160.751 384.352 161.017 384.842 161.38L384.218 162.18C383.77 161.871 383.333 161.647 382.906 161.508C382.49 161.359 382.064 161.284 381.626 161.284C381.072 161.284 380.624 161.407 380.282 161.652C379.941 161.897 379.77 162.217 379.77 162.612C379.77 162.975 379.888 163.252 380.122 163.444C380.357 163.625 380.736 163.753 381.258 163.828L382.65 164.02C383.45 164.127 384.048 164.361 384.442 164.724C384.848 165.087 385.05 165.583 385.05 166.212C385.05 166.671 384.906 167.087 384.618 167.46C384.33 167.833 383.941 168.127 383.45 168.34C382.97 168.553 382.421 168.66 381.802 168.66ZM386.383 168.5V160.484H387.567V168.5H386.383ZM386.975 158.948C386.762 158.948 386.575 158.868 386.415 158.708C386.255 158.548 386.175 158.361 386.175 158.148C386.175 157.924 386.255 157.737 386.415 157.588C386.575 157.428 386.762 157.348 386.975 157.348C387.199 157.348 387.386 157.428 387.535 157.588C387.695 157.737 387.775 157.924 387.775 158.148C387.775 158.361 387.695 158.548 387.535 158.708C387.386 158.868 387.199 158.948 386.975 158.948ZM389.586 168.5V160.484H390.77V161.428C391.399 160.692 392.242 160.324 393.298 160.324C393.906 160.324 394.439 160.457 394.898 160.724C395.367 160.98 395.73 161.343 395.986 161.812C396.253 162.271 396.386 162.809 396.386 163.428V168.5H395.218V163.668C395.218 162.953 395.015 162.393 394.61 161.988C394.215 161.572 393.671 161.364 392.978 161.364C392.498 161.364 392.071 161.471 391.698 161.684C391.325 161.897 391.015 162.201 390.77 162.596V168.5H389.586ZM402.127 168.644C401.359 168.644 400.661 168.463 400.031 168.1C399.413 167.727 398.917 167.225 398.543 166.596C398.181 165.967 397.999 165.263 397.999 164.484C397.999 163.716 398.175 163.023 398.527 162.404C398.879 161.775 399.354 161.279 399.951 160.916C400.549 160.543 401.215 160.356 401.951 160.356C402.666 160.356 403.306 160.543 403.871 160.916C404.447 161.279 404.901 161.775 405.231 162.404C405.573 163.023 405.743 163.716 405.743 164.484V164.852H399.167C399.231 165.375 399.397 165.844 399.663 166.26C399.941 166.676 400.298 167.007 400.735 167.252C401.173 167.487 401.653 167.604 402.175 167.604C402.591 167.604 402.997 167.54 403.391 167.412C403.786 167.284 404.117 167.103 404.383 166.868L405.119 167.652C404.671 167.983 404.202 168.233 403.711 168.404C403.231 168.564 402.703 168.644 402.127 168.644ZM399.199 163.908H404.559C404.495 163.428 404.335 163.001 404.079 162.628C403.834 162.244 403.525 161.945 403.151 161.732C402.778 161.508 402.367 161.396 401.919 161.396C401.461 161.396 401.039 161.503 400.655 161.716C400.271 161.929 399.951 162.228 399.695 162.612C399.439 162.985 399.274 163.417 399.199 163.908ZM410.037 168.66C409.375 168.66 408.751 168.553 408.165 168.34C407.589 168.116 407.087 167.807 406.661 167.412L407.381 166.644C407.754 166.985 408.165 167.252 408.613 167.444C409.061 167.625 409.519 167.716 409.989 167.716C410.629 167.716 411.151 167.583 411.557 167.316C411.962 167.049 412.165 166.703 412.165 166.276C412.165 165.924 412.042 165.652 411.797 165.46C411.562 165.257 411.189 165.119 410.677 165.044L409.285 164.852C408.485 164.735 407.887 164.495 407.493 164.132C407.109 163.769 406.917 163.279 406.917 162.66C406.917 162.212 407.045 161.812 407.301 161.46C407.557 161.108 407.909 160.831 408.357 160.628C408.815 160.425 409.338 160.324 409.925 160.324C410.511 160.324 411.061 160.409 411.573 160.58C412.085 160.751 412.586 161.017 413.077 161.38L412.453 162.18C412.005 161.871 411.567 161.647 411.141 161.508C410.725 161.359 410.298 161.284 409.861 161.284C409.306 161.284 408.858 161.407 408.517 161.652C408.175 161.897 408.005 162.217 408.005 162.612C408.005 162.975 408.122 163.252 408.357 163.444C408.591 163.625 408.97 163.753 409.493 163.828L410.885 164.02C411.685 164.127 412.282 164.361 412.677 164.724C413.082 165.087 413.285 165.583 413.285 166.212C413.285 166.671 413.141 167.087 412.853 167.46C412.565 167.833 412.175 168.127 411.685 168.34C411.205 168.553 410.655 168.66 410.037 168.66ZM417.177 168.66C416.516 168.66 415.892 168.553 415.305 168.34C414.729 168.116 414.228 167.807 413.801 167.412L414.521 166.644C414.895 166.985 415.305 167.252 415.753 167.444C416.201 167.625 416.66 167.716 417.129 167.716C417.769 167.716 418.292 167.583 418.697 167.316C419.103 167.049 419.305 166.703 419.305 166.276C419.305 165.924 419.183 165.652 418.937 165.46C418.703 165.257 418.329 165.119 417.817 165.044L416.425 164.852C415.625 164.735 415.028 164.495 414.633 164.132C414.249 163.769 414.057 163.279 414.057 162.66C414.057 162.212 414.185 161.812 414.441 161.46C414.697 161.108 415.049 160.831 415.497 160.628C415.956 160.425 416.479 160.324 417.065 160.324C417.652 160.324 418.201 160.409 418.713 160.58C419.225 160.751 419.727 161.017 420.217 161.38L419.593 162.18C419.145 161.871 418.708 161.647 418.281 161.508C417.865 161.359 417.439 161.284 417.001 161.284C416.447 161.284 415.999 161.407 415.657 161.652C415.316 161.897 415.145 162.217 415.145 162.612C415.145 162.975 415.263 163.252 415.497 163.444C415.732 163.625 416.111 163.753 416.633 163.828L418.025 164.02C418.825 164.127 419.423 164.361 419.817 164.724C420.223 165.087 420.425 165.583 420.425 166.212C420.425 166.671 420.281 167.087 419.993 167.46C419.705 167.833 419.316 168.127 418.825 168.34C418.345 168.553 417.796 168.66 417.177 168.66ZM426.668 168.5L424.412 160.484H425.58L427.308 166.884L429.308 160.484H430.364L432.348 166.884L434.092 160.484H435.212L432.94 168.5H431.804L429.82 162.084L427.82 168.5H426.668ZM436.446 168.5V160.484H437.63V168.5H436.446ZM437.038 158.948C436.824 158.948 436.638 158.868 436.478 158.708C436.318 158.548 436.238 158.361 436.238 158.148C436.238 157.924 436.318 157.737 436.478 157.588C436.638 157.428 436.824 157.348 437.038 157.348C437.262 157.348 437.448 157.428 437.598 157.588C437.758 157.737 437.838 157.924 437.838 158.148C437.838 158.361 437.758 158.548 437.598 158.708C437.448 158.868 437.262 158.948 437.038 158.948ZM442.801 168.66C442.107 168.66 441.574 168.495 441.201 168.164C440.827 167.833 440.641 167.353 440.641 166.724V161.492H438.913V160.484H440.641V158.452L441.809 158.148V160.484H444.225V161.492H441.809V166.42C441.809 166.847 441.905 167.156 442.097 167.348C442.289 167.529 442.603 167.62 443.041 167.62C443.265 167.62 443.462 167.604 443.633 167.572C443.814 167.54 444.006 167.487 444.209 167.412V168.452C444.006 168.527 443.777 168.58 443.521 168.612C443.275 168.644 443.035 168.66 442.801 168.66ZM445.492 168.5V157.3L446.676 157.028V161.428C447.306 160.692 448.148 160.324 449.204 160.324C449.812 160.324 450.346 160.457 450.804 160.724C451.274 160.98 451.636 161.343 451.892 161.812C452.159 162.271 452.292 162.809 452.292 163.428V168.5H451.124V163.668C451.124 162.953 450.922 162.393 450.516 161.988C450.122 161.572 449.578 161.364 448.884 161.364C448.404 161.364 447.978 161.471 447.604 161.684C447.231 161.897 446.922 162.201 446.676 162.596V168.5H445.492ZM463.183 168.676C462.372 168.676 461.615 168.532 460.911 168.244C460.218 167.945 459.604 167.535 459.071 167.012C458.548 166.479 458.138 165.865 457.839 165.172C457.551 164.468 457.407 163.711 457.407 162.9C457.407 162.089 457.551 161.337 457.839 160.644C458.138 159.94 458.548 159.327 459.071 158.804C459.604 158.271 460.218 157.86 460.911 157.572C461.615 157.273 462.372 157.124 463.183 157.124C463.983 157.124 464.73 157.273 465.423 157.572C466.127 157.86 466.74 158.271 467.263 158.804C467.796 159.327 468.207 159.94 468.495 160.644C468.794 161.337 468.943 162.089 468.943 162.9C468.943 163.711 468.794 164.468 468.495 165.172C468.207 165.865 467.796 166.479 467.263 167.012C466.74 167.535 466.127 167.945 465.423 168.244C464.73 168.532 463.983 168.676 463.183 168.676ZM463.183 167.54C463.823 167.54 464.415 167.423 464.959 167.188C465.503 166.953 465.978 166.628 466.383 166.212C466.799 165.785 467.119 165.289 467.343 164.724C467.578 164.159 467.695 163.551 467.695 162.9C467.695 162.239 467.578 161.631 467.343 161.076C467.119 160.511 466.799 160.02 466.383 159.604C465.978 159.177 465.503 158.847 464.959 158.612C464.415 158.377 463.823 158.26 463.183 158.26C462.543 158.26 461.946 158.377 461.391 158.612C460.847 158.847 460.367 159.177 459.951 159.604C459.546 160.02 459.226 160.511 458.991 161.076C458.767 161.631 458.655 162.233 458.655 162.884C458.655 163.545 458.767 164.159 458.991 164.724C459.226 165.289 459.546 165.785 459.951 166.212C460.367 166.628 460.847 166.953 461.391 167.188C461.946 167.423 462.543 167.54 463.183 167.54ZM473.721 168.66C473.113 168.66 472.574 168.532 472.105 168.276C471.635 168.009 471.267 167.647 471.001 167.188C470.745 166.719 470.617 166.175 470.617 165.556V160.484H471.785V165.316C471.785 166.031 471.987 166.596 472.393 167.012C472.798 167.417 473.342 167.62 474.025 167.62C474.505 167.62 474.931 167.513 475.305 167.3C475.689 167.076 475.998 166.767 476.233 166.372V160.484H477.417V168.5H476.233V167.572C475.603 168.297 474.766 168.66 473.721 168.66ZM479.43 168.5V160.484H480.614V161.62C480.859 161.204 481.169 160.884 481.542 160.66C481.926 160.425 482.363 160.308 482.854 160.308C483.131 160.308 483.382 160.345 483.606 160.42V161.508C483.467 161.455 483.329 161.417 483.19 161.396C483.051 161.375 482.913 161.364 482.774 161.364C482.283 161.364 481.851 161.508 481.478 161.796C481.115 162.073 480.827 162.479 480.614 163.012V168.5H479.43ZM492.255 168.66C491.369 168.66 490.521 168.484 489.711 168.132C488.9 167.769 488.185 167.252 487.567 166.58L488.383 165.732C488.959 166.351 489.572 166.815 490.223 167.124C490.884 167.433 491.577 167.588 492.303 167.588C492.889 167.588 493.407 167.497 493.855 167.316C494.313 167.124 494.671 166.863 494.927 166.532C495.183 166.191 495.311 165.807 495.311 165.38C495.311 164.804 495.108 164.361 494.703 164.052C494.308 163.743 493.652 163.513 492.735 163.364L491.119 163.108C490.041 162.927 489.247 162.607 488.735 162.148C488.223 161.689 487.967 161.065 487.967 160.276C487.967 159.657 488.132 159.113 488.463 158.644C488.793 158.175 489.252 157.812 489.839 157.556C490.436 157.289 491.124 157.156 491.903 157.156C492.692 157.156 493.465 157.284 494.223 157.54C494.991 157.796 495.689 158.164 496.319 158.644L495.615 159.604C494.388 158.676 493.135 158.212 491.855 158.212C491.321 158.212 490.852 158.297 490.447 158.468C490.041 158.628 489.727 158.857 489.503 159.156C489.279 159.444 489.167 159.785 489.167 160.18C489.167 160.703 489.343 161.103 489.695 161.38C490.047 161.657 490.628 161.86 491.439 161.988L493.039 162.244C494.265 162.447 495.156 162.793 495.711 163.284C496.265 163.764 496.543 164.441 496.543 165.316C496.543 165.967 496.361 166.548 495.999 167.06C495.636 167.561 495.129 167.956 494.479 168.244C493.839 168.521 493.097 168.66 492.255 168.66ZM498.216 168.5V157.3H506.232V158.388H499.448V162.308H503.88V163.38H499.448V167.412H506.296V168.5H498.216ZM512.605 168.676C511.794 168.676 511.037 168.532 510.333 168.244C509.64 167.945 509.026 167.535 508.493 167.012C507.97 166.479 507.56 165.865 507.261 165.172C506.973 164.468 506.829 163.711 506.829 162.9C506.829 162.089 506.973 161.337 507.261 160.644C507.56 159.94 507.97 159.327 508.493 158.804C509.026 158.271 509.64 157.86 510.333 157.572C511.037 157.273 511.794 157.124 512.605 157.124C513.405 157.124 514.152 157.273 514.845 157.572C515.549 157.86 516.162 158.271 516.685 158.804C517.218 159.327 517.629 159.94 517.917 160.644C518.216 161.337 518.365 162.089 518.365 162.9C518.365 163.711 518.216 164.468 517.917 165.172C517.629 165.865 517.218 166.479 516.685 167.012C516.162 167.535 515.549 167.945 514.845 168.244C514.152 168.532 513.405 168.676 512.605 168.676ZM512.605 167.54C513.245 167.54 513.837 167.423 514.381 167.188C514.925 166.953 515.4 166.628 515.805 166.212C516.221 165.785 516.541 165.289 516.765 164.724C517 164.159 517.117 163.551 517.117 162.9C517.117 162.239 517 161.631 516.765 161.076C516.541 160.511 516.221 160.02 515.805 159.604C515.4 159.177 514.925 158.847 514.381 158.612C513.837 158.377 513.245 158.26 512.605 158.26C511.965 158.26 511.368 158.377 510.813 158.612C510.269 158.847 509.789 159.177 509.373 159.604C508.968 160.02 508.648 160.511 508.413 161.076C508.189 161.631 508.077 162.233 508.077 162.884C508.077 163.545 508.189 164.159 508.413 164.724C508.648 165.289 508.968 165.785 509.373 166.212C509.789 166.628 510.269 166.953 510.813 167.188C511.368 167.423 511.965 167.54 512.605 167.54ZM522.564 168.5L527.204 157.3H528.692L533.3 168.5H531.956L530.548 164.98H525.268L523.844 168.5H522.564ZM525.7 163.924H530.116L527.908 158.436L525.7 163.924ZM537.865 171.924C537.31 171.924 536.761 171.849 536.217 171.7C535.673 171.561 535.177 171.359 534.729 171.092L535.241 170.164C535.721 170.42 536.164 170.607 536.569 170.724C536.985 170.841 537.401 170.9 537.817 170.9C538.574 170.9 539.15 170.719 539.545 170.356C539.94 169.993 540.137 169.46 540.137 168.756V167.636C539.401 168.255 538.553 168.564 537.593 168.564C536.857 168.564 536.185 168.383 535.577 168.02C534.969 167.657 534.484 167.167 534.121 166.548C533.769 165.919 533.593 165.22 533.593 164.452C533.593 163.684 533.769 162.991 534.121 162.372C534.484 161.743 534.969 161.247 535.577 160.884C536.185 160.521 536.868 160.34 537.625 160.34C538.084 160.34 538.526 160.42 538.953 160.58C539.39 160.74 539.79 160.975 540.153 161.284V160.484H541.321V168.74C541.321 169.764 541.022 170.548 540.425 171.092C539.828 171.647 538.974 171.924 537.865 171.924ZM537.689 167.524C538.201 167.524 538.67 167.428 539.097 167.236C539.524 167.044 539.87 166.772 540.137 166.42V162.484C539.87 162.143 539.518 161.876 539.081 161.684C538.654 161.492 538.19 161.396 537.689 161.396C537.134 161.396 536.633 161.529 536.185 161.796C535.748 162.063 535.401 162.431 535.145 162.9C534.889 163.359 534.761 163.876 534.761 164.452C534.761 165.028 534.889 165.551 535.145 166.02C535.412 166.479 535.764 166.847 536.201 167.124C536.649 167.391 537.145 167.524 537.689 167.524ZM547.096 168.644C546.328 168.644 545.629 168.463 545 168.1C544.381 167.727 543.885 167.225 543.512 166.596C543.149 165.967 542.968 165.263 542.968 164.484C542.968 163.716 543.144 163.023 543.496 162.404C543.848 161.775 544.323 161.279 544.92 160.916C545.517 160.543 546.184 160.356 546.92 160.356C547.635 160.356 548.275 160.543 548.84 160.916C549.416 161.279 549.869 161.775 550.2 162.404C550.541 163.023 550.712 163.716 550.712 164.484V164.852H544.136C544.2 165.375 544.365 165.844 544.632 166.26C544.909 166.676 545.267 167.007 545.704 167.252C546.141 167.487 546.621 167.604 547.144 167.604C547.56 167.604 547.965 167.54 548.36 167.412C548.755 167.284 549.085 167.103 549.352 166.868L550.088 167.652C549.64 167.983 549.171 168.233 548.68 168.404C548.2 168.564 547.672 168.644 547.096 168.644ZM544.168 163.908H549.528C549.464 163.428 549.304 163.001 549.048 162.628C548.803 162.244 548.493 161.945 548.12 161.732C547.747 161.508 547.336 161.396 546.888 161.396C546.429 161.396 546.008 161.503 545.624 161.716C545.24 161.929 544.92 162.228 544.664 162.612C544.408 162.985 544.243 163.417 544.168 163.908ZM552.367 168.5V160.484H553.551V161.428C554.181 160.692 555.023 160.324 556.079 160.324C556.687 160.324 557.221 160.457 557.679 160.724C558.149 160.98 558.511 161.343 558.767 161.812C559.034 162.271 559.167 162.809 559.167 163.428V168.5H557.999V163.668C557.999 162.953 557.797 162.393 557.391 161.988C556.997 161.572 556.453 161.364 555.759 161.364C555.279 161.364 554.853 161.471 554.479 161.684C554.106 161.897 553.797 162.201 553.551 162.596V168.5H552.367ZM564.861 168.644C564.103 168.644 563.415 168.463 562.797 168.1C562.178 167.727 561.687 167.225 561.325 166.596C560.962 165.967 560.781 165.263 560.781 164.484C560.781 163.705 560.962 163.007 561.325 162.388C561.687 161.759 562.178 161.257 562.797 160.884C563.415 160.511 564.103 160.324 564.861 160.324C565.447 160.324 566.013 160.436 566.557 160.66C567.101 160.873 567.581 161.183 567.997 161.588L567.245 162.452C566.925 162.111 566.557 161.855 566.141 161.684C565.735 161.503 565.314 161.412 564.877 161.412C564.333 161.412 563.837 161.551 563.389 161.828C562.951 162.095 562.599 162.463 562.333 162.932C562.077 163.391 561.949 163.908 561.949 164.484C561.949 165.06 562.077 165.583 562.333 166.052C562.599 166.521 562.957 166.895 563.405 167.172C563.853 167.439 564.349 167.572 564.893 167.572C565.33 167.572 565.741 167.487 566.125 167.316C566.519 167.145 566.887 166.895 567.229 166.564L567.965 167.364C567.538 167.769 567.058 168.084 566.525 168.308C565.991 168.532 565.437 168.644 564.861 168.644ZM569.688 171.924C569.538 171.924 569.394 171.913 569.256 171.892C569.128 171.881 569.021 171.865 568.936 171.844V170.772C569.117 170.815 569.341 170.836 569.608 170.836C570.312 170.836 570.845 170.42 571.208 169.588L571.688 168.484L568.424 160.484H569.736L572.328 167.06L575.128 160.484H576.408L572.408 169.748C572.184 170.26 571.944 170.676 571.688 170.996C571.432 171.316 571.138 171.551 570.808 171.7C570.488 171.849 570.114 171.924 569.688 171.924Z" fill="#84939E"/>
<path d="M117.232 280.5V269.3H125.248V270.388H118.464V274.308H122.896V275.38H118.464V279.412H125.312V280.5H117.232ZM126.867 280.5V272.484H128.051V273.428C128.681 272.692 129.523 272.324 130.579 272.324C131.187 272.324 131.721 272.457 132.179 272.724C132.649 272.98 133.011 273.343 133.267 273.812C133.534 274.271 133.667 274.809 133.667 275.428V280.5H132.499V275.668C132.499 274.953 132.297 274.393 131.891 273.988C131.497 273.572 130.953 273.364 130.259 273.364C129.779 273.364 129.353 273.471 128.979 273.684C128.606 273.897 128.297 274.201 128.051 274.596V280.5H126.867ZM138.566 280.66C137.873 280.66 137.34 280.495 136.966 280.164C136.593 279.833 136.406 279.353 136.406 278.724V273.492H134.678V272.484H136.406V270.452L137.574 270.148V272.484H139.99V273.492H137.574V278.42C137.574 278.847 137.67 279.156 137.862 279.348C138.054 279.529 138.369 279.62 138.806 279.62C139.03 279.62 139.228 279.604 139.398 279.572C139.58 279.54 139.772 279.487 139.974 279.412V280.452C139.772 280.527 139.542 280.58 139.286 280.612C139.041 280.644 138.801 280.66 138.566 280.66ZM144.862 280.644C144.094 280.644 143.395 280.463 142.766 280.1C142.147 279.727 141.651 279.225 141.278 278.596C140.915 277.967 140.734 277.263 140.734 276.484C140.734 275.716 140.91 275.023 141.262 274.404C141.614 273.775 142.088 273.279 142.686 272.916C143.283 272.543 143.95 272.356 144.686 272.356C145.4 272.356 146.04 272.543 146.606 272.916C147.182 273.279 147.635 273.775 147.966 274.404C148.307 275.023 148.478 275.716 148.478 276.484V276.852H141.902C141.966 277.375 142.131 277.844 142.398 278.26C142.675 278.676 143.032 279.007 143.47 279.252C143.907 279.487 144.387 279.604 144.91 279.604C145.326 279.604 145.731 279.54 146.126 279.412C146.52 279.284 146.851 279.103 147.118 278.868L147.854 279.652C147.406 279.983 146.936 280.233 146.446 280.404C145.966 280.564 145.438 280.644 144.862 280.644ZM141.934 275.908H147.294C147.23 275.428 147.07 275.001 146.814 274.628C146.568 274.244 146.259 273.945 145.886 273.732C145.512 273.508 145.102 273.396 144.654 273.396C144.195 273.396 143.774 273.503 143.39 273.716C143.006 273.929 142.686 274.228 142.43 274.612C142.174 274.985 142.008 275.417 141.934 275.908ZM150.133 280.5V272.484H151.317V273.62C151.562 273.204 151.872 272.884 152.245 272.66C152.629 272.425 153.066 272.308 153.557 272.308C153.834 272.308 154.085 272.345 154.309 272.42V273.508C154.17 273.455 154.032 273.417 153.893 273.396C153.754 273.375 153.616 273.364 153.477 273.364C152.986 273.364 152.554 273.508 152.181 273.796C151.818 274.073 151.53 274.479 151.317 275.012V280.5H150.133ZM159.438 283.924C159.288 283.924 159.144 283.913 159.006 283.892C158.878 283.881 158.771 283.865 158.686 283.844V282.772C158.867 282.815 159.091 282.836 159.358 282.836C160.062 282.836 160.595 282.42 160.958 281.588L161.438 280.484L158.174 272.484H159.486L162.078 279.06L164.878 272.484H166.158L162.158 281.748C161.934 282.26 161.694 282.676 161.438 282.996C161.182 283.316 160.888 283.551 160.558 283.7C160.238 283.849 159.864 283.924 159.438 283.924ZM170.752 280.66C169.994 280.66 169.301 280.479 168.672 280.116C168.053 279.743 167.562 279.241 167.2 278.612C166.837 277.983 166.656 277.279 166.656 276.5C166.656 275.721 166.837 275.017 167.2 274.388C167.562 273.759 168.053 273.263 168.672 272.9C169.301 272.527 169.994 272.34 170.752 272.34C171.52 272.34 172.213 272.527 172.832 272.9C173.45 273.263 173.941 273.759 174.304 274.388C174.666 275.017 174.848 275.721 174.848 276.5C174.848 277.279 174.666 277.983 174.304 278.612C173.941 279.241 173.45 279.743 172.832 280.116C172.213 280.479 171.52 280.66 170.752 280.66ZM170.752 279.604C171.296 279.604 171.786 279.465 172.224 279.188C172.672 278.911 173.024 278.537 173.28 278.068C173.546 277.599 173.68 277.076 173.68 276.5C173.68 275.913 173.546 275.391 173.28 274.932C173.024 274.463 172.672 274.089 172.224 273.812C171.786 273.535 171.296 273.396 170.752 273.396C170.208 273.396 169.712 273.535 169.264 273.812C168.826 274.089 168.474 274.463 168.208 274.932C167.952 275.391 167.824 275.913 167.824 276.5C167.824 277.076 167.952 277.599 168.208 278.068C168.474 278.537 168.826 278.911 169.264 279.188C169.712 279.465 170.208 279.604 170.752 279.604ZM179.564 280.66C178.956 280.66 178.418 280.532 177.948 280.276C177.479 280.009 177.111 279.647 176.844 279.188C176.588 278.719 176.46 278.175 176.46 277.556V272.484H177.628V277.316C177.628 278.031 177.831 278.596 178.236 279.012C178.642 279.417 179.186 279.62 179.868 279.62C180.348 279.62 180.775 279.513 181.148 279.3C181.532 279.076 181.842 278.767 182.076 278.372V272.484H183.26V280.5H182.076V279.572C181.447 280.297 180.61 280.66 179.564 280.66ZM185.274 280.5V272.484H186.458V273.62C186.703 273.204 187.012 272.884 187.386 272.66C187.77 272.425 188.207 272.308 188.698 272.308C188.975 272.308 189.226 272.345 189.45 272.42V273.508C189.311 273.455 189.172 273.417 189.034 273.396C188.895 273.375 188.756 273.364 188.618 273.364C188.127 273.364 187.695 273.508 187.322 273.796C186.959 274.073 186.671 274.479 186.458 275.012V280.5H185.274ZM194.242 280.5V272.484H195.426V273.364C196.034 272.671 196.818 272.324 197.778 272.324C198.344 272.324 198.845 272.457 199.282 272.724C199.72 272.98 200.061 273.332 200.306 273.78C200.637 273.289 201.032 272.927 201.49 272.692C201.949 272.447 202.472 272.324 203.058 272.324C203.645 272.324 204.157 272.457 204.594 272.724C205.032 272.98 205.373 273.343 205.618 273.812C205.874 274.271 206.002 274.809 206.002 275.428V280.5H204.834V275.668C204.834 274.953 204.648 274.393 204.274 273.988C203.901 273.572 203.394 273.364 202.754 273.364C202.317 273.364 201.917 273.476 201.554 273.7C201.192 273.913 200.882 274.239 200.626 274.676C200.648 274.793 200.664 274.916 200.674 275.044C200.696 275.161 200.706 275.289 200.706 275.428V280.5H199.538V275.668C199.538 274.953 199.352 274.393 198.978 273.988C198.605 273.572 198.104 273.364 197.474 273.364C197.048 273.364 196.658 273.465 196.306 273.668C195.965 273.86 195.672 274.148 195.426 274.532V280.5H194.242ZM210.52 280.644C209.934 280.644 209.416 280.543 208.968 280.34C208.531 280.137 208.184 279.855 207.928 279.492C207.683 279.129 207.56 278.708 207.56 278.228C207.56 277.471 207.848 276.873 208.424 276.436C209 275.999 209.779 275.78 210.76 275.78C211.624 275.78 212.408 275.961 213.112 276.324V275.268C213.112 274.628 212.931 274.148 212.568 273.828C212.206 273.497 211.678 273.332 210.984 273.332C210.59 273.332 210.19 273.391 209.784 273.508C209.39 273.615 208.952 273.791 208.472 274.036L208.024 273.124C208.6 272.847 209.134 272.644 209.624 272.516C210.115 272.388 210.606 272.324 211.096 272.324C212.11 272.324 212.888 272.564 213.432 273.044C213.987 273.524 214.264 274.212 214.264 275.108V280.5H213.112V279.716C212.75 280.025 212.35 280.26 211.912 280.42C211.486 280.569 211.022 280.644 210.52 280.644ZM208.696 278.196C208.696 278.644 208.883 279.012 209.256 279.3C209.64 279.577 210.131 279.716 210.728 279.716C211.208 279.716 211.646 279.641 212.04 279.492C212.435 279.343 212.792 279.108 213.112 278.788V277.284C212.782 277.06 212.43 276.9 212.056 276.804C211.683 276.697 211.262 276.644 210.792 276.644C210.152 276.644 209.64 276.788 209.256 277.076C208.883 277.353 208.696 277.727 208.696 278.196ZM216.242 280.5V272.484H217.426V280.5H216.242ZM216.834 270.948C216.621 270.948 216.434 270.868 216.274 270.708C216.114 270.548 216.034 270.361 216.034 270.148C216.034 269.924 216.114 269.737 216.274 269.588C216.434 269.428 216.621 269.348 216.834 269.348C217.058 269.348 217.245 269.428 217.394 269.588C217.554 269.737 217.634 269.924 217.634 270.148C217.634 270.361 217.554 270.548 217.394 270.708C217.245 270.868 217.058 270.948 216.834 270.948ZM219.446 280.5V269.3L220.63 269.028V280.5H219.446Z" fill="#84939E"/>
<rect x="454" y="250.5" width="134" height="48" rx="24" fill="url(#paint5_linear_48_299)"/>
<path d="M483.866 280.68C482.846 280.68 481.85 280.494 480.878 280.122C479.906 279.738 479.042 279.198 478.286 278.502L479.78 276.63C480.512 277.278 481.214 277.746 481.886 278.034C482.57 278.322 483.29 278.466 484.046 278.466C484.574 278.466 485.03 278.406 485.414 278.286C485.798 278.154 486.092 277.968 486.296 277.728C486.512 277.488 486.62 277.206 486.62 276.882C486.62 276.45 486.464 276.12 486.152 275.892C485.84 275.652 485.306 275.466 484.55 275.334L482.048 274.902C480.98 274.722 480.164 274.344 479.6 273.768C479.048 273.192 478.772 272.448 478.772 271.536C478.772 270.756 478.97 270.078 479.366 269.502C479.774 268.926 480.344 268.488 481.076 268.188C481.82 267.876 482.702 267.72 483.722 267.72C484.646 267.72 485.564 267.876 486.476 268.188C487.4 268.5 488.216 268.932 488.924 269.484L487.52 271.428C486.2 270.42 484.874 269.916 483.542 269.916C483.074 269.916 482.666 269.976 482.318 270.096C481.97 270.216 481.7 270.384 481.508 270.6C481.328 270.804 481.238 271.05 481.238 271.338C481.238 271.722 481.376 272.022 481.652 272.238C481.928 272.442 482.39 272.598 483.038 272.706L485.414 273.102C486.674 273.306 487.616 273.708 488.24 274.308C488.864 274.896 489.176 275.676 489.176 276.648C489.176 277.464 488.96 278.178 488.528 278.79C488.096 279.39 487.478 279.858 486.674 280.194C485.882 280.518 484.946 280.68 483.866 280.68ZM494.196 280.68C493.476 280.68 492.834 280.524 492.27 280.212C491.718 279.888 491.28 279.444 490.956 278.88C490.644 278.316 490.488 277.668 490.488 276.936V271.122H492.954V276.576C492.954 277.176 493.128 277.656 493.476 278.016C493.836 278.376 494.316 278.556 494.916 278.556C495.324 278.556 495.69 278.478 496.014 278.322C496.35 278.154 496.626 277.92 496.842 277.62V271.122H499.308V280.5H496.842V279.744C496.122 280.368 495.24 280.68 494.196 280.68ZM501.23 280.5V267.9L503.696 267.486V271.878C504.44 271.29 505.316 270.996 506.324 270.996C507.212 270.996 508.016 271.212 508.736 271.644C509.456 272.076 510.026 272.658 510.446 273.39C510.878 274.11 511.094 274.92 511.094 275.82C511.094 276.72 510.878 277.536 510.446 278.268C510.014 278.988 509.432 279.564 508.7 279.996C507.968 280.416 507.152 280.626 506.252 280.626C505.784 280.626 505.328 280.56 504.884 280.428C504.44 280.296 504.032 280.104 503.66 279.852V280.5H501.23ZM505.928 278.538C506.444 278.538 506.906 278.418 507.314 278.178C507.734 277.938 508.064 277.614 508.304 277.206C508.544 276.798 508.664 276.336 508.664 275.82C508.664 275.304 508.544 274.842 508.304 274.434C508.064 274.014 507.734 273.69 507.314 273.462C506.906 273.222 506.444 273.102 505.928 273.102C505.472 273.102 505.052 273.18 504.668 273.336C504.296 273.48 503.972 273.702 503.696 274.002V277.656C503.96 277.932 504.284 278.148 504.668 278.304C505.064 278.46 505.484 278.538 505.928 278.538ZM516.095 280.68C515.231 280.68 514.433 280.572 513.701 280.356C512.969 280.128 512.333 279.804 511.793 279.384L513.017 277.746C513.557 278.106 514.073 278.376 514.565 278.556C515.069 278.736 515.567 278.826 516.059 278.826C516.611 278.826 517.049 278.736 517.373 278.556C517.709 278.364 517.877 278.118 517.877 277.818C517.877 277.578 517.781 277.386 517.589 277.242C517.409 277.098 517.115 276.996 516.707 276.936L514.907 276.666C513.971 276.522 513.263 276.222 512.783 275.766C512.303 275.298 512.063 274.686 512.063 273.93C512.063 273.318 512.219 272.796 512.531 272.364C512.855 271.92 513.305 271.578 513.881 271.338C514.469 271.086 515.165 270.96 515.969 270.96C516.653 270.96 517.319 271.056 517.967 271.248C518.627 271.44 519.245 271.734 519.821 272.13L518.633 273.732C518.117 273.408 517.625 273.174 517.157 273.03C516.689 272.886 516.215 272.814 515.735 272.814C515.291 272.814 514.931 272.898 514.655 273.066C514.391 273.234 514.259 273.456 514.259 273.732C514.259 273.984 514.355 274.182 514.547 274.326C514.739 274.47 515.069 274.572 515.537 274.632L517.319 274.902C518.255 275.034 518.969 275.334 519.461 275.802C519.953 276.258 520.199 276.852 520.199 277.584C520.199 278.184 520.019 278.718 519.659 279.186C519.299 279.642 518.813 280.008 518.201 280.284C517.589 280.548 516.887 280.68 516.095 280.68ZM525.997 280.68C525.073 280.68 524.239 280.47 523.495 280.05C522.751 279.618 522.163 279.036 521.731 278.304C521.299 277.56 521.083 276.732 521.083 275.82C521.083 274.896 521.299 274.068 521.731 273.336C522.163 272.604 522.751 272.022 523.495 271.59C524.239 271.158 525.073 270.942 525.997 270.942C526.741 270.942 527.449 271.086 528.121 271.374C528.805 271.662 529.393 272.076 529.885 272.616L528.373 274.218C528.025 273.834 527.659 273.552 527.275 273.372C526.903 273.18 526.495 273.084 526.051 273.084C525.571 273.084 525.139 273.204 524.755 273.444C524.383 273.684 524.083 274.008 523.855 274.416C523.639 274.824 523.531 275.292 523.531 275.82C523.531 276.324 523.639 276.786 523.855 277.206C524.083 277.614 524.395 277.938 524.791 278.178C525.187 278.406 525.625 278.52 526.105 278.52C526.525 278.52 526.915 278.436 527.275 278.268C527.647 278.088 528.001 277.824 528.337 277.476L529.813 279.024C529.333 279.54 528.757 279.948 528.085 280.248C527.413 280.536 526.717 280.68 525.997 280.68ZM531.095 280.5V271.122H533.561V272.166C533.861 271.758 534.221 271.446 534.641 271.23C535.061 271.014 535.535 270.906 536.063 270.906C536.519 270.918 536.861 270.99 537.089 271.122V273.282C536.909 273.198 536.711 273.138 536.495 273.102C536.279 273.054 536.057 273.03 535.829 273.03C535.349 273.03 534.911 273.15 534.515 273.39C534.119 273.63 533.801 273.972 533.561 274.416V280.5H531.095ZM538.443 280.5V271.122H540.909V280.5H538.443ZM539.667 270.006C539.283 270.006 538.953 269.868 538.677 269.592C538.401 269.316 538.263 268.986 538.263 268.602C538.263 268.206 538.401 267.876 538.677 267.612C538.953 267.336 539.283 267.198 539.667 267.198C540.063 267.198 540.393 267.336 540.657 267.612C540.933 267.876 541.071 268.206 541.071 268.602C541.071 268.986 540.933 269.316 540.657 269.592C540.393 269.868 540.063 270.006 539.667 270.006ZM542.837 280.5V267.9L545.303 267.486V271.878C546.047 271.29 546.923 270.996 547.931 270.996C548.819 270.996 549.623 271.212 550.343 271.644C551.063 272.076 551.633 272.658 552.053 273.39C552.485 274.11 552.701 274.92 552.701 275.82C552.701 276.72 552.485 277.536 552.053 278.268C551.621 278.988 551.039 279.564 550.307 279.996C549.575 280.416 548.759 280.626 547.859 280.626C547.391 280.626 546.935 280.56 546.491 280.428C546.047 280.296 545.639 280.104 545.267 279.852V280.5H542.837ZM547.535 278.538C548.051 278.538 548.513 278.418 548.921 278.178C549.341 277.938 549.671 277.614 549.911 277.206C550.151 276.798 550.271 276.336 550.271 275.82C550.271 275.304 550.151 274.842 549.911 274.434C549.671 274.014 549.341 273.69 548.921 273.462C548.513 273.222 548.051 273.102 547.535 273.102C547.079 273.102 546.659 273.18 546.275 273.336C545.903 273.48 545.579 273.702 545.303 274.002V277.656C545.567 277.932 545.891 278.148 546.275 278.304C546.671 278.46 547.091 278.538 547.535 278.538ZM558.783 280.68C557.847 280.68 556.995 280.464 556.227 280.032C555.471 279.6 554.871 279.018 554.427 278.286C553.983 277.554 553.761 276.732 553.761 275.82C553.761 274.908 553.971 274.086 554.391 273.354C554.823 272.622 555.405 272.04 556.137 271.608C556.869 271.176 557.685 270.96 558.585 270.96C559.485 270.96 560.283 271.182 560.979 271.626C561.675 272.07 562.221 272.67 562.617 273.426C563.025 274.182 563.229 275.04 563.229 276V276.648H556.281C556.389 277.02 556.563 277.356 556.803 277.656C557.055 277.956 557.361 278.19 557.721 278.358C558.093 278.526 558.489 278.61 558.909 278.61C559.329 278.61 559.713 278.544 560.061 278.412C560.421 278.28 560.727 278.094 560.979 277.854L562.599 279.33C562.023 279.798 561.429 280.14 560.817 280.356C560.217 280.572 559.539 280.68 558.783 280.68ZM556.245 274.884H560.799C560.715 274.512 560.559 274.188 560.331 273.912C560.115 273.624 559.851 273.402 559.539 273.246C559.239 273.078 558.903 272.994 558.531 272.994C558.147 272.994 557.799 273.072 557.487 273.228C557.175 273.384 556.911 273.606 556.695 273.894C556.491 274.17 556.341 274.5 556.245 274.884Z" fill="white"/>
<rect x="96.5" y="247" width="495" height="55" rx="27.5" stroke="#B8C4CB"/>
</g>
<defs>
<filter id="filter0_d_48_299" x="0" y="0.5" width="688" height="404" filterUnits="userSpaceOnUse" color-interpolation-filters="sRGB">
<feFlood flood-opacity="0" result="BackgroundImageFix"/>
<feColorMatrix in="SourceAlpha" type="matrix" values="0 0 0 0 0 0 0 0 0 0 0 0 0 0 0 0 0 0 127 0" result="hardAlpha"/>
<feOffset dy="6"/>
<feGaussianBlur stdDeviation="16"/>
<feComposite in2="hardAlpha" operator="out"/>
<feColorMatrix type="matrix" values="0 0 0 0 0.0666667 0 0 0 0 0.121569 0 0 0 0 0.168627 0 0 0 0.12 0"/>
<feBlend mode="normal" in2="BackgroundImageFix" result="effect1_dropShadow_48_299"/>
<feBlend mode="normal" in="SourceGraphic" in2="effect1_dropShadow_48_299" result="shape"/>
</filter>
<linearGradient id="paint0_linear_48_299" x1="135.291" y1="156.329" x2="135.291" y2="158.073" gradientUnits="userSpaceOnUse">
<stop stop-color="#F3397D"/>
<stop offset="1" stop-color="#FF9153"/>
</linearGradient>
<linearGradient id="paint1_linear_48_299" x1="129.351" y1="152.579" x2="129.351" y2="154.323" gradientUnits="userSpaceOnUse">
<stop stop-color="#F3397D"/>
<stop offset="1" stop-color="#FF9153"/>
</linearGradient>
<linearGradient id="paint2_linear_48_299" x1="149.503" y1="105.011" x2="149.503" y2="107.318" gradientUnits="userSpaceOnUse">
<stop stop-color="#F3397D"/>
<stop offset="1" stop-color="#FF9153"/>
</linearGradient>
<linearGradient id="paint3_linear_48_299" x1="145.423" y1="100.107" x2="145.423" y2="102.415" gradientUnits="userSpaceOnUse">
<stop stop-color="#F3397D"/>
<stop offset="1" stop-color="#FF9153"/>
</linearGradient>
<linearGradient id="paint4_linear_48_299" x1="199.766" y1="109.608" x2="199.766" y2="131.55" gradientUnits="userSpaceOnUse">
<stop stop-color="#F3397D"/>
<stop offset="1" stop-color="#FF9153"/>
</linearGradient>
<linearGradient id="paint5_linear_48_299" x1="521" y1="250.5" x2="521" y2="298.5" gradientUnits="userSpaceOnUse">
<stop stop-color="#F3397D"/>
<stop offset="1" stop-color="#FF9153"/>
</linearGradient>
</defs>
</svg>
