<svg width="46" height="32" viewBox="0 0 46 32" fill="none" xmlns="http://www.w3.org/2000/svg">
<path fill-rule="evenodd" clip-rule="evenodd" d="M8.62534 0.181912C5.72796 0.795578 3.32032 2.41008 1.74411 4.79629C-0.33221 7.9397 -0.5719 11.9523 1.11754 15.2878C1.85618 16.746 3.16641 18.2537 4.50965 19.191C5.33014 19.7635 6.87584 20.4889 7.76177 20.7171C8.40494 20.8828 8.47873 20.9251 8.45608 21.115C8.41002 21.5022 7.18634 23.7883 6.38101 24.9918C5.94491 25.6436 5.2244 26.6196 4.77985 27.1609C3.62161 28.5712 3.46271 28.8034 3.33653 29.2688C2.97412 30.606 4.08324 32 5.50967 32C6.44549 32 9.03928 31.0146 11.0242 29.9051C16.4571 26.868 20.002 21.8384 21.093 15.6192C21.5291 13.1337 21.6336 10.4543 21.3517 8.98703C20.4995 4.55001 17.1338 1.04299 12.8952 0.17519C11.7415 -0.0610539 9.75777 -0.0579293 8.62534 0.181912ZM33.525 0.0976412C29.1146 0.82957 25.674 4.10659 24.7342 8.47032C24.4984 9.56585 24.4814 11.4687 24.6978 12.575C25.4531 16.4381 28.3686 19.5919 32.1966 20.6865C32.6569 20.8181 33.0424 20.9356 33.0531 20.9474C33.0639 20.9593 32.8893 21.3738 32.6653 21.8685C31.8732 23.6177 30.6645 25.5052 29.1886 27.298C27.9095 28.8519 27.877 28.9068 27.8331 29.5867C27.7852 30.3284 27.9319 30.7801 28.3792 31.2697C28.8327 31.7661 29.3555 31.9953 30.0404 31.9979C30.7749 32.0008 32.4291 31.4306 34.2926 30.5322C40.9577 27.3193 44.9047 21.6859 45.8695 14.0095C46.0632 12.4682 46.0369 9.68951 45.8193 8.70704C44.8375 4.2738 41.4836 0.941775 37.1952 0.13902C36.3719 -0.0151304 34.3421 -0.0379503 33.525 0.0976412Z" fill="#B8C4CB"/>
</svg>
