<svg width="220" height="148" viewBox="0 0 220 148" fill="none" xmlns="http://www.w3.org/2000/svg">
<g clip-path="url(#clip0_35_70)">
<path d="M167.211 66.8767V67.3767H167.711H168.5L168.5 91.5694H167.71H167.21V92.0694V225.651C167.21 230.952 165.109 236.035 161.369 239.783C157.63 243.531 152.558 245.636 147.269 245.636H72.4416C67.1531 245.636 62.081 243.531 58.3411 239.783C54.6012 236.035 52.5 230.952 52.5 225.651V31.4847C52.5 28.8601 53.0159 26.2613 54.0181 23.8366C55.0204 21.4118 56.4893 19.2087 58.3411 17.353C60.193 15.4973 62.3913 14.0253 64.8107 13.0211C67.23 12.0169 69.823 11.5 72.4416 11.5H147.269C152.558 11.5 157.63 13.6053 161.37 17.353C165.11 21.1008 167.211 26.1841 167.211 31.4847V66.8767Z" stroke="#111F2B"/>
<path d="M139.013 17.1797H148.066C151.979 17.1797 155.732 18.7337 158.499 21.4998C161.266 24.2658 162.82 28.0174 162.82 31.9292V225.207C162.82 229.118 161.266 232.87 158.499 235.636C155.732 238.402 151.979 239.956 148.066 239.956H72.9339C69.0208 239.956 65.268 238.402 62.501 235.636C59.7341 232.87 58.1796 229.118 58.1796 225.207V31.9295C58.1796 28.0177 59.7341 24.266 62.501 21.4999C65.268 18.7337 69.0208 17.1797 72.9339 17.1797H81.3431C81.0482 18.1572 80.9488 19.1859 81.0536 20.2063C81.1832 21.4698 81.6217 22.682 82.3304 23.7362C83.039 24.7903 83.9961 25.6541 85.1174 26.2513C86.2386 26.8485 87.4895 27.1609 88.7599 27.161H131.596C132.866 27.161 134.117 26.8487 135.239 26.2515C136.36 25.6544 137.317 24.7906 138.026 23.7365C138.735 22.6823 139.173 21.47 139.303 20.2065C139.408 19.186 139.308 18.1573 139.013 17.1797Z" stroke="#111F2B"/>
<path d="M197.29 74.9316L132.624 74.957C132.543 74.957 132.465 74.9247 132.407 74.8673C132.35 74.8099 132.318 74.732 132.318 74.6507C132.318 74.5695 132.35 74.4916 132.407 74.4342C132.465 74.3767 132.543 74.3445 132.624 74.3445L197.29 74.3191C197.371 74.3191 197.449 74.3514 197.506 74.4088C197.564 74.4662 197.596 74.5441 197.596 74.6254C197.596 74.7066 197.564 74.7845 197.506 74.8419C197.449 74.8994 197.371 74.9316 197.29 74.9316Z" fill="#CCCCCC"/>
<path d="M197.969 79.2188C200.337 79.2188 202.256 77.2991 202.256 74.9311C202.256 72.563 200.337 70.6433 197.969 70.6433C195.601 70.6433 193.681 72.563 193.681 74.9311C193.681 77.2991 195.601 79.2188 197.969 79.2188Z" fill="url(#paint0_linear_35_70)"/>
<path d="M133.609 74.9574C130.883 74.9574 128.219 74.1491 125.952 72.6347C123.686 71.1203 121.919 68.9678 120.876 66.4495C119.833 63.9312 119.56 61.1601 120.092 58.4866C120.624 55.8132 121.936 53.3574 123.864 51.43C125.791 49.5025 128.247 48.1899 130.92 47.6581C133.594 47.1264 136.365 47.3993 138.883 48.4424C141.402 49.4855 143.554 51.252 145.069 53.5185C146.583 55.7849 147.391 58.4495 147.391 61.1754C147.387 64.8293 145.934 68.3324 143.35 70.9161C140.766 73.4999 137.263 74.9532 133.609 74.9574ZM133.609 48.0059C131.005 48.0059 128.458 48.7782 126.293 50.2253C124.127 51.6724 122.439 53.7292 121.442 56.1356C120.445 58.542 120.185 61.19 120.693 63.7446C121.201 66.2992 122.455 68.6458 124.297 70.4876C126.139 72.3294 128.485 73.5837 131.04 74.0918C133.595 74.6 136.243 74.3391 138.649 73.3424C141.055 72.3456 143.112 70.6576 144.559 68.4919C146.006 66.3262 146.779 63.78 146.779 61.1754C146.775 57.6838 145.386 54.3364 142.917 51.8675C140.448 49.3986 137.101 48.0098 133.609 48.0059Z" fill="#CCCCCC"/>
<path d="M136.897 57.0411C136.432 56.51 136.175 55.8279 136.175 55.1218H134.072V63.5612C134.056 64.0179 133.863 64.4505 133.534 64.7678C133.206 65.0852 132.767 65.2626 132.31 65.2627C131.343 65.2627 130.54 64.4732 130.54 63.4931C130.54 62.3225 131.67 61.4445 132.834 61.8053V59.6546C130.486 59.3415 128.43 61.1655 128.43 63.4931C128.43 65.7595 130.309 67.3725 132.303 67.3725C134.44 67.3725 136.175 65.637 136.175 63.4931V59.2122C137.028 59.8246 138.052 60.1532 139.102 60.1514V58.0484C139.102 58.0484 137.822 58.1096 136.897 57.0411Z" fill="url(#paint1_linear_35_70)"/>
<path d="M30.6025 108.672L95.2682 108.697C95.3494 108.697 95.4274 108.665 95.4848 108.608C95.5422 108.55 95.5745 108.472 95.5745 108.391C95.5745 108.31 95.5422 108.232 95.4848 108.174C95.4274 108.117 95.3494 108.085 95.2682 108.085L30.6025 108.059C30.5213 108.059 30.4434 108.092 30.386 108.149C30.3285 108.206 30.2963 108.284 30.2963 108.366C30.2963 108.447 30.3285 108.525 30.386 108.582C30.4434 108.64 30.5213 108.672 30.6025 108.672Z" fill="#CCCCCC"/>
<path d="M29.9236 112.96C32.2917 112.96 34.2114 111.04 34.2114 108.672C34.2114 106.304 32.2917 104.384 29.9236 104.384C27.5556 104.384 25.6359 106.304 25.6359 108.672C25.6359 111.04 27.5556 112.96 29.9236 112.96Z" fill="url(#paint2_linear_35_70)"/>
<path d="M95.4214 108.697C92.6956 108.697 90.031 107.889 87.7645 106.375C85.4981 104.86 83.7316 102.708 82.6885 100.189C81.6454 97.6712 81.3724 94.9 81.9042 92.2266C82.436 89.5531 83.7486 87.0974 85.6761 85.17C87.6035 83.2425 90.0592 81.9299 92.7327 81.3981C95.4062 80.8663 98.1773 81.1393 100.696 82.1824C103.214 83.2255 105.366 84.992 106.881 87.2585C108.395 89.5249 109.203 92.1895 109.203 94.9153C109.199 98.5693 107.746 102.072 105.162 104.656C102.578 107.24 99.0754 108.693 95.4214 108.697ZM95.4214 81.7458C92.8168 81.7458 90.2706 82.5182 88.1049 83.9653C85.9391 85.4124 84.2512 87.4692 83.2544 89.8756C82.2576 92.282 81.9968 94.93 82.505 97.4846C83.0131 100.039 84.2674 102.386 86.1092 104.228C87.951 106.069 90.2976 107.324 92.8522 107.832C95.4068 108.34 98.0548 108.079 100.461 107.082C102.868 106.086 104.924 104.398 106.371 102.232C107.819 100.066 108.591 97.52 108.591 94.9153C108.587 91.4238 107.198 88.0764 104.729 85.6075C102.26 83.1385 98.913 81.7498 95.4214 81.7458Z" fill="#CCCCCC"/>
<path d="M89.9755 92.2369C90.4851 91.2221 91.2669 90.369 92.2335 89.7729C93.2002 89.1769 94.3135 88.8615 95.4491 88.8618C97.0999 88.8618 98.4866 89.4682 99.5469 90.4575L97.7908 92.2142C97.1556 91.6072 96.3483 91.2979 95.4491 91.2979C93.8534 91.2979 92.5028 92.3759 92.0219 93.8233C91.8994 94.1909 91.8296 94.5829 91.8296 94.9872C91.8296 95.3914 91.8994 95.7835 92.0219 96.151C92.5034 97.599 93.8534 98.6765 95.4491 98.6765C96.2729 98.6765 96.9743 98.459 97.5231 98.0915C97.8413 97.882 98.1137 97.6102 98.3238 97.2924C98.534 96.9747 98.6775 96.6176 98.7457 96.2429H95.4491V93.8736H101.218C101.29 94.2742 101.329 94.6919 101.329 95.1262C101.329 96.992 100.662 98.5625 99.5028 99.6283C98.4897 100.564 97.1029 101.113 95.4491 101.113C94.6446 101.113 93.8479 100.955 93.1046 100.647C92.3613 100.339 91.6859 99.888 91.1171 99.3192C90.5482 98.7503 90.0971 98.0749 89.7893 97.3316C89.4816 96.5883 89.3234 95.7916 89.3237 94.9872C89.3237 93.9985 89.5602 93.0638 89.9755 92.2369Z" fill="url(#paint3_linear_35_70)"/>
<path d="M198.307 136.019L134.254 136.044C134.173 136.044 134.095 136.012 134.038 135.955C133.98 135.897 133.948 135.819 133.948 135.738C133.948 135.657 133.98 135.579 134.038 135.522C134.095 135.464 134.173 135.432 134.254 135.432L198.307 135.406C198.389 135.406 198.467 135.439 198.524 135.496C198.581 135.554 198.614 135.632 198.614 135.713C198.614 135.794 198.581 135.872 198.524 135.929C198.467 135.987 198.389 136.019 198.307 136.019Z" fill="#CCCCCC"/>
<path d="M197.455 140C199.823 140 201.743 138.08 201.743 135.712C201.743 133.344 199.823 131.424 197.455 131.424C195.087 131.424 193.167 133.344 193.167 135.712C193.167 138.08 195.087 140 197.455 140Z" fill="url(#paint4_linear_35_70)"/>
<path d="M135.852 136.044C133.126 136.044 130.461 135.236 128.195 133.722C125.929 132.207 124.162 130.055 123.119 127.536C122.076 125.018 121.803 122.247 122.335 119.574C122.866 116.9 124.179 114.444 126.107 112.517C128.034 110.589 130.49 109.277 133.163 108.745C135.837 108.213 138.608 108.486 141.126 109.529C143.644 110.572 145.797 112.339 147.311 114.605C148.826 116.872 149.634 119.536 149.634 122.262C149.63 125.916 148.176 129.419 145.593 132.003C143.009 134.587 139.506 136.04 135.852 136.044ZM135.852 109.093C133.247 109.093 130.701 109.865 128.535 111.312C126.37 112.759 124.682 114.816 123.685 117.223C122.688 119.629 122.427 122.277 122.935 124.832C123.444 127.386 124.698 129.733 126.54 131.574C128.381 133.416 130.728 134.671 133.283 135.179C135.837 135.687 138.485 135.426 140.892 134.429C143.298 133.433 145.355 131.745 146.802 129.579C148.249 127.413 149.021 124.867 149.021 122.262C149.017 118.771 147.629 115.423 145.16 112.954C142.691 110.485 139.343 109.097 135.852 109.093Z" fill="#CCCCCC"/>
<path d="M137.043 123.437H138.881L139.616 120.496H137.043V119.026C137.043 118.269 137.043 117.556 138.513 117.556H139.616V115.087C139.376 115.055 138.472 114.984 137.516 114.984C135.52 114.984 134.103 116.202 134.103 118.438V120.496H131.898V123.437H134.103V129.684H137.043V123.437Z" fill="url(#paint5_linear_35_70)"/>
<path d="M21.9666 60.5635L86.6323 60.5888C86.7135 60.5888 86.7914 60.5566 86.8489 60.4991C86.9063 60.4417 86.9386 60.3638 86.9386 60.2826C86.9386 60.2014 86.9063 60.1234 86.8489 60.066C86.7914 60.0086 86.7135 59.9763 86.6323 59.9763L21.9666 59.9509C21.8854 59.9509 21.8075 59.9832 21.75 60.0406C21.6926 60.0981 21.6603 60.176 21.6603 60.2572C21.6603 60.3384 21.6926 60.4163 21.75 60.4738C21.8075 60.5312 21.8854 60.5635 21.9666 60.5635Z" fill="#CCCCCC"/>
<path d="M21.2877 64.8514C23.6558 64.8514 25.5755 62.9317 25.5755 60.5636C25.5755 58.1956 23.6558 56.2759 21.2877 56.2759C18.9197 56.2759 17 58.1956 17 60.5636C17 62.9317 18.9197 64.8514 21.2877 64.8514Z" fill="url(#paint6_linear_35_70)"/>
<path d="M87.0918 60.5641C84.366 60.5641 81.7013 59.7558 79.4349 58.2414C77.1685 56.727 75.402 54.5745 74.3588 52.0562C73.3157 49.5379 73.0428 46.7668 73.5746 44.0933C74.1064 41.4198 75.419 38.9641 77.3464 37.0367C79.2739 35.1092 81.7296 33.7966 84.403 33.2648C87.0765 32.733 89.8476 33.006 92.3659 34.0491C94.8843 35.0922 97.0367 36.8587 98.5511 39.1252C100.066 41.3916 100.874 44.0562 100.874 46.782C100.87 50.436 99.4163 53.9391 96.8326 56.5228C94.2488 59.1066 90.7457 60.5599 87.0918 60.5641ZM87.0918 33.6125C84.4871 33.6125 81.9409 34.3849 79.7752 35.832C77.6095 37.2791 75.9215 39.3359 74.9248 41.7423C73.928 44.1487 73.6672 46.7966 74.1753 49.3513C74.6835 51.9059 75.9378 54.2525 77.7796 56.0943C79.6213 57.9361 81.9679 59.1903 84.5226 59.6985C87.0772 60.2066 89.7251 59.9458 92.1315 58.9491C94.5379 57.9523 96.5948 56.2643 98.0418 54.0986C99.4889 51.9329 100.261 49.3867 100.261 46.782C100.257 43.2905 98.8686 39.9431 96.3997 37.4742C93.9308 35.0052 90.5833 33.6165 87.0918 33.6125Z" fill="#CCCCCC"/>
<path d="M87.1194 44.2698C86.6034 44.2698 86.099 44.4228 85.67 44.7095C85.2409 44.9962 84.9065 45.4036 84.7091 45.8804C84.5116 46.3571 84.4599 46.8817 84.5606 47.3877C84.6613 47.8938 84.9098 48.3587 85.2746 48.7236C85.6395 49.0884 86.1044 49.3369 86.6104 49.4376C87.1165 49.5382 87.6411 49.4866 88.1178 49.2891C88.5945 49.0917 89.002 48.7573 89.2887 48.3282C89.5754 47.8992 89.7284 47.3948 89.7284 46.8788C89.7284 46.1868 89.4535 45.5232 88.9642 45.034C88.475 44.5447 87.8114 44.2698 87.1194 44.2698ZM87.1194 48.1265C86.8726 48.1265 86.6314 48.0533 86.4262 47.9162C86.221 47.7791 86.0611 47.5843 85.9667 47.3563C85.8722 47.1283 85.8475 46.8774 85.8956 46.6353C85.9438 46.3933 86.0626 46.171 86.2371 45.9965C86.4116 45.822 86.634 45.7031 86.876 45.655C87.118 45.6068 87.3689 45.6315 87.5969 45.726C87.8249 45.8204 88.0198 45.9804 88.1569 46.1855C88.294 46.3907 88.3672 46.632 88.3672 46.8788C88.3657 47.2092 88.2338 47.5257 88.0001 47.7594C87.7664 47.9931 87.4499 48.125 87.1194 48.1265ZM89.8418 40.7534H84.3971C83.4945 40.7534 82.629 41.1119 81.9908 41.7501C81.3526 42.3883 80.9941 43.2539 80.9941 44.1564V49.6011C80.9941 50.5037 81.3526 51.3692 81.9908 52.0074C82.629 52.6456 83.4945 53.0041 84.3971 53.0041H89.8418C90.7443 53.0041 91.6099 52.6456 92.2481 52.0074C92.8862 51.3692 93.2448 50.5037 93.2448 49.6011V44.1564C93.2448 43.2539 92.8862 42.3883 92.2481 41.7501C91.6099 41.1119 90.7443 40.7534 89.8418 40.7534ZM91.8836 49.6011C91.8836 50.1427 91.6685 50.662 91.2856 51.0449C90.9027 51.4278 90.3833 51.6429 89.8418 51.6429H84.3971C83.8555 51.6429 83.3362 51.4278 82.9533 51.0449C82.5704 50.662 82.3553 50.1427 82.3553 49.6011V44.1564C82.3553 43.6149 82.5704 43.0955 82.9533 42.7126C83.3362 42.3297 83.8555 42.1146 84.3971 42.1146H89.8418C90.3833 42.1146 90.9027 42.3297 91.2856 42.7126C91.6685 43.0955 91.8836 43.6149 91.8836 44.1564V49.6011ZM90.9761 43.9295C90.9761 44.109 90.9229 44.2845 90.8232 44.4337C90.7235 44.5829 90.5818 44.6992 90.4159 44.7679C90.2501 44.8366 90.0677 44.8546 89.8916 44.8195C89.7156 44.7845 89.5539 44.6981 89.427 44.5712C89.3001 44.4443 89.2137 44.2826 89.1786 44.1066C89.1436 43.9305 89.1616 43.7481 89.2303 43.5823C89.299 43.4164 89.4153 43.2747 89.5645 43.175C89.7137 43.0753 89.8892 43.0221 90.0687 43.0221C90.3093 43.0221 90.5402 43.1177 90.7103 43.2879C90.8805 43.458 90.9761 43.6889 90.9761 43.9295Z" fill="url(#paint7_linear_35_70)"/>
</g>
<defs>
<linearGradient id="paint0_linear_35_70" x1="197.969" y1="70.6433" x2="197.969" y2="79.2188" gradientUnits="userSpaceOnUse">
<stop stop-color="#F3397D"/>
<stop offset="1" stop-color="#FF9153"/>
</linearGradient>
<linearGradient id="paint1_linear_35_70" x1="133.766" y1="55.1218" x2="133.766" y2="67.3725" gradientUnits="userSpaceOnUse">
<stop stop-color="#F3397D"/>
<stop offset="1" stop-color="#FF9153"/>
</linearGradient>
<linearGradient id="paint2_linear_35_70" x1="29.9236" y1="104.384" x2="29.9236" y2="112.96" gradientUnits="userSpaceOnUse">
<stop stop-color="#F3397D"/>
<stop offset="1" stop-color="#FF9153"/>
</linearGradient>
<linearGradient id="paint3_linear_35_70" x1="95.3266" y1="88.8618" x2="95.3266" y2="101.113" gradientUnits="userSpaceOnUse">
<stop stop-color="#F3397D"/>
<stop offset="1" stop-color="#FF9153"/>
</linearGradient>
<linearGradient id="paint4_linear_35_70" x1="197.455" y1="131.424" x2="197.455" y2="140" gradientUnits="userSpaceOnUse">
<stop stop-color="#F3397D"/>
<stop offset="1" stop-color="#FF9153"/>
</linearGradient>
<linearGradient id="paint5_linear_35_70" x1="135.757" y1="114.984" x2="135.757" y2="129.684" gradientUnits="userSpaceOnUse">
<stop stop-color="#F3397D"/>
<stop offset="1" stop-color="#FF9153"/>
</linearGradient>
<linearGradient id="paint6_linear_35_70" x1="21.2877" y1="56.2759" x2="21.2877" y2="64.8514" gradientUnits="userSpaceOnUse">
<stop stop-color="#F3397D"/>
<stop offset="1" stop-color="#FF9153"/>
</linearGradient>
<linearGradient id="paint7_linear_35_70" x1="87.1194" y1="40.7534" x2="87.1194" y2="53.0041" gradientUnits="userSpaceOnUse">
<stop stop-color="#F3397D"/>
<stop offset="1" stop-color="#FF9153"/>
</linearGradient>
<clipPath id="clip0_35_70">
<rect width="220" height="148" fill="white"/>
</clipPath>
</defs>
</svg>
