<svg width="586" height="408" viewBox="0 0 586 408" fill="none" xmlns="http://www.w3.org/2000/svg">
<path fill-rule="evenodd" clip-rule="evenodd" d="M406.964 0L0 323.504L12.2392 351.213L419.204 27.7083L406.964 0ZM495.417 27.1228L88.4526 350.627L100.692 378.336L507.656 54.8311L495.417 27.1228ZM166.796 380.292L573.761 56.7873L586 84.4956L179.036 408L166.796 380.292Z" fill="#F2F2F2"/>
<path d="M293.622 375.198C387.524 375.198 463.648 298.67 463.648 204.269C463.648 109.868 387.524 33.3408 293.622 33.3408C199.719 33.3408 123.596 109.868 123.596 204.269C123.596 298.67 199.719 375.198 293.622 375.198Z" fill="white"/>
<path d="M122.331 204.269C122.331 109.318 199.171 32.0693 293.621 32.0693C388.071 32.0693 464.912 109.318 464.912 204.269C464.912 299.22 388.071 376.469 293.621 376.469C199.171 376.469 122.331 299.22 122.331 204.269ZM124.86 204.269C124.86 297.818 200.566 373.926 293.621 373.926C386.677 373.926 462.383 297.818 462.383 204.269C462.383 110.72 386.677 34.612 293.621 34.612C200.566 34.612 124.86 110.72 124.86 204.269Z" fill="#EAEAEA"/>
<path d="M263.313 205.012C263.312 198.986 265.09 193.094 268.42 188.084C271.751 183.073 276.484 179.168 282.023 176.861C287.561 174.555 293.655 173.952 299.534 175.127C305.414 176.303 310.814 179.205 315.053 183.466C319.292 187.728 322.179 193.157 323.348 199.067C324.518 204.978 323.917 211.105 321.623 216.672C319.329 222.24 315.444 226.999 310.46 230.347C305.476 233.695 299.616 235.482 293.621 235.482C285.583 235.482 277.874 232.271 272.19 226.557C266.506 220.843 263.313 213.093 263.313 205.012ZM293.621 176.028C285.978 176.037 278.65 179.093 273.245 184.527C267.84 189.961 264.8 197.328 264.791 205.012C264.791 210.744 266.482 216.348 269.65 221.114C272.818 225.881 277.32 229.596 282.588 231.789C287.857 233.983 293.653 234.557 299.246 233.439C304.839 232.32 309.976 229.56 314.008 225.506C318.04 221.453 320.786 216.289 321.898 210.666C323.01 205.044 322.439 199.216 320.257 193.92C318.075 188.624 314.38 184.098 309.639 180.913C304.898 177.728 299.324 176.028 293.621 176.028Z" fill="#506271"/>
<path d="M235.96 205.012C235.96 193.548 239.342 182.34 245.678 172.808C252.014 163.275 261.019 155.845 271.555 151.458C282.091 147.071 293.685 145.923 304.87 148.159C316.055 150.396 326.33 155.917 334.394 164.024C342.458 172.13 347.949 182.459 350.174 193.704C352.399 204.948 351.257 216.603 346.893 227.195C342.529 237.788 335.138 246.841 325.656 253.21C316.174 259.58 305.025 262.979 293.621 262.979C286.049 262.979 278.551 261.48 271.555 258.567C264.559 255.654 258.203 251.384 252.849 246.001C247.494 240.619 243.247 234.228 240.349 227.195C237.452 220.163 235.96 212.625 235.96 205.012ZM293.621 148.532C282.509 148.532 271.647 151.844 262.408 158.05C253.169 164.257 245.968 173.078 241.715 183.398C237.463 193.719 236.35 205.075 238.518 216.031C240.686 226.987 246.037 237.051 253.894 244.95C261.751 252.849 271.762 258.229 282.66 260.408C293.559 262.587 304.855 261.469 315.121 257.194C325.387 252.919 334.162 245.68 340.335 236.391C346.509 227.103 349.804 216.183 349.804 205.012C349.787 190.038 343.862 175.682 333.33 165.093C322.797 154.505 308.517 148.549 293.621 148.532Z" fill="#EAEAEA"/>
<path d="M181.257 205.012C181.257 182.671 187.847 160.831 200.194 142.254C212.54 123.678 230.089 109.199 250.621 100.649C271.153 92.0997 293.746 89.8627 315.543 94.2214C337.34 98.58 357.361 109.339 373.076 125.136C388.79 140.934 399.492 161.062 403.827 182.975C408.163 204.887 405.938 227.6 397.433 248.241C388.929 268.882 374.526 286.524 356.048 298.936C337.57 311.349 315.845 317.974 293.622 317.974C263.831 317.94 235.27 306.028 214.205 284.851C193.139 263.674 181.29 234.961 181.257 205.012ZM293.622 93.5372C271.69 93.5372 250.252 100.075 232.016 112.324C213.781 124.573 199.569 141.983 191.176 162.353C182.783 182.722 180.587 205.136 184.866 226.76C189.144 248.384 199.705 268.247 215.213 283.837C230.721 299.427 250.479 310.044 271.989 314.345C293.499 318.647 315.794 316.439 336.056 308.002C356.318 299.564 373.636 285.276 385.82 266.944C398.005 248.612 404.508 227.06 404.508 205.012C404.475 175.457 392.781 147.123 371.993 126.224C351.205 105.326 323.02 93.5706 293.622 93.5372Z" fill="#EAEAEA"/>
<path fill-rule="evenodd" clip-rule="evenodd" d="M293 205.023C293.524 206.187 294.13 207.296 295.211 208.034C296.936 209.213 299.437 209.161 301.124 207.907C302.414 206.947 303.222 205.486 303.355 203.673C303.401 203.099 303.376 202.487 303.28 201.844C302.88 199.207 300.133 194.291 296.07 192.342C300.345 193.296 303.782 196.536 305.091 200.742C305.094 200.754 305.098 200.767 305.101 200.779C305.105 200.792 305.109 200.804 305.112 200.816C305.985 203.899 305.439 207.133 303.687 209.645L303.687 209.645C303.293 210.211 302.837 210.74 302.323 211.223L302.323 211.223C302.306 211.239 302.29 211.254 302.274 211.269C302.188 211.348 302.1 211.426 302.011 211.503C301.996 211.516 301.98 211.529 301.965 211.542C301.95 211.555 301.934 211.568 301.919 211.581C301.835 211.651 301.75 211.722 301.663 211.79C301.634 211.813 301.604 211.836 301.575 211.858C301.566 211.865 301.557 211.872 301.548 211.879C301.464 211.943 301.379 212.007 301.292 212.07C301.269 212.087 301.245 212.103 301.221 212.119C301.201 212.132 301.182 212.145 301.163 212.159C301.01 212.265 300.853 212.367 300.693 212.466C300.674 212.478 300.655 212.49 300.635 212.502C300.597 212.526 300.558 212.551 300.518 212.574C300.46 212.609 300.4 212.642 300.34 212.675C300.331 212.68 300.322 212.685 300.313 212.69C300.235 212.734 300.159 212.777 300.079 212.819C300.012 212.855 299.943 212.889 299.874 212.923L299.874 212.923C299.79 212.965 299.706 213.007 299.62 213.047C299.553 213.078 299.485 213.108 299.417 213.139C299.324 213.18 299.23 213.219 299.136 213.258C299.072 213.284 299.007 213.31 298.942 213.336H298.943C298.835 213.378 298.726 213.417 298.617 213.456L298.597 213.463C298.548 213.481 298.5 213.499 298.45 213.515C298.283 213.572 298.114 213.625 297.941 213.674C294.889 214.546 292.031 213.88 289.799 212.583C289.519 212.421 289.251 212.249 288.992 212.069C288.862 211.979 288.736 211.886 288.612 211.793C288.364 211.605 288.128 211.409 287.902 211.21C287.677 211.01 287.464 210.804 287.264 210.594C287.063 210.384 286.875 210.171 286.701 209.956C286.614 209.849 286.531 209.741 286.451 209.632C285.971 208.983 285.616 208.325 285.41 207.706C284.955 206.267 285.031 204.799 285.647 203.65C285.708 203.535 285.775 203.423 285.848 203.315C286.21 202.774 286.707 202.322 287.341 202.001C287.349 201.999 287.356 201.995 287.364 201.991C287.372 201.987 287.379 201.983 287.387 201.98C287.841 201.761 288.38 201.661 288.929 201.673C289.112 201.677 289.296 201.693 289.478 201.721C289.843 201.776 290.2 201.879 290.528 202.026C290.856 202.173 291.154 202.364 291.401 202.595C291.583 202.767 291.748 202.948 291.9 203.138C291.977 203.233 292.049 203.33 292.119 203.428L292.119 203.429C292.469 203.921 292.746 204.461 293 205.022L293 205.023Z" fill="url(#paint0_linear_36_314)"/>
<path d="M286.922 196.033C286.99 195.997 287.059 195.965 287.127 195.93C287.059 195.964 286.99 195.997 286.922 196.033Z" fill="url(#paint1_linear_36_314)"/>
<path d="M288.385 195.396C288.441 195.377 288.495 195.357 288.551 195.337C288.495 195.356 288.441 195.376 288.385 195.396Z" fill="url(#paint2_linear_36_314)"/>
<path d="M287.865 195.593C287.929 195.567 287.994 195.541 288.059 195.516C287.994 195.541 287.93 195.567 287.865 195.593Z" fill="url(#paint3_linear_36_314)"/>
<path d="M286.482 196.277C286.55 196.237 286.62 196.2 286.687 196.162C286.619 196.199 286.549 196.237 286.482 196.277Z" fill="url(#paint4_linear_36_314)"/>
<path d="M284.728 197.584C284.814 197.504 284.902 197.427 284.99 197.35C284.902 197.427 284.814 197.505 284.728 197.584Z" fill="url(#paint5_linear_36_314)"/>
<path d="M285.838 196.693C285.991 196.587 286.146 196.485 286.307 196.386C286.146 196.484 285.991 196.587 285.838 196.693Z" fill="url(#paint6_linear_36_314)"/>
<path d="M285.082 197.271C285.166 197.2 285.251 197.131 285.338 197.062C285.251 197.131 285.166 197.201 285.082 197.271Z" fill="url(#paint7_linear_36_314)"/>
<path d="M301.688 204.371C301.668 204.441 301.646 204.509 301.622 204.577C301.646 204.509 301.667 204.44 301.688 204.371Z" fill="url(#paint8_linear_36_314)"/>
<path d="M299.636 206.861C299.643 206.857 299.652 206.853 299.66 206.849C300.04 206.657 300.371 206.417 300.653 206.139C300.371 206.417 300.039 206.657 299.66 206.849C299.652 206.852 299.643 206.857 299.636 206.861Z" fill="url(#paint9_linear_36_314)"/>
<path d="M295.6 206.257C295.68 206.332 295.768 206.402 295.859 206.469C295.768 206.402 295.681 206.332 295.6 206.257Z" fill="url(#paint10_linear_36_314)"/>
<g style="mix-blend-mode:multiply">
<path d="M295.6 206.257C295.68 206.332 295.768 206.402 295.859 206.469C295.768 206.402 295.681 206.332 295.6 206.257Z" fill="url(#paint11_linear_36_314)"/>
</g>
<path d="M283.314 199.207V199.205C283.708 198.64 284.164 198.11 284.679 197.627C284.695 197.612 284.711 197.596 284.728 197.581C284.814 197.502 284.902 197.424 284.991 197.347C285.006 197.334 285.021 197.321 285.037 197.308C285.052 197.295 285.067 197.283 285.082 197.269C285.167 197.199 285.252 197.129 285.339 197.061C285.367 197.037 285.397 197.015 285.427 196.992C285.436 196.985 285.445 196.979 285.453 196.972C285.538 196.908 285.623 196.843 285.71 196.781C285.733 196.764 285.757 196.748 285.781 196.732C285.8 196.718 285.82 196.705 285.839 196.692C285.992 196.586 286.149 196.483 286.308 196.385C286.328 196.373 286.347 196.361 286.366 196.348C286.405 196.324 286.444 196.3 286.483 196.277C286.541 196.242 286.602 196.208 286.662 196.175C286.671 196.17 286.68 196.165 286.689 196.16C286.766 196.117 286.843 196.074 286.922 196.032C286.99 195.996 287.059 195.961 287.128 195.927C287.212 195.885 287.296 195.843 287.382 195.803C287.449 195.772 287.517 195.742 287.585 195.712C287.678 195.671 287.771 195.632 287.866 195.593C287.93 195.566 287.995 195.54 288.06 195.515C288.167 195.473 288.276 195.434 288.386 195.395C288.393 195.392 288.399 195.39 288.406 195.388C288.454 195.37 288.503 195.352 288.552 195.335C288.72 195.279 288.889 195.225 289.061 195.176C291.923 194.358 294.614 194.893 296.779 196.032C297.211 196.26 297.623 196.512 298.011 196.782C298.14 196.871 298.266 196.964 298.391 197.058C298.638 197.246 298.875 197.441 299.1 197.641C299.326 197.841 299.539 198.047 299.739 198.256C299.94 198.466 300.127 198.68 300.301 198.894C300.388 199.002 300.471 199.11 300.552 199.218C301.032 199.868 301.386 200.525 301.593 201.144C301.944 202.256 301.975 203.384 301.689 204.37C301.668 204.439 301.647 204.508 301.623 204.577C301.562 204.752 301.492 204.921 301.41 205.085C301.333 205.24 301.251 205.392 301.154 205.535C301.01 205.752 300.843 205.954 300.655 206.139C300.373 206.417 300.042 206.657 299.661 206.849C299.654 206.853 299.645 206.857 299.638 206.861C299.633 206.863 299.627 206.865 299.622 206.868C299.62 206.869 299.618 206.87 299.617 206.871C299.162 207.09 298.623 207.189 298.074 207.178C297.434 207.165 296.78 207.002 296.234 206.707C296.102 206.635 295.977 206.555 295.86 206.468C295.769 206.401 295.681 206.331 295.601 206.256C295.51 206.17 295.423 206.082 295.339 205.992C295.333 205.985 295.328 205.979 295.322 205.972C295.318 205.967 295.314 205.962 295.31 205.958C295.156 205.787 295.013 205.609 294.882 205.424C294.532 204.932 294.255 204.391 294.002 203.829C294.002 203.829 294.001 203.828 294.001 203.826C293.477 202.663 292.871 201.555 291.791 200.818C290.065 199.638 287.565 199.69 285.878 200.944C284.588 201.904 283.779 203.365 283.646 205.178C283.6 205.753 283.625 206.364 283.722 207.007L283.721 207.008C284.12 209.645 286.868 214.562 290.93 216.511C286.655 215.557 283.219 212.317 281.911 208.11C281.908 208.098 281.904 208.086 281.9 208.073C281.896 208.061 281.893 208.048 281.89 208.036C281.016 204.953 281.562 201.719 283.314 199.207Z" fill="url(#paint12_linear_36_314)"/>
<path d="M298.45 213.514C298.507 213.496 298.561 213.475 298.616 213.455C298.561 213.474 298.507 213.495 298.45 213.514Z" fill="url(#paint13_linear_36_314)"/>
<path d="M300.519 212.574C300.451 212.614 300.381 212.651 300.314 212.689C300.382 212.652 300.452 212.614 300.519 212.574Z" fill="url(#paint14_linear_36_314)"/>
<path d="M300.079 212.819C300.011 212.855 299.943 212.888 299.874 212.922C299.943 212.889 300.011 212.855 300.079 212.819Z" fill="url(#paint15_linear_36_314)"/>
<path d="M301.163 212.159C301.01 212.265 300.855 212.367 300.694 212.466C300.855 212.368 301.01 212.265 301.163 212.159Z" fill="url(#paint16_linear_36_314)"/>
<path d="M299.135 213.258C299.071 213.284 299.006 213.31 298.941 213.335C299.006 213.31 299.07 213.284 299.135 213.258Z" fill="url(#paint17_linear_36_314)"/>
<path d="M302.273 211.268C302.188 211.348 302.1 211.425 302.011 211.502C302.1 211.425 302.188 211.347 302.273 211.268Z" fill="url(#paint18_linear_36_314)"/>
<path d="M301.919 211.581C301.835 211.652 301.75 211.722 301.663 211.79C301.75 211.722 301.835 211.651 301.919 211.581Z" fill="url(#paint19_linear_36_314)"/>
<path d="M288.928 201.673C289.111 201.677 289.295 201.692 289.476 201.72C289.294 201.693 289.111 201.677 288.928 201.673Z" fill="url(#paint20_linear_36_314)"/>
<g style="mix-blend-mode:multiply">
<path d="M288.928 201.673C289.111 201.677 289.295 201.692 289.476 201.72C289.294 201.693 289.111 201.677 288.928 201.673Z" fill="url(#paint21_linear_36_314)"/>
</g>
<defs>
<linearGradient id="paint0_linear_36_314" x1="295.32" y1="192.342" x2="295.32" y2="214.069" gradientUnits="userSpaceOnUse">
<stop stop-color="#F3397D"/>
<stop offset="1" stop-color="#FF9153"/>
</linearGradient>
<linearGradient id="paint1_linear_36_314" x1="287.025" y1="195.93" x2="287.025" y2="196.033" gradientUnits="userSpaceOnUse">
<stop stop-color="#F3397D"/>
<stop offset="1" stop-color="#FF9153"/>
</linearGradient>
<linearGradient id="paint2_linear_36_314" x1="288.468" y1="195.337" x2="288.468" y2="195.396" gradientUnits="userSpaceOnUse">
<stop stop-color="#F3397D"/>
<stop offset="1" stop-color="#FF9153"/>
</linearGradient>
<linearGradient id="paint3_linear_36_314" x1="287.962" y1="195.516" x2="287.962" y2="195.593" gradientUnits="userSpaceOnUse">
<stop stop-color="#F3397D"/>
<stop offset="1" stop-color="#FF9153"/>
</linearGradient>
<linearGradient id="paint4_linear_36_314" x1="286.585" y1="196.162" x2="286.585" y2="196.277" gradientUnits="userSpaceOnUse">
<stop stop-color="#F3397D"/>
<stop offset="1" stop-color="#FF9153"/>
</linearGradient>
<linearGradient id="paint5_linear_36_314" x1="284.859" y1="197.35" x2="284.859" y2="197.584" gradientUnits="userSpaceOnUse">
<stop stop-color="#F3397D"/>
<stop offset="1" stop-color="#FF9153"/>
</linearGradient>
<linearGradient id="paint6_linear_36_314" x1="286.072" y1="196.386" x2="286.072" y2="196.693" gradientUnits="userSpaceOnUse">
<stop stop-color="#F3397D"/>
<stop offset="1" stop-color="#FF9153"/>
</linearGradient>
<linearGradient id="paint7_linear_36_314" x1="285.21" y1="197.062" x2="285.21" y2="197.271" gradientUnits="userSpaceOnUse">
<stop stop-color="#F3397D"/>
<stop offset="1" stop-color="#FF9153"/>
</linearGradient>
<linearGradient id="paint8_linear_36_314" x1="301.655" y1="204.371" x2="301.655" y2="204.577" gradientUnits="userSpaceOnUse">
<stop stop-color="#F3397D"/>
<stop offset="1" stop-color="#FF9153"/>
</linearGradient>
<linearGradient id="paint9_linear_36_314" x1="300.144" y1="206.139" x2="300.144" y2="206.861" gradientUnits="userSpaceOnUse">
<stop stop-color="#F3397D"/>
<stop offset="1" stop-color="#FF9153"/>
</linearGradient>
<linearGradient id="paint10_linear_36_314" x1="295.599" y1="205.993" x2="295.599" y2="206.469" gradientUnits="userSpaceOnUse">
<stop stop-color="#F3397D"/>
<stop offset="1" stop-color="#FF9153"/>
</linearGradient>
<linearGradient id="paint11_linear_36_314" x1="295.599" y1="205.993" x2="295.599" y2="206.469" gradientUnits="userSpaceOnUse">
<stop stop-color="#F3397D"/>
<stop offset="1" stop-color="#FF9153"/>
</linearGradient>
<linearGradient id="paint12_linear_36_314" x1="291.681" y1="194.781" x2="291.681" y2="216.511" gradientUnits="userSpaceOnUse">
<stop stop-color="#F3397D"/>
<stop offset="1" stop-color="#FF9153"/>
</linearGradient>
<linearGradient id="paint13_linear_36_314" x1="298.533" y1="213.455" x2="298.533" y2="213.514" gradientUnits="userSpaceOnUse">
<stop stop-color="#F3397D"/>
<stop offset="1" stop-color="#FF9153"/>
</linearGradient>
<linearGradient id="paint14_linear_36_314" x1="300.416" y1="212.574" x2="300.416" y2="212.689" gradientUnits="userSpaceOnUse">
<stop stop-color="#F3397D"/>
<stop offset="1" stop-color="#FF9153"/>
</linearGradient>
<linearGradient id="paint15_linear_36_314" x1="299.976" y1="212.819" x2="299.976" y2="212.922" gradientUnits="userSpaceOnUse">
<stop stop-color="#F3397D"/>
<stop offset="1" stop-color="#FF9153"/>
</linearGradient>
<linearGradient id="paint16_linear_36_314" x1="300.929" y1="212.159" x2="300.929" y2="212.466" gradientUnits="userSpaceOnUse">
<stop stop-color="#F3397D"/>
<stop offset="1" stop-color="#FF9153"/>
</linearGradient>
<linearGradient id="paint17_linear_36_314" x1="299.038" y1="213.258" x2="299.038" y2="213.335" gradientUnits="userSpaceOnUse">
<stop stop-color="#F3397D"/>
<stop offset="1" stop-color="#FF9153"/>
</linearGradient>
<linearGradient id="paint18_linear_36_314" x1="302.142" y1="211.268" x2="302.142" y2="211.502" gradientUnits="userSpaceOnUse">
<stop stop-color="#F3397D"/>
<stop offset="1" stop-color="#FF9153"/>
</linearGradient>
<linearGradient id="paint19_linear_36_314" x1="301.791" y1="211.581" x2="301.791" y2="211.79" gradientUnits="userSpaceOnUse">
<stop stop-color="#F3397D"/>
<stop offset="1" stop-color="#FF9153"/>
</linearGradient>
<linearGradient id="paint20_linear_36_314" x1="289.202" y1="201.673" x2="289.202" y2="201.72" gradientUnits="userSpaceOnUse">
<stop stop-color="#F3397D"/>
<stop offset="1" stop-color="#FF9153"/>
</linearGradient>
<linearGradient id="paint21_linear_36_314" x1="289.202" y1="201.673" x2="289.202" y2="201.72" gradientUnits="userSpaceOnUse">
<stop stop-color="#F3397D"/>
<stop offset="1" stop-color="#FF9153"/>
</linearGradient>
</defs>
</svg>
