<svg width="190" height="148" viewBox="0 0 190 148" fill="none" xmlns="http://www.w3.org/2000/svg">
<path d="M190 31.1162C190 30.919 189.976 30.7226 189.928 30.5312C189.885 30.3557 189.82 30.1866 189.733 30.0282C189.658 29.8894 189.56 29.7647 189.442 29.6597L190 31.1162ZM28.3525 0.535386L28.3568 0.536192L188.874 29.9452L188.984 29.9678C189.029 29.9773 189.072 29.9988 189.106 30.0301L189.109 30.0324C189.183 30.0989 189.245 30.1778 189.293 30.2656L189.294 30.2687C189.36 30.3888 189.41 30.517 189.443 30.6501L189.443 30.652C189.481 30.8037 189.5 30.9595 189.5 31.1159V31.1162V116.888C189.5 117.044 189.481 117.2 189.443 117.351L189.442 117.353C189.41 117.486 189.36 117.614 189.294 117.734L189.292 117.738C189.245 117.825 189.183 117.904 189.109 117.97L189.106 117.973C189.072 118.003 189.032 118.024 188.988 118.034C188.986 118.034 188.985 118.035 188.984 118.035L28.3552 147.464L28.3512 147.465C28.0904 147.515 27.8222 147.511 27.5628 147.455C27.3408 147.406 27.1324 147.309 26.9526 147.169C26.781 147.035 26.6429 146.863 26.5491 146.666C26.4459 146.446 26.3935 146.204 26.3958 145.96H26.3958V145.956V2.04266H26.3958L26.3958 2.03831C26.3937 1.79454 26.4462 1.55342 26.5496 1.33267C26.6435 1.1361 26.7817 0.963991 26.9534 0.829886C27.1335 0.690782 27.3422 0.593342 27.5645 0.544579C27.8238 0.488415 28.0919 0.485287 28.3525 0.535386Z" stroke="black"/>
<path d="M189.085 29.4754L28.4469 0.0443779C28.1198 -0.0184937 27.7835 -0.0145234 27.458 0.0560482C27.1628 0.120698 26.8857 0.250136 26.6467 0.435005C26.413 0.61725 26.225 0.851404 26.0976 1.11891C25.962 1.40783 25.893 1.72352 25.8958 2.04266V145.956C25.8928 146.275 25.9616 146.591 26.097 146.88C26.2242 147.147 26.412 147.382 26.6454 147.564C26.8843 147.749 27.1613 147.879 27.4565 147.944C27.7819 148.014 28.1183 148.019 28.4453 147.956L189.085 118.525C189.218 118.497 189.341 118.435 189.442 118.343C189.559 118.238 189.658 118.114 189.732 117.975C189.819 117.817 189.885 117.648 189.928 117.472C189.976 117.281 190 117.085 190 116.889V31.1162C190 30.919 189.976 30.7226 189.928 30.5312C189.885 30.3557 189.82 30.1866 189.733 30.0282C189.658 29.8894 189.56 29.7647 189.442 29.6597C189.341 29.5684 189.218 29.5057 189.085 29.4782L189.085 29.4754ZM189.696 116.941C189.696 117.072 189.68 117.203 189.648 117.331C189.619 117.448 189.575 117.561 189.517 117.667C189.467 117.759 189.402 117.842 189.323 117.913C189.256 117.973 189.174 118.015 189.085 118.033L28.4484 147.137C28.2305 147.179 28.0064 147.176 27.7897 147.128C27.5933 147.085 27.409 146.998 27.2501 146.875C27.0948 146.753 26.9699 146.597 26.8853 146.419C26.7954 146.227 26.7496 146.017 26.7514 145.805V2.1956C26.7495 1.98346 26.7952 1.7736 26.885 1.5814C26.9694 1.40308 27.0942 1.24685 27.2495 1.12506C27.4083 1.00163 27.5924 0.914985 27.7888 0.871393C28.0054 0.823776 28.2295 0.820536 28.4475 0.861871L189.085 29.9674C189.174 29.9855 189.256 30.0271 189.323 30.0878C189.402 30.1578 189.467 30.2409 189.517 30.3334C189.575 30.439 189.619 30.5518 189.648 30.6688C189.68 30.7965 189.696 30.9277 189.696 31.0594V116.94L189.696 116.941Z" fill="white"/>
<path d="M0.0907232 44.9187C0.0829955 43.9369 0.290661 42.9654 0.699085 42.0725C1.08079 41.2478 1.6449 40.5205 2.34881 39.9456C3.05738 39.3708 3.8846 38.9604 4.77089 38.7439C5.72976 38.5126 6.72618 38.4826 7.69723 38.6558C8.71572 38.8331 9.69303 39.1959 10.5806 39.726C11.4574 40.2477 12.2423 40.9103 12.9038 41.6871C13.5597 42.4529 14.0838 43.3224 14.4546 44.26C14.8242 45.1904 15.0161 46.1818 15.0203 47.183C15.0272 48.1297 14.8344 49.0673 14.4546 49.9346C14.0979 50.7405 13.5685 51.4582 12.9038 52.0369C12.23 52.6199 11.4372 53.0487 10.5806 53.2936C9.64345 53.5582 8.66153 53.6249 7.69723 53.4895C6.67004 53.348 5.67819 53.0164 4.77243 52.5117C3.86241 52.0068 3.04391 51.3522 2.35127 50.5755C1.6557 49.8003 1.09766 48.912 0.701231 47.9489C0.303734 46.9878 0.0964058 45.9587 0.0907232 44.9187Z" fill="white"/>
<path d="M0.0907232 74.7073C0.0829955 73.7255 0.290661 72.754 0.699085 71.8611C1.08079 71.0363 1.6449 70.309 2.34881 69.7342C3.05738 69.1594 3.8846 68.749 4.77089 68.5325C5.72976 68.3012 6.72618 68.2712 7.69723 68.4443C8.71572 68.6217 9.69303 68.9845 10.5806 69.5146C11.4574 70.0363 12.2423 70.6989 12.9038 71.4757C13.5597 72.2415 14.0838 73.111 14.4546 74.0486C14.8242 74.979 15.0161 75.9704 15.0203 76.9715C15.0272 77.9183 14.8344 78.8559 14.4546 79.7231C14.0979 80.5291 13.5685 81.2468 12.9038 81.8255C12.23 82.4084 11.4372 82.8373 10.5806 83.0822C9.64345 83.3467 8.66153 83.4135 7.69723 83.2781C6.67004 83.1366 5.67819 82.805 4.77243 82.3003C3.86241 81.7954 3.04391 81.1408 2.35127 80.364C1.6557 79.5889 1.09766 78.7005 0.701231 77.7374C0.303734 76.7764 0.0964058 75.7473 0.0907232 74.7073Z" fill="white"/>
<path d="M0.0907232 104.496C0.0829955 103.514 0.290661 102.543 0.699085 101.65C1.08079 100.825 1.6449 100.098 2.34881 99.5227C3.05738 98.948 3.8846 98.5376 4.77089 98.3211C5.72976 98.0898 6.72618 98.0597 7.69723 98.2329C8.71572 98.4103 9.69303 98.773 10.5806 99.3032C11.4574 99.8249 12.2423 100.487 12.9038 101.264C13.5597 102.03 14.0838 102.9 14.4546 103.837C14.8242 104.768 15.0161 105.759 15.0203 106.76C15.0272 107.707 14.8344 108.644 14.4546 109.512C14.0979 110.318 13.5685 111.035 12.9038 111.614C12.23 112.197 11.4372 112.626 10.5806 112.871C9.64345 113.135 8.66153 113.202 7.69723 113.067C6.67004 112.925 5.67819 112.594 4.77243 112.089C3.86241 111.584 3.04391 110.929 2.35127 110.153C1.6557 109.377 1.09766 108.489 0.701231 107.526C0.303734 106.565 0.0964058 105.536 0.0907232 104.496Z" fill="white"/>
<path d="M1.93331 44.9187C1.92559 43.9369 2.13325 42.9654 2.54168 42.0725C2.92338 41.2478 3.48749 40.5205 4.1914 39.9456C4.89997 39.3708 5.72719 38.9604 6.61348 38.7439C7.57235 38.5126 8.56877 38.4826 9.53982 38.6558C10.5583 38.8331 11.5356 39.1959 12.4232 39.726C13.3 40.2477 14.0849 40.9103 14.7464 41.6871C15.4023 42.4529 15.9264 43.3224 16.2972 44.26C16.6668 45.1904 16.8587 46.1818 16.8629 47.183C16.8698 48.1297 16.677 49.0673 16.2972 49.9346C15.9405 50.7405 15.4111 51.4582 14.7464 52.0369C14.0726 52.6199 13.2798 53.0487 12.4232 53.2936C11.486 53.5582 10.5041 53.6249 9.53982 53.4895C8.51263 53.348 7.52078 53.0164 6.61502 52.5117C5.705 52.0068 4.8865 51.3522 4.19386 50.5755C3.49829 49.8003 2.94025 48.912 2.54382 47.9489C2.14632 46.9878 1.939 45.9587 1.93331 44.9187Z" fill="url(#paint0_linear_30_584)"/>
<path d="M1.93334 74.5042C1.92863 73.5079 2.13602 72.5219 2.5417 71.6119C2.92694 70.7547 3.48915 69.9886 4.19143 69.364C4.89387 68.7399 5.71881 68.2692 6.6135 67.982C7.55786 67.6815 8.55385 67.5779 9.53984 67.6777C10.5469 67.7763 11.5257 68.0673 12.4232 68.5348C13.2971 68.9895 14.0837 69.5954 14.7464 70.3243C15.4046 71.045 15.9297 71.8768 16.2972 72.7811C16.6695 73.6972 16.8615 74.6767 16.8626 75.6656C16.8668 76.626 16.6743 77.5771 16.2969 78.4602C15.9351 79.3006 15.4045 80.0578 14.7381 80.6848C14.0717 81.3118 13.2837 81.7954 12.4229 82.1055C11.4997 82.4371 10.5185 82.5762 9.53953 82.5142C8.52453 82.4518 7.53126 82.1932 6.61474 81.7526C4.78498 80.8729 3.33804 79.3572 2.54415 77.4885C2.14405 76.5443 1.93639 75.5297 1.93334 74.5042Z" fill="url(#paint1_linear_30_584)"/>
<path d="M1.93326 104.09C1.932 103.099 2.13142 102.117 2.5195 101.205C2.90758 100.293 3.47629 99.4693 4.19135 98.7829C5.07066 97.941 6.14173 97.3259 7.31202 96.9906C8.48231 96.6554 9.71663 96.6101 10.9083 96.8587C12.1 97.1073 13.2133 97.6424 14.1519 98.4176C15.0905 99.1928 15.8263 100.185 16.2956 101.308C16.7569 102.426 16.9374 103.64 16.8213 104.844C16.7052 106.047 16.296 107.204 15.6294 108.213C14.9629 109.222 14.0594 110.053 12.9978 110.632C11.9363 111.211 10.749 111.521 9.53977 111.536C8.0594 111.557 6.60562 111.141 5.36099 110.339C4.11637 109.538 3.13638 108.386 2.54408 107.029C2.14123 106.102 1.93332 105.101 1.93326 104.09Z" fill="url(#paint2_linear_30_584)"/>
<path d="M6.57319 44.885L8.80334 45.2278V43.0289C8.80227 42.9338 8.82175 42.8395 8.86045 42.7526C8.89665 42.6722 8.9505 42.601 9.01799 42.5443C9.08616 42.4875 9.16609 42.4465 9.252 42.4243C9.34563 42.4003 9.4432 42.3962 9.53853 42.412C9.63952 42.4283 9.73665 42.4631 9.82505 42.5146C9.91318 42.5657 9.99225 42.6311 10.0591 42.708C10.1257 42.7843 10.1792 42.8712 10.2172 42.9651C10.2551 43.0582 10.275 43.1578 10.2759 43.2583V45.4541L12.4636 45.7898C12.563 45.8055 12.6586 45.8395 12.7455 45.8902C12.9198 45.9914 13.0554 46.1479 13.1306 46.3349C13.1678 46.4273 13.187 46.526 13.1875 46.6257C13.1882 46.7199 13.1688 46.8132 13.1306 46.8993C13.0954 46.9788 13.0429 47.0495 12.9771 47.1063C12.9103 47.163 12.8317 47.2044 12.7471 47.2273C12.6552 47.2518 12.5591 47.2568 12.4652 47.242L10.2743 46.9143V49.1052C10.275 49.2004 10.2554 49.2946 10.2166 49.3816C10.1803 49.4622 10.1266 49.5339 10.0594 49.5913C9.99143 49.6488 9.91178 49.6907 9.82597 49.7142C9.73274 49.7394 9.63528 49.7451 9.53975 49.7307C9.43888 49.7161 9.34161 49.6827 9.25292 49.6325C9.16471 49.5826 9.0855 49.5182 9.01861 49.4421C8.9518 49.3665 8.89832 49.2801 8.86045 49.1866C8.82281 49.0932 8.80342 48.9934 8.80334 48.8927V46.6939L6.57319 46.3591C6.47073 46.3434 6.37204 46.3089 6.28206 46.2575C6.19252 46.2065 6.11209 46.141 6.04406 46.0637C5.97644 45.9875 5.92214 45.9005 5.88345 45.8063C5.84489 45.7121 5.82487 45.6112 5.82448 45.5094C5.82375 45.4134 5.84386 45.3183 5.88345 45.2308C5.92058 45.1497 5.97547 45.0779 6.04406 45.0208C6.11342 44.9629 6.19467 44.9209 6.28206 44.8979C6.37718 44.8737 6.47629 44.8693 6.57319 44.885Z" fill="white"/>
<path d="M8.13849 77.0608L14.3314 77.5098H14.3542L11.4499 72.2369C11.4319 72.2038 11.4061 72.1755 11.3747 72.1546C11.3593 72.1443 11.3427 72.136 11.3252 72.1297C11.3077 72.1234 11.2894 72.1194 11.2709 72.1178C11.2528 72.1161 11.2347 72.117 11.2168 72.1202C11.1997 72.1234 11.183 72.129 11.1674 72.1368C11.1361 72.1523 11.11 72.1765 11.0922 72.2065L9.11598 75.455L9.02078 75.6113L8.13849 77.0608Z" fill="white"/>
<path d="M4.60416 76.8043L10.068 77.2005L9.02084 75.6109L8.94529 75.4961L7.57195 73.4112C7.54763 73.3789 7.51728 73.3515 7.48258 73.3307C7.46572 73.3207 7.44793 73.3122 7.42946 73.3056C7.41035 73.2987 7.39059 73.2939 7.3705 73.2911C7.35107 73.2884 7.33141 73.2876 7.31184 73.289C7.29281 73.2902 7.27397 73.2935 7.25564 73.2988C7.2376 73.304 7.2202 73.3112 7.20374 73.3203C7.1872 73.3294 7.17174 73.3403 7.15768 73.3529L7.15307 73.3584L7.14724 73.3639L7.14263 73.3697L7.13802 73.3756L4.60416 76.8043Z" fill="white"/>
<path d="M8.73612 71.3691C8.8621 71.38 8.9848 71.4151 9.09757 71.4723C9.20814 71.5285 9.30785 71.6039 9.39208 71.6949C9.47614 71.7854 9.54333 71.8903 9.59047 72.0045C9.63826 72.12 9.66298 72.2437 9.66325 72.3687C9.6638 72.4898 9.63901 72.6097 9.59047 72.7206C9.54438 72.8256 9.4768 72.9198 9.39208 72.997C9.30693 73.0744 9.20665 73.1333 9.09757 73.1699C8.98127 73.2087 8.85826 73.2232 8.73612 73.2126C8.60999 73.202 8.48707 73.1673 8.37405 73.1103C8.26296 73.0544 8.16272 72.9791 8.07801 72.888C7.99335 72.7974 7.92564 72.6923 7.87809 72.5778C7.82986 72.4618 7.80492 72.3374 7.8047 72.2118C7.80417 72.0902 7.82917 71.9699 7.87809 71.8586C7.92463 71.7535 7.99274 71.6593 8.07801 71.5822C8.16376 71.5052 8.26457 71.4468 8.37405 71.4108C8.49062 71.3723 8.61384 71.3581 8.73612 71.3691Z" fill="white"/>
<path d="M75.564 92.3884L136.885 34.2065L137.148 34.6672L75.9472 92.8807L75.564 92.3884Z" fill="white"/>
<path d="M75.5739 26.4443L75.9584 25.9836L137.143 89.4991L136.879 89.9368L75.5739 26.4443Z" fill="white"/>
<path d="M136.265 33.3571L76.6572 25.1681C76.3816 25.1287 76.1007 25.1527 75.8357 25.2381C75.5835 25.3213 75.3533 25.4602 75.1623 25.6447C74.9646 25.8355 74.8093 26.0657 74.7062 26.3203C74.5934 26.6012 74.5364 26.9014 74.5382 27.2041V91.3691C74.5374 91.676 74.5944 91.9802 74.7062 92.2659C74.8102 92.5315 74.965 92.7744 75.162 92.9808C75.3519 93.1796 75.5813 93.3365 75.8354 93.4414C76.0956 93.5478 76.3762 93.5948 76.6569 93.579L136.265 90.2961C136.466 90.283 136.661 90.2196 136.831 90.1119C137.012 89.9979 137.169 89.8497 137.292 89.6755C137.429 89.485 137.533 89.2738 137.602 89.0499C137.678 88.8068 137.717 88.5535 137.716 88.2988V35.4718C137.716 35.214 137.678 34.9577 137.602 34.7111C137.532 34.4797 137.428 34.2602 137.292 34.0601C137.168 33.8755 137.012 33.7148 136.831 33.5856C136.663 33.4657 136.469 33.3874 136.265 33.3571ZM76.6572 92.9188C76.4568 92.9296 76.2565 92.8956 76.071 92.8193C75.8896 92.744 75.726 92.6316 75.5907 92.4894C75.4501 92.3416 75.3398 92.1679 75.2657 91.9778C75.186 91.774 75.1454 91.557 75.146 91.3381V27.2837C75.1448 27.0679 75.1855 26.854 75.2657 26.6538C75.339 26.4717 75.4497 26.3071 75.5907 26.1704C75.7269 26.0389 75.8911 25.9397 76.071 25.8802C76.2599 25.8188 76.4604 25.8013 76.6572 25.8289L136.265 33.9072C136.411 33.9288 136.55 33.9848 136.67 34.0705C136.799 34.1624 136.911 34.2768 137 34.4083C137.097 34.5513 137.172 34.7082 137.222 34.8736C137.276 35.0498 137.303 35.2331 137.304 35.4175V88.3203C137.304 88.5025 137.276 88.6837 137.222 88.8577C137.172 89.0177 137.097 89.1687 137 89.3048C136.911 89.4292 136.799 89.535 136.67 89.6162C136.548 89.6927 136.409 89.7373 136.265 89.7461L76.6572 92.9188Z" fill="white"/>
<path d="M74.6826 100.355C74.5241 100.372 74.373 100.431 74.2444 100.525C74.1024 100.629 73.9817 100.76 73.8888 100.909C73.7831 101.076 73.7032 101.258 73.6517 101.449C73.5947 101.657 73.5671 101.873 73.5697 102.089C73.5709 102.295 73.602 102.501 73.6618 102.699C73.7139 102.873 73.7949 103.037 73.9014 103.184C73.9942 103.313 74.1144 103.421 74.2536 103.498C74.385 103.57 74.534 103.604 74.6835 103.595L179.037 94.9541C179.12 94.9472 179.198 94.9114 179.257 94.8531C179.333 94.7805 179.394 94.6942 179.438 94.5988C179.494 94.4813 179.535 94.3576 179.561 94.2303C179.592 94.083 179.608 93.933 179.609 93.7825C179.611 93.6336 179.597 93.4849 179.568 93.3388C179.545 93.2146 179.505 93.0939 179.451 92.9798C179.409 92.8886 179.349 92.8071 179.274 92.7406C179.214 92.6869 179.136 92.658 179.055 92.6595H179.037L74.6826 100.355Z" fill="white"/>
<path d="M74.6826 110.188C74.5233 110.21 74.3724 110.273 74.2444 110.37C74.1026 110.478 73.982 110.611 73.8888 110.763C73.7833 110.932 73.7034 111.117 73.6517 111.309C73.5946 111.519 73.567 111.735 73.5697 111.953C73.5708 112.159 73.6019 112.363 73.6618 112.56C73.7136 112.733 73.7947 112.894 73.9014 113.039C73.994 113.166 74.1142 113.27 74.253 113.344C74.3853 113.412 74.5344 113.442 74.6829 113.429L179.037 101.917C179.12 101.907 179.198 101.869 179.257 101.81C179.333 101.735 179.394 101.647 179.438 101.55C179.494 101.431 179.535 101.305 179.561 101.177C179.592 101.029 179.608 100.878 179.609 100.727C179.611 100.579 179.597 100.43 179.569 100.284C179.545 100.161 179.505 100.042 179.451 99.9289C179.409 99.8393 179.348 99.7597 179.273 99.6955C179.213 99.6433 179.134 99.6164 179.054 99.6202H179.036L74.6826 110.188Z" fill="white"/>
<path d="M74.6826 119.863C74.5225 119.889 74.3717 119.956 74.2444 120.057C74.1025 120.168 73.982 120.305 73.8888 120.459C73.7835 120.631 73.7037 120.817 73.6517 121.012C73.5948 121.222 73.5672 121.439 73.5697 121.657C73.5707 121.862 73.6017 122.066 73.6618 122.262C73.7134 122.432 73.7945 122.592 73.9013 122.734C73.994 122.859 74.1144 122.959 74.253 123.029C74.3863 123.094 74.5355 123.12 74.6829 123.102L179.037 108.766C179.121 108.754 179.198 108.714 179.257 108.653C179.333 108.577 179.394 108.487 179.438 108.389C179.494 108.268 179.535 108.142 179.561 108.012C179.592 107.864 179.608 107.713 179.609 107.561C179.611 107.413 179.597 107.265 179.568 107.12C179.545 106.998 179.505 106.879 179.451 106.767C179.409 106.679 179.348 106.601 179.273 106.539C179.212 106.488 179.133 106.463 179.054 106.469H179.036L74.6826 119.863Z" fill="white"/>
<path d="M12.5169 100.974L6.55978 100.903C6.46044 100.899 6.36127 100.913 6.2668 100.944C6.17548 100.974 6.08998 101.019 6.01406 101.078C5.9384 101.137 5.87356 101.208 5.82243 101.289C5.77004 101.372 5.73311 101.464 5.71341 101.56C5.69376 101.675 5.69974 101.793 5.73092 101.906C5.74648 101.962 5.76811 102.016 5.79541 102.067C5.85107 102.172 5.92894 102.264 6.02358 102.336C6.16552 102.443 6.33838 102.502 6.51647 102.504L8.30808 102.52C8.39257 102.52 8.47506 102.546 8.54543 102.592C8.6158 102.639 8.671 102.705 8.70424 102.783C8.72658 102.836 8.73807 102.892 8.73802 102.949V106.464C8.73359 106.658 8.79824 106.847 8.92044 106.998C9.04272 107.149 9.21442 107.252 9.40534 107.289C9.57838 107.318 9.75616 107.29 9.91146 107.208C10.0668 107.127 10.191 106.996 10.2652 106.837C10.3141 106.733 10.3394 106.618 10.3395 106.503V102.959C10.3396 102.904 10.3505 102.849 10.3717 102.798C10.3929 102.747 10.4239 102.7 10.4631 102.661C10.5022 102.622 10.5486 102.591 10.5997 102.57C10.6508 102.549 10.7056 102.538 10.7609 102.538L10.7649 102.538L12.4763 102.552C12.6674 102.558 12.8545 102.496 13.0042 102.377C13.154 102.258 13.2567 102.09 13.2941 101.903C13.3129 101.789 13.3069 101.673 13.2767 101.562C13.2464 101.451 13.1925 101.348 13.1187 101.26C13.0449 101.172 12.9529 101.101 12.849 101.051C12.7452 101.002 12.6319 100.975 12.5169 100.974Z" fill="white"/>
<path d="M12.5172 105.709C12.6871 105.709 12.8524 105.763 12.9888 105.865C13.1252 105.966 13.2253 106.108 13.2744 106.271C13.3234 106.434 13.3188 106.608 13.2612 106.768C13.2036 106.927 13.0961 107.064 12.9545 107.158C12.813 107.252 12.645 107.298 12.4753 107.289C12.3057 107.28 12.1435 107.216 12.0128 107.108C11.882 107 11.7896 106.852 11.7494 106.687C11.7091 106.522 11.723 106.348 11.7891 106.192C11.8493 106.048 11.9505 105.926 12.0801 105.84C12.2096 105.754 12.3617 105.708 12.5172 105.709Z" fill="white"/>
<path opacity="0.2" d="M144.008 41.3241L84.4106 33.1365L84.4053 33.1358C84.2812 33.1181 84.1547 33.1286 84.0353 33.1666C83.9272 33.2028 83.8285 33.2626 83.7464 33.3418L144.008 41.3241ZM144.008 41.3241C144.009 41.3243 144.01 41.3244 144.011 41.3246C144.058 41.3321 144.102 41.3502 144.14 41.3776L144.721 40.5634C144.902 40.6926 145.058 40.8533 145.182 41.0379C145.317 41.238 145.422 41.4575 145.492 41.6889C145.567 41.9355 145.606 42.1918 145.606 42.4496M144.008 41.3241L144.14 41.3771C144.223 41.4364 144.294 41.5101 144.351 41.5948L144.354 41.5988C144.433 41.7155 144.494 41.8435 144.535 41.9783L144.535 41.9811C144.582 42.1332 144.606 42.2913 144.606 42.4504M145.606 42.4496H144.606V42.4504M145.606 42.4496V95.2766L144.606 42.4504M145.606 42.4496L144.606 42.4504M83.4277 34.1819H83.4277V98.3469V98.3497C83.4272 98.5309 83.4608 98.7104 83.5269 98.8791C83.5834 99.0234 83.6675 99.1555 83.7745 99.2678L83.4277 34.1819ZM83.4277 34.1819L83.4277 34.1758M83.4277 34.1819L83.4277 34.1758M83.4277 34.1758C83.4266 34.0033 83.4591 33.8322 83.5231 33.672C83.5737 33.5477 83.6497 33.4352 83.7463 33.3419L83.4277 34.1758ZM144.154 97.2739C144.356 97.2607 144.55 97.1974 144.721 97.0897C144.902 96.9757 145.058 96.8274 145.182 96.6533L144.154 97.2739ZM144.089 96.2761L84.4914 99.5583L84.4901 99.5584C84.3586 99.5658 84.2271 99.5439 84.1051 99.4943C83.9806 99.4427 83.8682 99.3657 83.775 99.2684L144.089 96.2761Z" stroke="url(#paint3_linear_30_584)" stroke-width="2"/>
<path d="M146.464 41.3241L86.8674 33.1365L86.8621 33.1358C86.738 33.1181 86.6115 33.1286 86.4921 33.1666C86.3839 33.2028 86.2852 33.2626 86.2032 33.3418L146.464 41.3241ZM146.464 41.3241C146.466 41.3243 146.467 41.3244 146.468 41.3246C146.514 41.3321 146.559 41.3502 146.597 41.3776L147.178 40.5634C147.359 40.6926 147.515 40.8533 147.638 41.0379C147.774 41.238 147.879 41.4575 147.949 41.6889C148.024 41.9355 148.062 42.1918 148.063 42.4496M146.464 41.3241L146.597 41.3771C146.679 41.4364 146.751 41.5101 146.808 41.5948L146.811 41.5988C146.89 41.7155 146.951 41.8435 146.991 41.9783L146.992 41.9811C147.039 42.1332 147.062 42.2913 147.063 42.4504M148.063 42.4496H147.063V42.4504M148.063 42.4496V95.2766L147.063 42.4504M148.063 42.4496L147.063 42.4504M85.8845 34.1819H85.8845V98.3469V98.3497C85.884 98.5309 85.9176 98.7104 85.9837 98.8791C86.0402 99.0234 86.1243 99.1555 86.2313 99.2678L85.8845 34.1819ZM85.8845 34.1819L85.8845 34.1758M85.8845 34.1819L85.8845 34.1758M85.8845 34.1758C85.8834 34.0033 85.9158 33.8322 85.9799 33.672C86.0305 33.5477 86.1065 33.4352 86.2031 33.3419L85.8845 34.1758ZM146.611 97.2739C146.812 97.2607 147.007 97.1974 147.178 97.0897C147.358 96.9757 147.515 96.8274 147.638 96.6533L146.611 97.2739ZM146.546 96.2761L86.9482 99.5583L86.9469 99.5584C86.8154 99.5658 86.6839 99.5439 86.5619 99.4943C86.4374 99.4427 86.325 99.3657 86.2318 99.2684L146.546 96.2761Z" stroke="url(#paint4_linear_30_584)" stroke-width="2"/>
<defs>
<linearGradient id="paint0_linear_30_584" x1="9.39808" y1="38.5449" x2="9.39808" y2="53.5577" gradientUnits="userSpaceOnUse">
<stop stop-color="#F3397D"/>
<stop offset="1" stop-color="#FF9153"/>
</linearGradient>
<linearGradient id="paint1_linear_30_584" x1="9.39796" y1="67.6409" x2="9.39796" y2="82.5286" gradientUnits="userSpaceOnUse">
<stop stop-color="#F3397D"/>
<stop offset="1" stop-color="#FF9153"/>
</linearGradient>
<linearGradient id="paint2_linear_30_584" x1="9.39439" y1="96.7007" x2="9.39439" y2="111.537" gradientUnits="userSpaceOnUse">
<stop stop-color="#F3397D"/>
<stop offset="1" stop-color="#FF9153"/>
</linearGradient>
<linearGradient id="paint3_linear_30_584" x1="114.017" y1="32.1274" x2="114.017" y2="100.56" gradientUnits="userSpaceOnUse">
<stop stop-color="#F3397D"/>
<stop offset="1" stop-color="#FF9153"/>
</linearGradient>
<linearGradient id="paint4_linear_30_584" x1="116.473" y1="32.1274" x2="116.473" y2="100.56" gradientUnits="userSpaceOnUse">
<stop stop-color="#F3397D"/>
<stop offset="1" stop-color="#FF9153"/>
</linearGradient>
</defs>
</svg>
