<svg width="239" height="148" viewBox="0 0 239 148" fill="none" xmlns="http://www.w3.org/2000/svg">
<path d="M225.96 126.608C223.38 126.608 220.859 125.844 218.715 124.411C216.57 122.978 214.899 120.941 213.912 118.558C212.925 116.175 212.667 113.553 213.17 111.024C213.673 108.494 214.915 106.171 216.739 104.347C218.562 102.523 220.886 101.281 223.416 100.778C225.945 100.275 228.567 100.533 230.95 101.52C233.333 102.507 235.369 104.179 236.802 106.323C238.235 108.468 239 110.989 239 113.568C238.996 117.025 237.621 120.34 235.176 122.785C232.732 125.229 229.417 126.604 225.96 126.608ZM225.96 101.267C223.527 101.267 221.148 101.988 219.126 103.34C217.103 104.692 215.526 106.613 214.595 108.861C213.664 111.108 213.42 113.582 213.895 115.968C214.37 118.354 215.541 120.546 217.261 122.266C218.982 123.986 221.174 125.158 223.56 125.633C225.946 126.107 228.419 125.864 230.667 124.933C232.915 124.002 234.836 122.425 236.188 120.402C237.539 118.379 238.261 116.001 238.261 113.568C238.257 110.307 236.96 107.18 234.654 104.874C232.348 102.568 229.221 101.271 225.96 101.267Z" fill="#111F2B"/>
<path d="M230.959 112.318H227.21V108.568C227.21 108.237 227.078 107.919 226.844 107.685C226.609 107.45 226.291 107.318 225.96 107.318C225.628 107.318 225.31 107.45 225.076 107.685C224.842 107.919 224.71 108.237 224.71 108.568V112.318H220.96C220.629 112.318 220.311 112.45 220.076 112.684C219.842 112.919 219.71 113.236 219.71 113.568C219.71 113.899 219.842 114.217 220.076 114.452C220.311 114.686 220.629 114.818 220.96 114.818H224.71V118.568C224.71 118.899 224.842 119.217 225.076 119.451C225.31 119.686 225.628 119.817 225.96 119.817C226.291 119.817 226.609 119.686 226.844 119.451C227.078 119.217 227.21 118.899 227.21 118.568V114.818H230.959C231.291 114.818 231.609 114.686 231.843 114.452C232.077 114.217 232.209 113.899 232.209 113.568C232.209 113.236 232.077 112.919 231.843 112.684C231.609 112.45 231.291 112.318 230.959 112.318Z" fill="white"/>
<g opacity="0.4">
<path d="M1.86805 128.209C2.89385 128.209 3.72542 127.378 3.72542 126.352C3.72542 125.326 2.89385 124.494 1.86805 124.494C0.842254 124.494 0.0106812 125.326 0.0106812 126.352C0.0106812 127.378 0.842254 128.209 1.86805 128.209Z" fill="white"/>
<path d="M1.86805 120.47C2.89385 120.47 3.72542 119.638 3.72542 118.613C3.72542 117.587 2.89385 116.755 1.86805 116.755C0.842254 116.755 0.0106812 117.587 0.0106812 118.613C0.0106812 119.638 0.842254 120.47 1.86805 120.47Z" fill="white"/>
<path d="M1.86805 112.731C2.89385 112.731 3.72542 111.9 3.72542 110.874C3.72542 109.848 2.89385 109.016 1.86805 109.016C0.842254 109.016 0.0106812 109.848 0.0106812 110.874C0.0106812 111.9 0.842254 112.731 1.86805 112.731Z" fill="white"/>
<path d="M1.86805 104.992C2.89385 104.992 3.72542 104.16 3.72542 103.135C3.72542 102.109 2.89385 101.277 1.86805 101.277C0.842254 101.277 0.0106812 102.109 0.0106812 103.135C0.0106812 104.16 0.842254 104.992 1.86805 104.992Z" fill="white"/>
<path d="M1.86805 97.2529C2.89385 97.2529 3.72542 96.4214 3.72542 95.3956C3.72542 94.3698 2.89385 93.5382 1.86805 93.5382C0.842254 93.5382 0.0106812 94.3698 0.0106812 95.3956C0.0106812 96.4214 0.842254 97.2529 1.86805 97.2529Z" fill="white"/>
<path d="M1.86805 89.5138C2.89385 89.5138 3.72542 88.6822 3.72542 87.6564C3.72542 86.6307 2.89385 85.7991 1.86805 85.7991C0.842254 85.7991 0.0106812 86.6307 0.0106812 87.6564C0.0106812 88.6822 0.842254 89.5138 1.86805 89.5138Z" fill="white"/>
<path d="M1.86854 81.7749C2.89434 81.7749 3.72591 80.9433 3.72591 79.9175C3.72591 78.8918 2.89434 78.0602 1.86854 78.0602C0.842742 78.0602 0.0111694 78.8918 0.0111694 79.9175C0.0111694 80.9433 0.842742 81.7749 1.86854 81.7749Z" fill="white"/>
<path d="M7.74983 128.209C8.77562 128.209 9.60719 127.378 9.60719 126.352C9.60719 125.326 8.77562 124.494 7.74983 124.494C6.72403 124.494 5.89246 125.326 5.89246 126.352C5.89246 127.378 6.72403 128.209 7.74983 128.209Z" fill="white"/>
<path d="M7.74983 120.47C8.77562 120.47 9.60719 119.638 9.60719 118.613C9.60719 117.587 8.77562 116.755 7.74983 116.755C6.72403 116.755 5.89246 117.587 5.89246 118.613C5.89246 119.638 6.72403 120.47 7.74983 120.47Z" fill="white"/>
<path d="M7.74983 112.731C8.77562 112.731 9.60719 111.9 9.60719 110.874C9.60719 109.848 8.77562 109.016 7.74983 109.016C6.72403 109.016 5.89246 109.848 5.89246 110.874C5.89246 111.9 6.72403 112.731 7.74983 112.731Z" fill="white"/>
<path d="M7.74983 104.992C8.77562 104.992 9.60719 104.16 9.60719 103.135C9.60719 102.109 8.77562 101.277 7.74983 101.277C6.72403 101.277 5.89246 102.109 5.89246 103.135C5.89246 104.16 6.72403 104.992 7.74983 104.992Z" fill="white"/>
<path d="M7.74983 97.2529C8.77562 97.2529 9.60719 96.4214 9.60719 95.3956C9.60719 94.3698 8.77562 93.5382 7.74983 93.5382C6.72403 93.5382 5.89246 94.3698 5.89246 95.3956C5.89246 96.4214 6.72403 97.2529 7.74983 97.2529Z" fill="white"/>
<path d="M7.74983 89.5138C8.77562 89.5138 9.60719 88.6822 9.60719 87.6564C9.60719 86.6307 8.77562 85.7991 7.74983 85.7991C6.72403 85.7991 5.89246 86.6307 5.89246 87.6564C5.89246 88.6822 6.72403 89.5138 7.74983 89.5138Z" fill="white"/>
<path d="M7.74983 81.7749C8.77562 81.7749 9.60719 80.9433 9.60719 79.9175C9.60719 78.8918 8.77562 78.0602 7.74983 78.0602C6.72403 78.0602 5.89246 78.8918 5.89246 79.9175C5.89246 80.9433 6.72403 81.7749 7.74983 81.7749Z" fill="white"/>
<path d="M13.6314 128.209C14.6572 128.209 15.4887 127.378 15.4887 126.352C15.4887 125.326 14.6572 124.494 13.6314 124.494C12.6056 124.494 11.774 125.326 11.774 126.352C11.774 127.378 12.6056 128.209 13.6314 128.209Z" fill="white"/>
<path d="M13.6314 120.47C14.6572 120.47 15.4887 119.638 15.4887 118.613C15.4887 117.587 14.6572 116.755 13.6314 116.755C12.6056 116.755 11.774 117.587 11.774 118.613C11.774 119.638 12.6056 120.47 13.6314 120.47Z" fill="white"/>
<path d="M13.6314 112.731C14.6572 112.731 15.4887 111.9 15.4887 110.874C15.4887 109.848 14.6572 109.016 13.6314 109.016C12.6056 109.016 11.774 109.848 11.774 110.874C11.774 111.9 12.6056 112.731 13.6314 112.731Z" fill="white"/>
<path d="M13.6314 104.992C14.6572 104.992 15.4887 104.16 15.4887 103.135C15.4887 102.109 14.6572 101.277 13.6314 101.277C12.6056 101.277 11.774 102.109 11.774 103.135C11.774 104.16 12.6056 104.992 13.6314 104.992Z" fill="white"/>
<path d="M13.6314 97.2529C14.6572 97.2529 15.4887 96.4214 15.4887 95.3956C15.4887 94.3698 14.6572 93.5382 13.6314 93.5382C12.6056 93.5382 11.774 94.3698 11.774 95.3956C11.774 96.4214 12.6056 97.2529 13.6314 97.2529Z" fill="white"/>
<path d="M13.6314 89.5138C14.6572 89.5138 15.4887 88.6822 15.4887 87.6564C15.4887 86.6307 14.6572 85.7991 13.6314 85.7991C12.6056 85.7991 11.774 86.6307 11.774 87.6564C11.774 88.6822 12.6056 89.5138 13.6314 89.5138Z" fill="white"/>
<path d="M13.6314 81.7749C14.6572 81.7749 15.4887 80.9433 15.4887 79.9175C15.4887 78.8918 14.6572 78.0602 13.6314 78.0602C12.6056 78.0602 11.774 78.8918 11.774 79.9175C11.774 80.9433 12.6056 81.7749 13.6314 81.7749Z" fill="white"/>
<path d="M19.5131 128.209C20.5389 128.209 21.3704 127.378 21.3704 126.352C21.3704 125.326 20.5389 124.494 19.5131 124.494C18.4873 124.494 17.6557 125.326 17.6557 126.352C17.6557 127.378 18.4873 128.209 19.5131 128.209Z" fill="white"/>
<path d="M19.5131 120.47C20.5389 120.47 21.3704 119.638 21.3704 118.613C21.3704 117.587 20.5389 116.755 19.5131 116.755C18.4873 116.755 17.6557 117.587 17.6557 118.613C17.6557 119.638 18.4873 120.47 19.5131 120.47Z" fill="white"/>
<path d="M25.3948 128.209C26.4206 128.209 27.2522 127.378 27.2522 126.352C27.2522 125.326 26.4206 124.494 25.3948 124.494C24.369 124.494 23.5374 125.326 23.5374 126.352C23.5374 127.378 24.369 128.209 25.3948 128.209Z" fill="white"/>
<path d="M25.3948 120.47C26.4206 120.47 27.2522 119.638 27.2522 118.613C27.2522 117.587 26.4206 116.755 25.3948 116.755C24.369 116.755 23.5374 117.587 23.5374 118.613C23.5374 119.638 24.369 120.47 25.3948 120.47Z" fill="white"/>
<path d="M25.3948 112.731C26.4206 112.731 27.2522 111.9 27.2522 110.874C27.2522 109.848 26.4206 109.016 25.3948 109.016C24.369 109.016 23.5374 109.848 23.5374 110.874C23.5374 111.9 24.369 112.731 25.3948 112.731Z" fill="white"/>
<path d="M19.5131 112.731C20.5389 112.731 21.3704 111.9 21.3704 110.874C21.3704 109.848 20.5389 109.016 19.5131 109.016C18.4873 109.016 17.6557 109.848 17.6557 110.874C17.6557 111.9 18.4873 112.731 19.5131 112.731Z" fill="white"/>
<path d="M19.5131 104.992C20.5389 104.992 21.3704 104.16 21.3704 103.135C21.3704 102.109 20.5389 101.277 19.5131 101.277C18.4873 101.277 17.6557 102.109 17.6557 103.135C17.6557 104.16 18.4873 104.992 19.5131 104.992Z" fill="white"/>
<path d="M19.5131 97.2529C20.5389 97.2529 21.3704 96.4214 21.3704 95.3956C21.3704 94.3698 20.5389 93.5382 19.5131 93.5382C18.4873 93.5382 17.6557 94.3698 17.6557 95.3956C17.6557 96.4214 18.4873 97.2529 19.5131 97.2529Z" fill="white"/>
<path d="M19.5131 89.5138C20.5389 89.5138 21.3704 88.6822 21.3704 87.6564C21.3704 86.6307 20.5389 85.7991 19.5131 85.7991C18.4873 85.7991 17.6557 86.6307 17.6557 87.6564C17.6557 88.6822 18.4873 89.5138 19.5131 89.5138Z" fill="white"/>
<path d="M19.5131 81.7749C20.5389 81.7749 21.3704 80.9433 21.3704 79.9175C21.3704 78.8918 20.5389 78.0602 19.5131 78.0602C18.4873 78.0602 17.6557 78.8918 17.6557 79.9175C17.6557 80.9433 18.4873 81.7749 19.5131 81.7749Z" fill="white"/>
</g>
<path d="M165.79 0H42.404C41.7979 0.000612697 41.2169 0.241625 40.7884 0.670137C40.3599 1.09865 40.1189 1.67966 40.1183 2.28566V107.793C40.1189 108.399 40.3599 108.981 40.7884 109.409C41.2169 109.838 41.798 110.079 42.404 110.079H165.79C166.396 110.079 166.977 109.838 167.406 109.409C167.834 108.981 168.075 108.399 168.076 107.793V2.28565C168.075 1.67964 167.834 1.09863 167.406 0.670126C166.977 0.241616 166.396 0.000610727 165.79 0ZM167.16 107.793C167.16 108.157 167.016 108.506 166.759 108.763C166.502 109.021 166.154 109.166 165.79 109.167H42.404C42.0401 109.167 41.6914 109.022 41.4346 108.764C41.1777 108.506 41.0337 108.157 41.0343 107.793V2.28565C41.0337 1.92182 41.1777 1.57268 41.4346 1.31502C41.6914 1.05735 42.0401 0.912268 42.404 0.911685H165.79C166.154 0.912989 166.502 1.0583 166.759 1.31581C167.016 1.57332 167.16 1.92204 167.16 2.28565V107.793Z" fill="#111F2B"/>
<path d="M70.8848 91.319C70.8848 91.4816 70.8805 91.6443 70.8719 91.8026C70.7475 94.1838 69.714 96.4263 67.9846 98.0677C66.2552 99.7091 63.9617 100.624 61.5774 100.624C59.193 100.624 56.8996 99.7091 55.1702 98.0677C53.4408 96.4263 52.4073 94.1838 52.2828 91.8026C52.2743 91.6443 52.27 91.4816 52.27 91.319C52.2693 90.0962 52.5094 88.8853 52.9768 87.7554C53.4442 86.6255 54.1297 85.5988 54.994 84.7339C55.8584 83.869 56.8847 83.1829 58.0143 82.7148C59.1439 82.2467 60.3546 82.0057 61.5774 82.0057C62.8001 82.0057 64.0109 82.2467 65.1405 82.7148C66.2701 83.1829 67.2964 83.869 68.1608 84.7339C69.0251 85.5988 69.7106 86.6255 70.178 87.7554C70.6454 88.8853 70.8855 90.0962 70.8848 91.319Z" fill="white"/>
<path d="M156.203 85.1127H83.0706C82.6595 85.1133 82.2655 85.2771 81.975 85.568C81.6845 85.8589 81.5214 86.2532 81.5214 86.6643C81.5214 87.0753 81.6845 87.4696 81.975 87.7605C82.2655 88.0515 82.6595 88.2152 83.0706 88.2158H156.203C156.614 88.2152 157.008 88.0515 157.298 87.7605C157.589 87.4696 157.752 87.0753 157.752 86.6643C157.752 86.2532 157.589 85.8589 157.298 85.568C157.008 85.2771 156.614 85.1133 156.203 85.1127Z" fill="#111F2B"/>
<path d="M114.539 94.422H83.0705C82.6595 94.422 82.2654 94.5852 81.9748 94.8758C81.6843 95.1664 81.521 95.5605 81.521 95.9714C81.521 96.3824 81.6843 96.7765 81.9748 97.0671C82.2654 97.3576 82.6595 97.5209 83.0705 97.5209H114.539C114.95 97.5209 115.344 97.3576 115.634 97.0671C115.925 96.7765 116.088 96.3824 116.088 95.9714C116.088 95.5605 115.925 95.1664 115.634 94.8758C115.344 94.5852 114.95 94.422 114.539 94.422Z" fill="white"/>
<path d="M195.104 74.1551H71.7185C70.8805 74.1541 70.0772 73.8208 69.4847 73.2282C68.8921 72.6356 68.5589 71.8322 68.558 70.9942V16.8464C68.5589 16.0084 68.8922 15.2051 69.4847 14.6125C70.0772 14.02 70.8806 13.6867 71.7185 13.6857H195.104C195.942 13.6867 196.746 14.02 197.338 14.6125C197.931 15.2051 198.264 16.0084 198.265 16.8464V70.9942C198.264 71.8322 197.931 72.6356 197.338 73.2282C196.746 73.8208 195.942 74.1541 195.104 74.1551ZM71.7185 14.7948C71.1746 14.7954 70.6532 15.0118 70.2686 15.3964C69.884 15.781 69.6677 16.3025 69.6671 16.8464V70.9942C69.6677 71.5381 69.884 72.0596 70.2686 72.4443C70.6531 72.8289 71.1746 73.0453 71.7185 73.046H195.104C195.648 73.0453 196.17 72.8289 196.554 72.4443C196.939 72.0596 197.155 71.5381 197.156 70.9942V16.8464C197.155 16.3025 196.939 15.781 196.554 15.3964C196.17 15.0118 195.648 14.7954 195.104 14.7948H71.7185Z" fill="white"/>
<path d="M96.8461 33.4353C96.4347 33.4353 96.0401 33.5987 95.7492 33.8897C95.4583 34.1806 95.2949 34.5751 95.2949 34.9866C95.2949 35.398 95.4583 35.7925 95.7492 36.0835C96.0401 36.3744 96.4347 36.5378 96.8461 36.5378H169.977C170.388 36.5378 170.783 36.3744 171.074 36.0835C171.364 35.7925 171.528 35.398 171.528 34.9866C171.528 34.5751 171.364 34.1806 171.074 33.8897C170.783 33.5987 170.388 33.4353 169.977 33.4353H96.8461Z" fill="white"/>
<path d="M96.8461 42.4236C96.4347 42.4236 96.0401 42.587 95.7492 42.8779C95.4583 43.1688 95.2949 43.5634 95.2949 43.9748C95.2949 44.3863 95.4583 44.7808 95.7492 45.0717C96.0401 45.3627 96.4347 45.5261 96.8461 45.5261H169.977C170.388 45.5255 170.782 45.3617 171.072 45.0709C171.362 44.78 171.526 44.3858 171.526 43.9748C171.526 43.5638 171.362 43.1696 171.072 42.8788C170.782 42.5879 170.388 42.4242 169.977 42.4236H96.8461Z" fill="white"/>
<path d="M96.8461 51.3033C96.4347 51.3033 96.0401 51.4668 95.7492 51.7577C95.4583 52.0486 95.2949 52.4432 95.2949 52.8546C95.2949 53.266 95.4583 53.6606 95.7492 53.9515C96.0401 54.2424 96.4347 54.4059 96.8461 54.4059H128.314C128.725 54.4052 129.119 54.2415 129.41 53.9507C129.7 53.6598 129.863 53.2656 129.863 52.8546C129.863 52.4436 129.7 52.0494 129.41 51.7585C129.119 51.4677 128.725 51.304 128.314 51.3033H96.8461Z" fill="white"/>
<path d="M215.448 97.0962L203.055 79.6064L207.067 80.4424C207.138 80.4572 207.212 80.4579 207.283 80.4443C207.355 80.4307 207.423 80.4032 207.484 80.3633C207.545 80.3233 207.598 80.2717 207.639 80.2115C207.68 80.1513 207.708 80.0836 207.723 80.0122C207.738 79.9409 207.739 79.8673 207.725 79.7957C207.712 79.7241 207.684 79.6558 207.644 79.5949C207.604 79.5339 207.553 79.4814 207.492 79.4404C207.432 79.3994 207.364 79.3706 207.293 79.3557L201.315 78.1112L200.508 84.1635C200.498 84.2358 200.502 84.3094 200.521 84.38C200.54 84.4506 200.572 84.5169 200.616 84.5749C200.661 84.633 200.716 84.6818 200.779 84.7184C200.842 84.7551 200.912 84.7789 200.984 84.7885C201.057 84.7982 201.13 84.7934 201.201 84.7746C201.271 84.7558 201.338 84.7232 201.395 84.6787C201.453 84.6343 201.502 84.5788 201.538 84.5156C201.575 84.4523 201.599 84.3825 201.608 84.3101L202.149 80.2458L214.543 97.7375C214.585 97.7969 214.638 97.8474 214.7 97.8862C214.761 97.9249 214.83 97.9512 214.902 97.9634C214.974 97.9757 215.047 97.9736 215.118 97.9575C215.189 97.9413 215.256 97.9113 215.316 97.8692C215.375 97.8271 215.426 97.7737 215.464 97.7121C215.503 97.6505 215.529 97.5818 215.542 97.51C215.554 97.4383 215.552 97.3648 215.536 97.2938C215.52 97.2228 215.49 97.1556 215.448 97.0962Z" fill="white"/>
<path d="M148.14 148H60.0546C59.6222 147.999 59.2076 147.827 58.9018 147.522C58.596 147.216 58.4239 146.801 58.4234 146.369V124.519C58.4239 124.086 58.596 123.671 58.9018 123.366C59.2076 123.06 59.6222 122.888 60.0546 122.887H148.14C148.572 122.888 148.987 123.06 149.293 123.366C149.598 123.671 149.77 124.086 149.771 124.519V146.369C149.77 146.801 149.598 147.216 149.293 147.522C148.987 147.827 148.572 147.999 148.14 148ZM60.0546 123.54C59.7952 123.54 59.5464 123.643 59.3629 123.827C59.1794 124.01 59.0762 124.259 59.0759 124.519V146.369C59.0762 146.628 59.1794 146.877 59.3629 147.06C59.5464 147.244 59.7952 147.347 60.0546 147.347H148.14C148.399 147.347 148.648 147.244 148.831 147.06C149.015 146.877 149.118 146.628 149.118 146.369V124.519C149.118 124.259 149.015 124.01 148.831 123.827C148.648 123.643 148.399 123.54 148.14 123.54H60.0546Z" fill="#111F2B"/>
<path d="M73.7413 141.25C77.4111 141.25 80.386 138.275 80.386 134.605C80.386 130.936 77.4111 127.961 73.7413 127.961C70.0716 127.961 67.0967 130.936 67.0967 134.605C67.0967 138.275 70.0716 141.25 73.7413 141.25Z" fill="white"/>
<path d="M89.0873 130.176C88.9417 130.175 88.7975 130.204 88.6629 130.259C88.5283 130.315 88.406 130.396 88.3029 130.499C88.1999 130.602 88.1181 130.724 88.0624 130.859C88.0066 130.993 87.9779 131.138 87.9779 131.283C87.9779 131.429 88.0066 131.573 88.0624 131.707C88.1181 131.842 88.1999 131.964 88.3029 132.067C88.406 132.17 88.5283 132.251 88.6629 132.307C88.7975 132.362 88.9417 132.391 89.0873 132.391H141.295C141.589 132.391 141.871 132.274 142.078 132.066C142.286 131.858 142.403 131.577 142.403 131.283C142.403 130.989 142.286 130.708 142.078 130.5C141.871 130.292 141.589 130.176 141.295 130.176H89.0873Z" fill="white"/>
<path d="M89.0873 136.82C88.9417 136.82 88.7975 136.848 88.6629 136.904C88.5283 136.959 88.406 137.041 88.3029 137.144C88.1999 137.247 88.1181 137.369 88.0624 137.503C88.0066 137.638 87.9779 137.782 87.9779 137.928C87.9779 138.073 88.0066 138.217 88.0624 138.352C88.1181 138.486 88.1999 138.609 88.3029 138.711C88.406 138.814 88.5283 138.896 88.6629 138.951C88.7975 139.007 88.9417 139.035 89.0873 139.035H111.553C111.846 139.035 112.128 138.918 112.336 138.711C112.543 138.503 112.66 138.221 112.66 137.928C112.66 137.634 112.543 137.352 112.336 137.145C112.128 136.937 111.846 136.82 111.553 136.82H89.0873Z" fill="white"/>
</svg>
