<svg width="184" height="97" viewBox="0 0 184 97" fill="none" xmlns="http://www.w3.org/2000/svg">
<path d="M14.0353 96.5506C21.7792 96.5506 28.0569 90.2729 28.0569 82.529C28.0569 74.785 21.7792 68.5073 14.0353 68.5073C6.29137 68.5073 0.0136719 74.785 0.0136719 82.529C0.0136719 90.2729 6.29137 96.5506 14.0353 96.5506Z" fill="#1C3144"/>
<path d="M14.0354 89.1709C17.7036 89.1709 20.6772 86.1972 20.6772 82.5291C20.6772 78.8609 17.7036 75.8872 14.0354 75.8872C10.3672 75.8872 7.39355 78.8609 7.39355 82.5291C7.39355 86.1972 10.3672 89.1709 14.0354 89.1709Z" fill="white"/>
<path d="M145 21H14V69" stroke="#1C3144" stroke-width="2"/>
<path d="M164.188 25.8296C167.856 25.8296 170.83 22.8559 170.83 19.1877C170.83 15.5195 167.856 12.5459 164.188 12.5459C160.52 12.5459 157.546 15.5195 157.546 19.1877C157.546 22.8559 160.52 25.8296 164.188 25.8296Z" fill="url(#paint0_linear_36_372)"/>
<path d="M145 19.1875C145 15.3926 146.125 11.6829 148.234 8.5275C150.342 5.37213 153.339 2.91284 156.845 1.46058C160.351 0.00832045 164.209 -0.371666 167.931 0.36869C171.653 1.10904 175.072 2.93649 177.755 5.61991C180.439 8.30333 182.266 11.7222 183.006 15.4442C183.747 19.1662 183.367 23.0242 181.914 26.5303C180.462 30.0363 178.003 33.033 174.848 35.1414C171.692 37.2497 167.982 38.3751 164.188 38.3751C161.668 38.3751 159.173 37.8788 156.845 36.9145C154.517 35.9502 152.402 34.5369 150.62 32.7552C148.838 30.9734 147.425 28.8582 146.461 26.5303C145.496 24.2023 145 21.7073 145 19.1875ZM164.188 1.47602C159.492 1.48138 154.99 3.34914 151.669 6.66953C148.349 9.98992 146.481 14.4918 146.476 19.1875C146.476 22.6906 147.515 26.1149 149.461 29.0275C151.407 31.9402 154.173 34.2103 157.41 35.5509C160.646 36.8914 164.207 37.2422 167.643 36.5588C171.079 35.8753 174.235 34.1885 176.712 31.7115C179.189 29.2345 180.875 26.0786 181.559 22.6429C182.242 19.2071 181.891 15.6459 180.551 12.4096C179.21 9.17322 176.94 6.40705 174.028 4.46088C171.115 2.51471 167.691 1.47602 164.188 1.47602Z" fill="url(#paint1_linear_36_372)"/>
<defs>
<linearGradient id="paint0_linear_36_372" x1="164.188" y1="12.5459" x2="164.188" y2="25.8296" gradientUnits="userSpaceOnUse">
<stop stop-color="#F3397D"/>
<stop offset="1" stop-color="#FF9153"/>
</linearGradient>
<linearGradient id="paint1_linear_36_372" x1="164.188" y1="0" x2="164.188" y2="38.3751" gradientUnits="userSpaceOnUse">
<stop stop-color="#F3397D"/>
<stop offset="1" stop-color="#FF9153"/>
</linearGradient>
</defs>
</svg>
