<svg width="317" height="92" viewBox="0 0 317 92" fill="none" xmlns="http://www.w3.org/2000/svg">
<path d="M302.872 91.6644C310.616 91.6644 316.894 85.3867 316.894 77.6427C316.894 69.8988 310.616 63.6211 302.872 63.6211C295.128 63.6211 288.851 69.8988 288.851 77.6427C288.851 85.3867 295.128 91.6644 302.872 91.6644Z" fill="#1C3144"/>
<path d="M302.872 84.2846C306.54 84.2846 309.514 81.311 309.514 77.6428C309.514 73.9746 306.54 71.001 302.872 71.001C299.204 71.001 296.23 73.9746 296.23 77.6428C296.23 81.311 299.204 84.2846 302.872 84.2846Z" fill="white"/>
<path d="M38 19H303V67" stroke="#1C3144" stroke-width="2"/>
<path d="M19.1877 25.8295C22.8559 25.8295 25.8295 22.8559 25.8295 19.1877C25.8295 15.5195 22.8559 12.5459 19.1877 12.5459C15.5195 12.5459 12.5459 15.5195 12.5459 19.1877C12.5459 22.8559 15.5195 25.8295 19.1877 25.8295Z" fill="url(#paint0_linear_36_356)"/>
<path d="M0 19.1876C-3.95561e-06 15.3926 1.12532 11.6829 3.23367 8.52754C5.34202 5.37217 8.33869 2.91285 11.8448 1.46059C15.3508 0.0083257 19.2088 -0.371666 22.9308 0.368685C26.6528 1.10904 30.0717 2.93647 32.7552 5.61989C35.4386 8.30331 37.266 11.7222 38.0064 15.4442C38.7467 19.1662 38.3668 23.0242 36.9145 26.5303C35.4623 30.0363 33.0029 33.033 29.8476 35.1414C26.6922 37.2497 22.9825 38.3751 19.1876 38.3751C16.6678 38.3751 14.1727 37.8788 11.8448 36.9146C9.51685 35.9503 7.40163 34.5369 5.6199 32.7552C3.83817 30.9735 2.42482 28.8583 1.46056 26.5303C0.496291 24.2024 -1.31322e-06 21.7073 0 19.1876ZM19.1876 1.47602C15.6845 1.47601 12.2602 2.51477 9.34753 4.46094C6.43488 6.40711 4.16474 9.17327 2.82419 12.4096C1.48364 15.646 1.13288 19.2072 1.81628 22.6429C2.49969 26.0786 4.18655 29.2345 6.66356 31.7115C9.14056 34.1886 12.2965 35.8754 15.7322 36.5588C19.1679 37.2422 22.7291 36.8915 25.9654 35.5509C29.2018 34.2104 31.968 31.9402 33.9142 29.0276C35.8603 26.1149 36.8991 22.6906 36.8991 19.1876C36.8937 14.4918 35.026 9.98995 31.7056 6.66956C28.3852 3.34916 23.8833 1.4814 19.1876 1.47602Z" fill="url(#paint1_linear_36_356)"/>
<defs>
<linearGradient id="paint0_linear_36_356" x1="19.1877" y1="12.5459" x2="19.1877" y2="25.8295" gradientUnits="userSpaceOnUse">
<stop stop-color="#F3397D"/>
<stop offset="1" stop-color="#FF9153"/>
</linearGradient>
<linearGradient id="paint1_linear_36_356" x1="19.1875" y1="0" x2="19.1875" y2="38.3751" gradientUnits="userSpaceOnUse">
<stop stop-color="#F3397D"/>
<stop offset="1" stop-color="#FF9153"/>
</linearGradient>
</defs>
</svg>
