<svg width="231" height="96" viewBox="0 0 231 96" fill="none" xmlns="http://www.w3.org/2000/svg">
<path d="M216.022 28.0433C223.766 28.0433 230.043 21.7656 230.043 14.0216C230.043 6.2777 223.766 0 216.022 0C208.278 0 202 6.2777 202 14.0216C202 21.7656 208.278 28.0433 216.022 28.0433Z" fill="#1C3144"/>
<path d="M215.642 21.2837C219.31 21.2837 222.284 18.31 222.284 14.6418C222.284 10.9736 219.31 8 215.642 8C211.974 8 209 10.9736 209 14.6418C209 18.31 211.974 21.2837 215.642 21.2837Z" fill="white"/>
<path d="M38 76H216V28" stroke="#1C3144" stroke-width="2"/>
<path d="M19.1877 82.8291C22.8559 82.8291 25.8296 79.8554 25.8296 76.1873C25.8296 72.5191 22.8559 69.5454 19.1877 69.5454C15.5195 69.5454 12.5459 72.5191 12.5459 76.1873C12.5459 79.8554 15.5195 82.8291 19.1877 82.8291Z" fill="url(#paint0_linear_36_364)"/>
<path d="M0 76.1875C0 72.3926 1.12532 68.6829 3.23367 65.5275C5.34202 62.3721 8.3387 59.9128 11.8448 58.4606C15.3508 57.0083 19.2088 56.6283 22.9308 57.3687C26.6528 58.109 30.0717 59.9365 32.7551 62.6199C35.4385 65.3033 37.266 68.7222 38.0063 72.4442C38.7467 76.1662 38.3667 80.0242 36.9145 83.5303C35.4622 87.0363 33.0029 90.033 29.8475 92.1414C26.6922 94.2497 22.9824 95.375 19.1875 95.375C14.0987 95.375 9.21826 93.3535 5.6199 89.7551C2.02155 86.1568 5.30432e-06 81.2764 0 76.1875ZM19.1875 58.476C15.6845 58.476 12.2602 59.5147 9.3475 61.4609C6.43485 63.4071 4.16471 66.1732 2.82416 69.4096C1.48361 72.6459 1.13285 76.2072 1.81625 79.6429C2.49965 83.0786 4.18651 86.2345 6.66351 88.7115C9.14052 91.1885 12.2964 92.8753 15.7321 93.5588C19.1678 94.2422 22.729 93.8914 25.9654 92.5508C29.2018 91.2103 31.9679 88.9402 33.9141 86.0275C35.8603 83.1149 36.899 79.6905 36.899 76.1875C36.8937 71.4918 35.0259 66.9899 31.7055 63.6695C28.3851 60.3491 23.8832 58.4813 19.1875 58.476Z" fill="url(#paint1_linear_36_364)"/>
<defs>
<linearGradient id="paint0_linear_36_364" x1="19.1877" y1="69.5454" x2="19.1877" y2="82.8291" gradientUnits="userSpaceOnUse">
<stop stop-color="#F3397D"/>
<stop offset="1" stop-color="#FF9153"/>
</linearGradient>
<linearGradient id="paint1_linear_36_364" x1="19.1875" y1="57" x2="19.1875" y2="95.375" gradientUnits="userSpaceOnUse">
<stop stop-color="#F3397D"/>
<stop offset="1" stop-color="#FF9153"/>
</linearGradient>
</defs>
</svg>
