<svg width="1440" height="245" viewBox="0 0 1440 245" fill="none" xmlns="http://www.w3.org/2000/svg">
<path d="M-136 182.272C-136 182.272 -11.0485 70.1258 573.619 158.874C1158.29 247.622 1471.33 88.7416 1536.74 4.62793" stroke="white" stroke-opacity="0.02" stroke-width="1.32107" stroke-miterlimit="10"/>
<path d="M-133.648 184.992C-133.648 184.992 -44.308 103.612 345.797 124.97C413.297 128.584 489.676 136.513 575.566 149.248C923.649 200.936 1183.39 180.443 1338.63 127.852C1445.76 91.9676 1514.52 41.9543 1539.16 10.2686" stroke="white" stroke-opacity="0.02" stroke-width="1.32107" stroke-miterlimit="10"/>
<path d="M-131.288 187.703C-131.288 187.703 -43.5054 106.518 347.192 118.186C415.019 120.055 491.733 127.206 577.521 139.629C923.985 189.923 1190.76 183.949 1340.93 134.379C1447.24 99.2897 1518.59 45.4909 1541.59 15.916" stroke="white" stroke-opacity="0.02" stroke-width="1.32107" stroke-miterlimit="10"/>
<path d="M-128.927 190.412C-128.927 190.412 -42.7027 109.429 348.594 111.392C416.748 111.517 493.797 117.888 579.477 129.992C924.32 178.9 1198.24 187.733 1343.24 140.882C1448.79 106.773 1522.67 48.9944 1544.03 21.5303" stroke="white" stroke-opacity="0.02" stroke-width="1.32107" stroke-miterlimit="10"/>
<path d="M-126.567 193.123C-126.567 193.123 -41.9008 112.343 349.988 104.601C418.477 102.981 495.845 108.573 581.423 120.366C924.647 167.879 1205.72 191.557 1345.53 147.401C1450.34 114.29 1526.74 52.5232 1546.45 27.1699" stroke="white" stroke-opacity="0.02" stroke-width="1.32107" stroke-miterlimit="10"/>
<path d="M-124.207 195.844C-124.207 195.844 -41.0515 116.124 351.39 97.8196C420.214 94.6106 497.91 99.2683 583.386 110.749C924.99 156.868 1213.23 195.432 1347.83 153.924C1451.91 121.833 1530.82 56.0549 1548.89 32.8125" stroke="white" stroke-opacity="0.02" stroke-width="1.32107" stroke-miterlimit="10"/>
<path d="M-121.848 198.55C-121.848 198.55 -40.2265 119.095 352.784 91.0232C421.943 86.0849 499.966 89.9404 585.333 101.11C925.316 145.834 1220.74 199.314 1350.12 160.431C1453.47 129.376 1534.88 59.5633 1551.31 38.4395" stroke="white" stroke-opacity="0.02" stroke-width="1.32107" stroke-miterlimit="10"/>
<path d="M-119.495 201.262C-119.495 201.262 -39.4082 122.048 354.179 84.2323C423.673 77.5571 502.022 80.6261 587.289 91.484C925.652 134.822 1228.27 203.241 1352.42 166.952C1455.05 136.949 1538.95 63.0931 1553.74 44.0801" stroke="white" stroke-opacity="0.02" stroke-width="1.32107" stroke-miterlimit="10"/>
<path d="M-117.135 203.983C-117.135 203.983 -38.5751 124.971 355.573 77.4505C425.393 69.0305 504.07 71.3206 589.236 81.8592C925.978 123.803 1235.8 207.208 1354.72 173.466C1456.63 144.545 1543.02 66.616 1556.17 49.7139" stroke="white" stroke-opacity="0.02" stroke-width="1.32107" stroke-miterlimit="10"/>
<path d="M-114.775 206.692C-114.775 206.692 -37.7568 127.852 356.975 70.6647C427.131 60.5001 506.135 62.0111 591.199 72.2381C926.322 112.788 1243.37 211.218 1357.02 179.991C1458.23 152.177 1547.11 70.1429 1558.61 55.3594" stroke="white" stroke-opacity="0.02" stroke-width="1.32107" stroke-miterlimit="10"/>
<path d="M-112.415 209.407C-112.415 209.407 -36.9395 130.715 358.369 63.877C428.86 51.9598 508.191 52.6996 593.146 62.6151C926.648 101.77 1250.92 215.264 1359.31 186.507C1459.83 159.838 1551.17 73.6678 1561.02 60.9951" stroke="white" stroke-opacity="0.02" stroke-width="1.32107" stroke-miterlimit="10"/>
<path d="M-110.055 212.117C-110.055 212.117 -36.129 133.541 359.771 57.0844C430.589 43.4068 510.255 43.3835 595.109 52.9795C926.991 90.7485 1258.5 219.345 1361.62 193.018C1461.45 167.533 1555.25 77.1878 1563.46 66.6259" stroke="white" stroke-opacity="0.02" stroke-width="1.32107" stroke-miterlimit="10"/>
<path d="M-107.702 214.835C-107.702 214.835 -35.4904 135.652 361.158 50.3C432.279 34.7376 512.304 34.0754 597.048 43.3599C927.31 79.7346 1266.07 223.481 1363.9 199.538C1463.06 175.275 1559.31 80.7161 1565.88 72.265" stroke="white" stroke-opacity="0.02" stroke-width="1.32107" stroke-miterlimit="10"/>
<path d="M-105.342 217.54C-105.342 217.54 -34.6882 138.551 362.56 43.502C434.008 26.1948 514.36 24.7538 599.011 33.7268C927.653 68.7073 1273.67 227.642 1366.21 206.051C1464.71 183.066 1563.4 84.2308 1568.32 77.8983" stroke="white" stroke-opacity="0.02" stroke-width="1.32107" stroke-miterlimit="10"/>
<path d="M-102.982 220.25C-102.982 220.25 -33.8857 141.464 363.954 36.7096C435.73 17.6577 516.416 15.4378 600.958 24.0914C927.98 57.6777 1281.27 231.848 1368.5 212.555C1466.35 190.917 1567.46 87.7434 1570.75 83.5217" stroke="white" stroke-opacity="0.02" stroke-width="1.32107" stroke-miterlimit="10"/>
<path d="M-100.622 222.969C-100.622 222.969 -33.0836 144.385 365.356 29.9334C437.467 9.13671 518.48 6.13806 602.921 14.4801C928.323 46.6799 1288.88 236.132 1370.81 219.09C1468.02 198.877 1571.54 91.2875 1573.18 89.1689" stroke="white" stroke-opacity="0.02" stroke-width="1.32107" stroke-miterlimit="10"/>
<path d="M-98.2621 225.682C-98.2621 225.682 -32.2813 147.293 366.75 23.1441C717.287 -85.9178 1276.52 244.305 1373.1 225.604C1469.68 206.903 1575.61 94.8031 1575.61 94.8031" stroke="white" stroke-opacity="0.02" stroke-width="1.32107" stroke-miterlimit="10"/>
<path d="M-92.5608 226.851C-91.1042 226.041 -15.5819 153.214 369.359 34.8284C407.339 23.2929 447.522 16.3918 488.991 13.5566C820.445 -9.12506 1269.5 231.883 1365.05 213.789C1462.84 195.056 1567.23 89.1725 1567.23 89.1725" stroke="white" stroke-opacity="0.02" stroke-width="1.32107" stroke-miterlimit="10"/>
<path d="M-86.8588 228.018C-83.9535 226.398 0.736537 157.893 371.977 46.5104C409.722 35.1852 449.462 28.1907 490.144 24.9816C807.266 -0.0211091 1251.96 221.483 1356.99 201.972C1455.98 183.208 1558.86 83.5317 1558.86 83.5317" stroke="white" stroke-opacity="0.02" stroke-width="1.32107" stroke-miterlimit="10"/>
<path d="M-81.1577 229.186C-76.7959 226.756 17.2877 163.307 374.586 58.194C412.121 47.1492 451.393 39.9989 491.289 36.416C794.079 9.2089 1234.46 211.365 1348.94 190.156C1449.17 171.587 1550.49 77.9003 1550.49 77.9003" stroke="white" stroke-opacity="0.02" stroke-width="1.32107" stroke-miterlimit="10"/>
<path d="M-75.4558 230.359C-69.6374 227.119 33.8631 168.81 377.195 69.882C414.52 59.1254 453.325 51.8271 492.434 47.8547C780.877 18.5601 1216.93 201.041 1340.88 178.344C1442.34 159.775 1542.12 72.2655 1542.12 72.2655" stroke="white" stroke-opacity="0.02" stroke-width="1.32107" stroke-miterlimit="10"/>
<path d="M-69.7542 231.522C-62.4792 227.472 50.4772 174.39 379.813 81.56C416.927 71.0994 455.265 63.6532 493.579 59.2836C767.675 28.0262 1199.4 190.692 1332.82 166.531C1435.48 147.938 1533.74 66.6285 1533.74 66.6285" stroke="white" stroke-opacity="0.02" stroke-width="1.32107" stroke-miterlimit="10"/>
<path d="M-64.0532 232.689C-55.3295 227.829 67.1139 180.059 382.421 93.2425C419.333 83.0779 457.188 75.4914 494.723 70.709C754.464 37.6368 1181.86 180.324 1324.77 154.706C1428.63 136.09 1525.37 60.9883 1525.37 60.9883" stroke="white" stroke-opacity="0.02" stroke-width="1.32107" stroke-miterlimit="10"/>
<path d="M-58.3508 233.863C-48.1706 228.193 83.7832 185.821 385.031 104.932C421.741 95.0784 459.113 87.3517 495.869 82.1487C741.262 47.4018 1164.32 169.954 1316.71 142.895C1421.78 124.241 1516.99 55.3545 1516.99 55.3545" stroke="white" stroke-opacity="0.02" stroke-width="1.32107" stroke-miterlimit="10"/>
<path d="M-52.6501 235.027C-41.0133 228.547 100.474 191.658 387.64 116.611C424.147 107.069 461.036 99.2256 497.013 93.5786C728.059 57.3129 1146.77 159.567 1308.65 131.083C1414.92 112.381 1508.62 49.7266 1508.62 49.7266" stroke="white" stroke-opacity="0.02" stroke-width="1.32107" stroke-miterlimit="10"/>
<path d="M-46.9478 236.196C-33.8545 228.906 117.198 197.602 390.258 128.295C426.57 119.08 462.976 111.12 498.167 105.006C714.889 67.3848 1129.24 149.17 1300.61 119.26C1408.07 100.504 1500.26 44.0801 1500.26 44.0801" stroke="white" stroke-opacity="0.02" stroke-width="1.32107" stroke-miterlimit="10"/>
<path d="M-41.2468 237.368C-26.7047 229.268 133.944 203.642 392.867 139.99C428.984 131.11 464.899 123.049 499.303 116.451C701.717 77.6464 1111.68 138.767 1292.55 107.455C1401.21 88.6445 1491.87 38.4521 1491.87 38.4521" stroke="white" stroke-opacity="0.02" stroke-width="1.32107" stroke-miterlimit="10"/>
<path d="M-35.545 238.526C-19.5464 229.616 150.714 209.762 395.476 151.663C431.399 143.134 466.831 134.987 500.449 127.876C688.585 88.0659 1094.08 128 1284.48 95.6369C1394.32 76.5694 1483.49 32.8184 1483.49 32.8184" stroke="white" stroke-opacity="0.02" stroke-width="1.32107" stroke-miterlimit="10"/>
<path d="M-29.8433 239.693C-12.3881 229.973 167.507 215.999 398.093 163.345C433.829 155.183 468.787 146.973 501.602 139.309C675.507 98.6889 1076.55 117.608 1276.44 83.8197C1387.48 64.7132 1475.13 27.1777 1475.13 27.1777" stroke="white" stroke-opacity="0.02" stroke-width="1.32107" stroke-miterlimit="10"/>
<path d="M-24.1419 240.866C-5.23795 230.336 184.316 222.344 400.702 175.033C436.252 167.26 470.741 159.004 502.746 150.74C662.476 109.512 1059 107.222 1268.38 72.0081C1380.62 52.8705 1466.75 21.5508 1466.75 21.5508" stroke="white" stroke-opacity="0.02" stroke-width="1.32107" stroke-miterlimit="10"/>
<path d="M-18.4407 242.033C1.91983 230.692 201.147 228.784 403.311 186.716C438.681 179.355 472.712 171.083 503.883 162.172C649.53 120.532 1041.45 96.8304 1260.32 60.1908C1373.77 41.0142 1458.38 15.9102 1458.38 15.9102" stroke="white" stroke-opacity="0.02" stroke-width="1.32107" stroke-miterlimit="10"/>
<path d="M-12.7386 243.199C9.0784 231.048 217.988 235.34 405.929 198.397C441.128 191.48 474.722 183.232 505.037 173.604C636.702 131.769 1023.92 86.4453 1252.27 48.3726C1366.91 29.1648 1450.01 10.2686 1450.01 10.2686" stroke="white" stroke-opacity="0.02" stroke-width="1.32107" stroke-miterlimit="10"/>
<path d="M-7.03711 244.366C20.9255 228.788 330.929 247.24 506.182 185.03C681.435 122.819 1441.64 4.62793 1441.64 4.62793" stroke="white" stroke-opacity="0.02" stroke-width="1.32107" stroke-miterlimit="10"/>
</svg>
