<svg width="96" height="40" viewBox="0 0 96 40" fill="none" xmlns="http://www.w3.org/2000/svg">
<path d="M16.5 11.6665H23.5C26.1667 11.6665 28.3334 13.8332 28.3334 16.4998V23.4998C28.3334 24.7817 27.8241 26.0111 26.9177 26.9175C26.0113 27.8239 24.7819 28.3332 23.5 28.3332H16.5C13.8334 28.3332 11.6667 26.1665 11.6667 23.4998V16.4998C11.6667 15.218 12.1759 13.9886 13.0823 13.0822C13.9888 12.1757 15.2181 11.6665 16.5 11.6665M16.3334 13.3332C15.5377 13.3332 14.7746 13.6492 14.212 14.2119C13.6494 14.7745 13.3334 15.5375 13.3334 16.3332V23.6665C13.3334 25.3248 14.675 26.6665 16.3334 26.6665H23.6667C24.4623 26.6665 25.2254 26.3504 25.788 25.7878C26.3506 25.2252 26.6667 24.4622 26.6667 23.6665V16.3332C26.6667 14.6748 25.325 13.3332 23.6667 13.3332H16.3334ZM24.375 14.5832C24.6513 14.5832 24.9162 14.6929 25.1116 14.8883C25.3069 15.0836 25.4167 15.3486 25.4167 15.6248C25.4167 15.9011 25.3069 16.1661 25.1116 16.3614C24.9162 16.5568 24.6513 16.6665 24.375 16.6665C24.0988 16.6665 23.8338 16.5568 23.6384 16.3614C23.4431 16.1661 23.3334 15.9011 23.3334 15.6248C23.3334 15.3486 23.4431 15.0836 23.6384 14.8883C23.8338 14.6929 24.0988 14.5832 24.375 14.5832ZM20 15.8332C21.1051 15.8332 22.1649 16.2722 22.9463 17.0536C23.7277 17.835 24.1667 18.8948 24.1667 19.9998C24.1667 21.1049 23.7277 22.1647 22.9463 22.9461C22.1649 23.7275 21.1051 24.1665 20 24.1665C18.895 24.1665 17.8351 23.7275 17.0537 22.9461C16.2723 22.1647 15.8334 21.1049 15.8334 19.9998C15.8334 18.8948 16.2723 17.835 17.0537 17.0536C17.8351 16.2722 18.895 15.8332 20 15.8332M20 17.4998C19.337 17.4998 18.7011 17.7632 18.2323 18.2321C17.7634 18.7009 17.5 19.3368 17.5 19.9998C17.5 20.6629 17.7634 21.2988 18.2323 21.7676C18.7011 22.2364 19.337 22.4998 20 22.4998C20.6631 22.4998 21.2989 22.2364 21.7678 21.7676C22.2366 21.2988 22.5 20.6629 22.5 19.9998C22.5 19.3368 22.2366 18.7009 21.7678 18.2321C21.2989 17.7632 20.6631 17.4998 20 17.4998Z" fill="#84939E"/>
<rect x="0.5" y="0.5" width="39" height="39" rx="19.5" stroke="#84939E"/>
<path d="M71.7833 14.1665C71.7831 14.6086 71.6073 15.0324 71.2946 15.3448C70.9819 15.6572 70.5579 15.8326 70.1158 15.8324C69.6738 15.8321 69.25 15.6563 68.9376 15.3436C68.6252 15.0309 68.4498 14.6069 68.45 14.1649C68.4502 13.7228 68.626 13.299 68.9388 12.9866C69.2515 12.6742 69.6755 12.4988 70.1175 12.499C70.5595 12.4992 70.9834 12.6751 71.2958 12.9878C71.6082 13.3005 71.7836 13.7245 71.7833 14.1665ZM71.8333 17.0665H68.5V27.4999H71.8333V17.0665ZM77.1 17.0665H73.7833V27.4999H77.0667V22.0249C77.0667 18.9749 81.0417 18.6915 81.0417 22.0249V27.4999H84.3333V20.8915C84.3333 15.7499 78.45 15.9415 77.0667 18.4665L77.1 17.0665Z" fill="#84939E"/>
<rect x="56.5" y="0.5" width="39" height="39" rx="19.5" stroke="#84939E"/>
</svg>
