<svg width="130" height="101" viewBox="0 0 130 101" fill="none" xmlns="http://www.w3.org/2000/svg">
<path d="M104.496 30.4495C104.467 30.4495 104.438 30.4405 104.414 30.4237L64.822 2.64561C64.7015 2.56147 64.5583 2.51651 64.4117 2.51676C64.2651 2.51701 64.1221 2.56247 64.0019 2.64702L24.6946 30.4234C24.6635 30.4452 24.6251 30.4537 24.5878 30.447C24.5505 30.4404 24.5174 30.4191 24.4956 30.3878C24.4738 30.3566 24.4653 30.3179 24.4718 30.2803C24.4782 30.2427 24.4992 30.2092 24.5302 30.1872L63.8375 2.41084C64.0058 2.29248 64.206 2.22886 64.4113 2.22852C64.6165 2.22818 64.8169 2.29114 64.9856 2.40894L104.578 30.1869C104.603 30.2045 104.622 30.2296 104.632 30.2587C104.642 30.2877 104.642 30.3192 104.633 30.3485C104.624 30.3778 104.605 30.4034 104.581 30.4216C104.556 30.4397 104.527 30.4495 104.496 30.4495Z" fill="#111F2B"/>
<path d="M48.5569 68.073H30.0261C29.7965 68.0733 29.5761 67.9817 29.4135 67.8184C29.2509 67.6551 29.1594 67.4334 29.159 67.2021C29.1587 66.9708 29.2496 66.7488 29.4117 66.585C29.5738 66.4212 29.7939 66.329 30.0235 66.3286H48.5569C48.7865 66.3283 49.0068 66.4198 49.1694 66.5832C49.332 66.7465 49.4236 66.9682 49.4239 67.1995C49.4243 67.4308 49.3334 67.6528 49.1713 67.8166C49.0091 67.9804 48.7891 68.0726 48.5594 68.073H48.5569Z" fill="url(#paint0_linear_48_287)"/>
<path d="M36.6745 64.323H30.0261C29.7966 64.3231 29.5764 64.2315 29.4139 64.0682C29.2515 63.9049 29.16 63.6833 29.1597 63.4521C29.1593 63.2209 29.2501 62.999 29.4121 62.8352C29.5741 62.6714 29.794 62.5791 30.0235 62.5786H36.6745C36.7883 62.5784 36.901 62.6007 37.0061 62.6443C37.1113 62.688 37.2069 62.7521 37.2875 62.8329C37.368 62.9138 37.432 63.0099 37.4757 63.1157C37.5194 63.2215 37.542 63.3349 37.5422 63.4495C37.5423 63.5641 37.5201 63.6776 37.4767 63.7835C37.4333 63.8894 37.3696 63.9857 37.2893 64.0668C37.2089 64.1479 37.1135 64.2123 37.0085 64.2563C36.9035 64.3002 36.7908 64.3229 36.6771 64.323H36.6745Z" fill="url(#paint1_linear_48_287)"/>
<path d="M64.9781 47.033C64.8373 47.0331 64.6977 47.0056 64.5674 46.9519L41.4339 37.2819V7.01298C41.4342 6.74533 41.5399 6.48872 41.7277 6.29946C41.9156 6.1102 42.1703 6.00373 42.436 6.00342H86.8159C87.0816 6.00373 87.3363 6.1102 87.5242 6.29946C87.712 6.48872 87.8177 6.74532 87.818 7.01298V37.303L87.7745 37.3217L65.4013 46.9472C65.2673 47.0039 65.1234 47.0331 64.9781 47.033Z" fill="white"/>
<path d="M64.9781 47.1053C64.8279 47.1055 64.6791 47.0762 64.5401 47.019L41.3622 37.3304V7.01332C41.3626 6.72654 41.4758 6.4516 41.6771 6.24881C41.8784 6.04603 42.1513 5.93196 42.436 5.93164H86.8159C87.1005 5.93196 87.3735 6.04603 87.5747 6.24881C87.776 6.4516 87.8893 6.72654 87.8896 7.01332V37.3509L65.4294 47.0138C65.2865 47.0744 65.1331 47.1055 64.9781 47.1053ZM41.6486 37.1377L64.6493 46.7523C64.8638 46.84 65.1041 46.8386 65.3175 46.7483L87.6033 37.1605V7.01332C87.603 6.80302 87.52 6.60141 87.3724 6.4527C87.2248 6.304 87.0246 6.22035 86.8159 6.2201H42.436C42.2272 6.22035 42.0271 6.304 41.8795 6.4527C41.7319 6.60141 41.6488 6.80302 41.6486 7.01332L41.6486 37.1377Z" fill="#3F3D56"/>
<path d="M104.21 30.1611H104.181L87.7464 37.231L65.2602 46.9041C65.1723 46.9413 65.078 46.9608 64.9827 46.9613C64.8874 46.9617 64.7929 46.9433 64.7047 46.907L41.5055 37.2108L24.6668 30.1727L24.6411 30.1611H24.6124C24.3467 30.1614 24.092 30.2679 23.9042 30.4572C23.7163 30.6464 23.6106 30.903 23.6103 31.1707V75.0148C23.6106 75.2825 23.7163 75.5391 23.9042 75.7284C24.092 75.9176 24.3467 76.0241 24.6124 76.0244H104.21C104.476 76.0241 104.73 75.9176 104.918 75.7284C105.106 75.5391 105.212 75.2825 105.212 75.0148V31.1707C105.212 30.903 105.106 30.6464 104.918 30.4572C104.73 30.2679 104.476 30.1614 104.21 30.1611ZM104.926 75.0148C104.926 75.206 104.85 75.3894 104.716 75.5246C104.582 75.6599 104.4 75.7359 104.21 75.7359H24.6124C24.4226 75.7359 24.2406 75.6599 24.1064 75.5246C23.9721 75.3894 23.8967 75.206 23.8966 75.0148V31.1707C23.8969 30.9842 23.9687 30.8051 24.097 30.6707C24.2254 30.5363 24.4003 30.4571 24.5852 30.4496L41.5055 37.5223L64.5945 47.1738C64.8444 47.2762 65.1245 47.2747 65.3733 47.1695L87.7464 37.544L104.239 30.4496C104.423 30.4576 104.598 30.5371 104.726 30.6714C104.854 30.8057 104.925 30.9845 104.926 31.1707V75.0148Z" fill="#111F2B"/>
<path d="M61.3766 17.3183H45.6289C45.3254 17.3179 45.0346 17.1961 44.8201 16.9798C44.6057 16.7635 44.4852 16.4703 44.4852 16.1645C44.4852 15.8588 44.6057 15.5656 44.8201 15.3493C45.0346 15.1329 45.3254 15.0112 45.6289 15.0107H61.3766C61.6801 15.0112 61.971 15.1329 62.1854 15.3493C62.3999 15.5656 62.5203 15.8588 62.5203 16.1645C62.5203 16.4703 62.3999 16.7635 62.1854 16.9798C61.971 17.1961 61.6801 17.3179 61.3766 17.3183Z" fill="url(#paint2_linear_48_287)"/>
<path d="M53.2164 12.4145H45.6289C45.3251 12.4145 45.0338 12.293 44.8191 12.0766C44.6043 11.8602 44.4836 11.5667 44.4836 11.2607C44.4836 10.9547 44.6043 10.6612 44.8191 10.4449C45.0338 10.2285 45.3251 10.1069 45.6289 10.1069H53.2164C53.5202 10.1069 53.8115 10.2285 54.0263 10.4449C54.2411 10.6612 54.3617 10.9547 54.3617 11.2607C54.3617 11.5667 54.2411 11.8602 54.0263 12.0766C53.8115 12.293 53.5202 12.4145 53.2164 12.4145Z" fill="url(#paint3_linear_48_287)"/>
<path d="M76.404 28.8559H52.3529C52.0495 28.8555 51.7586 28.7337 51.5442 28.5174C51.3297 28.3011 51.2093 28.0079 51.2093 27.7021C51.2093 27.3964 51.3297 27.1032 51.5442 26.8869C51.7586 26.6705 52.0495 26.5488 52.3529 26.5483H76.404C76.7075 26.5488 76.9984 26.6705 77.2128 26.8869C77.4272 27.1032 77.5477 27.3964 77.5477 27.7021C77.5477 28.0079 77.4272 28.3011 77.2128 28.5174C76.9984 28.7337 76.7075 28.8555 76.404 28.8559Z" fill="#CCCCCC"/>
<path d="M76.404 34.1923H52.3529C52.0492 34.1923 51.7579 34.0708 51.5431 33.8544C51.3283 33.638 51.2077 33.3446 51.2077 33.0386C51.2077 32.7326 51.3283 32.4391 51.5431 32.2227C51.7579 32.0063 52.0492 31.8848 52.3529 31.8848H76.404C76.7078 31.8848 76.9991 32.0063 77.2138 32.2227C77.4286 32.4391 77.5493 32.7326 77.5493 33.0386C77.5493 33.3446 77.4286 33.638 77.2138 33.8544C76.9991 34.0708 76.7078 34.1923 76.404 34.1923Z" fill="#CCCCCC"/>
<path d="M103.766 41.55C109.781 41.55 114.656 36.6381 114.656 30.579C114.656 24.5198 109.781 19.6079 103.766 19.6079C97.7516 19.6079 92.8758 24.5198 92.8758 30.579C92.8758 36.6381 97.7516 41.55 103.766 41.55Z" fill="url(#paint4_linear_48_287)"/>
<path d="M102.728 35.2105L99.469 30.9883L101.364 29.503L102.908 31.5022L108.121 25.9575L109.865 27.6215L102.728 35.2105Z" fill="white"/>
<path d="M2.49565 11.4497C2.42131 11.4054 2.3361 11.3831 2.24977 11.3854C2.16345 11.3877 2.07951 11.4144 2.00757 11.4626C1.93564 11.5107 1.87862 11.5782 1.84305 11.6575C1.80749 11.7368 1.79482 11.8246 1.80649 11.9108L2.1614 14.5332C2.16628 14.5719 2.16366 14.6111 2.15368 14.6488C2.14255 14.6859 2.12398 14.7202 2.09912 14.7498L0.111323 17.1222C0.0449172 17.1985 0.00592696 17.2952 0.000622854 17.3966C-0.00468125 17.4979 0.0240118 17.5982 0.082082 17.6811L0.0841657 17.6842C0.139794 17.768 0.221675 17.8307 0.316771 17.8623C0.411867 17.8939 0.514709 17.8925 0.608925 17.8583L2.04447 17.3675C2.09206 17.3516 2.14303 17.3491 2.19193 17.3602C2.24083 17.3713 2.28582 17.3955 2.32209 17.4304C2.34914 17.4556 2.37071 17.4862 2.38544 17.5203C2.40018 17.5544 2.40775 17.5911 2.4077 17.6283L2.46381 22.781C2.46439 22.8556 2.483 22.929 2.51801 22.9947C2.55303 23.0604 2.6034 23.1166 2.66477 23.1583C2.72593 23.1999 2.79611 23.2261 2.86942 23.2347C2.94273 23.2433 3.01702 23.2341 3.08604 23.2077L13.8005 19.0796C13.8813 19.0486 13.9518 18.9953 14.0039 18.9258C14.0559 18.8563 14.0874 18.7734 14.0948 18.6866C14.1022 18.5998 14.0851 18.5127 14.0455 18.4353C14.0059 18.3579 13.9454 18.2933 13.871 18.249L13.7251 18.1617L2.49565 11.4497ZM1.98788 11.8856C1.98099 11.8338 1.9887 11.7811 2.01014 11.7336C2.03158 11.686 2.06588 11.6455 2.1091 11.6167C2.15233 11.5879 2.20274 11.5719 2.25456 11.5706C2.30638 11.5693 2.35752 11.5827 2.40212 11.6093L13.628 18.3194L13.7775 18.4086C13.8219 18.4354 13.8579 18.4741 13.8815 18.5205C13.9051 18.5669 13.9153 18.619 13.9109 18.6709C13.9065 18.7228 13.8878 18.7725 13.8568 18.8142C13.8257 18.8559 13.7837 18.888 13.7355 18.9068L3.02098 23.0349C2.97954 23.0508 2.93491 23.0564 2.89088 23.0511C2.84684 23.0459 2.80471 23.0301 2.76806 23.0049C2.73141 22.9798 2.70132 22.9461 2.68035 22.9068C2.65938 22.8674 2.64816 22.8235 2.64763 22.7789L2.59153 17.6261C2.59156 17.5751 2.58287 17.5245 2.56583 17.4765L13.4742 18.7392C13.5167 18.7445 13.5598 18.7347 13.5959 18.7115C13.632 18.6883 13.659 18.653 13.6721 18.6119C13.6851 18.5708 13.6835 18.5263 13.6675 18.4863C13.6515 18.4462 13.6221 18.413 13.5844 18.3925C13.5753 18.3874 13.5657 18.3831 13.5557 18.3799L2.34607 14.6103C2.34879 14.5762 2.34769 14.5419 2.34279 14.508L1.98788 11.8856Z" fill="#F1F1F1"/>
<path d="M2.49565 11.4497C2.42131 11.4054 2.3361 11.3831 2.24977 11.3854C2.16345 11.3877 2.07951 11.4144 2.00757 11.4626C1.93564 11.5107 1.87862 11.5782 1.84305 11.6575C1.80749 11.7368 1.79482 11.8246 1.80649 11.9108L2.1614 14.5332C2.16628 14.5719 2.16366 14.6111 2.15368 14.6488C2.14255 14.6859 2.12398 14.7202 2.09912 14.7498L0.111323 17.1222C0.0449172 17.1985 0.00592696 17.2952 0.000622854 17.3966C-0.00468125 17.4979 0.0240118 17.5982 0.082082 17.6811L0.0841657 17.6842C0.139794 17.768 0.221675 17.8307 0.316771 17.8623C0.411867 17.8939 0.514709 17.8925 0.608925 17.8583L2.04447 17.3675C2.09206 17.3516 2.14303 17.3491 2.19193 17.3602C2.24083 17.3713 2.28582 17.3955 2.32209 17.4304C2.34914 17.4556 2.37071 17.4862 2.38544 17.5203C2.40018 17.5544 2.40775 17.5911 2.4077 17.6283L2.46381 22.781C2.46439 22.8556 2.483 22.929 2.51801 22.9947C2.55303 23.0604 2.6034 23.1166 2.66477 23.1583C2.72593 23.1999 2.79611 23.2261 2.86942 23.2347C2.94273 23.2433 3.01702 23.2341 3.08604 23.2077L13.8005 19.0796C13.8813 19.0486 13.9518 18.9953 14.0039 18.9258C14.0559 18.8563 14.0874 18.7734 14.0948 18.6866C14.1022 18.5998 14.0851 18.5127 14.0455 18.4353C14.0059 18.3579 13.9454 18.2933 13.871 18.249L13.7251 18.1617L2.49565 11.4497ZM1.98788 11.8856C1.98099 11.8338 1.9887 11.7811 2.01014 11.7336C2.03158 11.686 2.06588 11.6455 2.1091 11.6167C2.15233 11.5879 2.20274 11.5719 2.25456 11.5706C2.30638 11.5693 2.35752 11.5827 2.40212 11.6093L13.628 18.3194L13.7775 18.4086C13.8219 18.4354 13.8579 18.4741 13.8815 18.5205C13.9051 18.5669 13.9153 18.619 13.9109 18.6709C13.9065 18.7228 13.8878 18.7725 13.8568 18.8142C13.8257 18.8559 13.7837 18.888 13.7355 18.9068L3.02098 23.0349C2.97954 23.0508 2.93491 23.0564 2.89088 23.0511C2.84684 23.0459 2.80471 23.0301 2.76806 23.0049C2.73141 22.9798 2.70132 22.9461 2.68036 22.9068C2.65939 22.8674 2.64816 22.8235 2.64763 22.7789L2.59152 17.6261C2.59156 17.5751 2.58286 17.5245 2.56582 17.4765C2.54182 17.4074 2.50142 17.3452 2.44814 17.2953C2.44089 17.288 2.43289 17.2813 2.42487 17.2744L2.42436 17.2737C2.36417 17.2236 2.29229 17.1899 2.21552 17.1757C2.13876 17.1615 2.05966 17.1673 1.98574 17.1925L0.549453 17.6839C0.492841 17.7046 0.430943 17.7054 0.373808 17.6862C0.316673 17.6671 0.267645 17.629 0.234673 17.5782L0.233628 17.5767C0.198384 17.5271 0.180937 17.4669 0.18416 17.406C0.187383 17.3451 0.211085 17.2871 0.251364 17.2416L2.23919 14.8692C2.26044 14.8444 2.27885 14.8172 2.29407 14.7882L2.29483 14.7877C2.30952 14.7599 2.32124 14.7307 2.32979 14.7004C2.33839 14.6711 2.34385 14.6409 2.34608 14.6103C2.3488 14.5762 2.3477 14.5419 2.3428 14.508L1.98788 11.8856Z" fill="#111F2B"/>
<path d="M2.34611 14.6101L13.5557 18.3797C13.5657 18.3829 13.5753 18.3872 13.5845 18.3923C13.6222 18.4128 13.6516 18.446 13.6676 18.4861C13.6836 18.5261 13.6852 18.5706 13.6721 18.6117C13.659 18.6528 13.6321 18.6881 13.5959 18.7113C13.5598 18.7345 13.5168 18.7443 13.4742 18.739L2.56585 17.4763L2.37322 17.4542L2.39455 17.2707L2.42439 17.2735L2.42489 17.2742L13.495 18.5547L2.29486 14.7875L2.2941 14.788L2.24569 14.7712L2.30383 14.5957L2.34611 14.6101Z" fill="#84939E"/>
<path d="M127.504 0.564429L116.275 7.27647L116.129 7.36376C116.055 7.40808 115.994 7.47267 115.955 7.55008C115.915 7.62749 115.898 7.71459 115.905 7.80136C115.913 7.88813 115.944 7.97104 115.996 8.04056C116.048 8.11009 116.119 8.16339 116.199 8.19436L126.914 12.3225C126.983 12.3488 127.057 12.3581 127.131 12.3495C127.204 12.3409 127.274 12.3147 127.335 12.273C127.397 12.2313 127.447 12.1752 127.482 12.1094C127.517 12.0437 127.536 11.9704 127.536 11.8958L127.592 6.743C127.592 6.70585 127.6 6.6691 127.615 6.63505C127.629 6.601 127.651 6.57038 127.678 6.54514C127.714 6.51028 127.759 6.486 127.808 6.47492C127.857 6.46384 127.908 6.46636 127.956 6.48222L129.391 6.97309C129.485 7.00722 129.588 7.00862 129.683 6.97706C129.778 6.9455 129.86 6.88279 129.916 6.79893L129.918 6.79588C129.976 6.71291 130.005 6.61268 129.999 6.5113C129.994 6.40992 129.955 6.31328 129.889 6.23692L127.901 3.86453C127.876 3.83498 127.857 3.80061 127.846 3.76353C127.836 3.72587 127.834 3.68662 127.839 3.64795L128.194 1.0255C128.205 0.939307 128.193 0.851544 128.157 0.772272C128.121 0.692999 128.064 0.625427 127.992 0.5773C127.92 0.529172 127.837 0.502435 127.75 0.500159C127.664 0.497882 127.579 0.52016 127.504 0.564429ZM128.012 1.00032L127.657 3.62276C127.652 3.65663 127.651 3.69095 127.654 3.72507L116.444 7.49463C116.434 7.49788 116.425 7.5021 116.416 7.50723C116.378 7.52778 116.348 7.56095 116.332 7.60102C116.316 7.64108 116.315 7.68552 116.328 7.72665C116.341 7.76777 116.368 7.803 116.404 7.82624C116.44 7.84948 116.483 7.85927 116.526 7.85391L127.434 6.59127C127.417 6.63928 127.408 6.68989 127.408 6.74088L127.352 11.8936C127.352 11.9383 127.341 11.9822 127.32 12.0215C127.299 12.0609 127.269 12.0945 127.232 12.1197C127.195 12.1448 127.153 12.1607 127.109 12.1659C127.065 12.1711 127.02 12.1655 126.979 12.1497L116.265 8.02155C116.216 8.00273 116.174 7.97064 116.143 7.92894C116.112 7.88723 116.093 7.83759 116.089 7.78567C116.085 7.73375 116.095 7.68163 116.119 7.63526C116.142 7.58888 116.178 7.55012 116.223 7.52338L116.372 7.43413L127.598 0.72408C127.642 0.697466 127.694 0.684044 127.745 0.685349C127.797 0.686653 127.848 0.702631 127.891 0.731455C127.934 0.760279 127.968 0.800781 127.99 0.848328C128.011 0.895875 128.019 0.948559 128.012 1.00032Z" fill="#F1F1F1"/>
<path d="M127.504 0.564429L116.275 7.27647L116.129 7.36376C116.055 7.40808 115.994 7.47267 115.955 7.55008C115.915 7.62749 115.898 7.71459 115.905 7.80136C115.913 7.88813 115.944 7.97104 115.996 8.04056C116.048 8.11009 116.119 8.16339 116.199 8.19436L126.914 12.3225C126.983 12.3488 127.057 12.3581 127.131 12.3495C127.204 12.3409 127.274 12.3147 127.335 12.273C127.397 12.2313 127.447 12.1752 127.482 12.1094C127.517 12.0437 127.536 11.9704 127.536 11.8958L127.592 6.743C127.592 6.70585 127.6 6.6691 127.615 6.63505C127.629 6.601 127.651 6.57038 127.678 6.54514C127.714 6.51028 127.759 6.486 127.808 6.47492C127.857 6.46384 127.908 6.46636 127.956 6.48222L129.391 6.97309C129.485 7.00722 129.588 7.00862 129.683 6.97706C129.778 6.9455 129.86 6.88279 129.916 6.79893L129.918 6.79588C129.976 6.71291 130.005 6.61268 129.999 6.5113C129.994 6.40992 129.955 6.31328 129.889 6.23692L127.901 3.86453C127.876 3.83498 127.857 3.80061 127.846 3.76353C127.836 3.72587 127.834 3.68662 127.839 3.64795L128.194 1.0255C128.205 0.939307 128.193 0.851544 128.157 0.772272C128.121 0.692999 128.064 0.625427 127.992 0.5773C127.92 0.529172 127.837 0.502435 127.75 0.500159C127.664 0.497882 127.579 0.52016 127.504 0.564429ZM128.012 1.00032L127.657 3.62276C127.652 3.65664 127.651 3.69095 127.654 3.72507C127.656 3.7556 127.662 3.78581 127.67 3.81517C127.679 3.84542 127.69 3.87468 127.705 3.90244L127.706 3.90297C127.721 3.93196 127.74 3.95913 127.761 3.98398L129.749 6.35633C129.789 6.40187 129.813 6.45985 129.816 6.52075C129.819 6.58166 129.802 6.64185 129.766 6.69144L129.765 6.69296C129.732 6.74373 129.683 6.78179 129.626 6.80097C129.569 6.82016 129.507 6.81933 129.451 6.79864L128.014 6.30724C127.94 6.28201 127.861 6.27622 127.784 6.29043C127.708 6.30465 127.636 6.33838 127.576 6.38844L127.575 6.38919C127.567 6.396 127.559 6.40278 127.552 6.41009C127.499 6.45993 127.458 6.52212 127.434 6.59126C127.417 6.63927 127.408 6.68988 127.408 6.74087L127.352 11.8936C127.352 11.9383 127.341 11.9822 127.32 12.0215C127.299 12.0609 127.269 12.0945 127.232 12.1197C127.195 12.1448 127.153 12.1607 127.109 12.1659C127.065 12.1711 127.02 12.1655 126.979 12.1497L116.265 8.02155C116.216 8.00273 116.174 7.97064 116.143 7.92894C116.112 7.88723 116.093 7.83759 116.089 7.78567C116.085 7.73375 116.095 7.68163 116.119 7.63526C116.142 7.58889 116.178 7.55012 116.223 7.52338L116.372 7.43413L127.598 0.724084C127.642 0.69747 127.694 0.684048 127.745 0.685352C127.797 0.686656 127.848 0.702635 127.891 0.731459C127.934 0.760283 127.968 0.800785 127.99 0.848332C128.011 0.895878 128.019 0.948559 128.012 1.00032Z" fill="#111F2B"/>
<path d="M127.696 3.71045L127.754 3.88592L127.706 3.90276L127.705 3.90224L116.505 7.66944L127.575 6.38899L127.576 6.38825L127.605 6.38543L127.627 6.56896L127.434 6.59106L116.526 7.85373C116.483 7.85908 116.44 7.84929 116.404 7.82605C116.368 7.80281 116.341 7.76758 116.328 7.72646C116.315 7.68533 116.316 7.64089 116.332 7.60082C116.348 7.56076 116.378 7.52759 116.416 7.50704C116.425 7.50191 116.434 7.49769 116.444 7.49445L127.654 3.72488L127.696 3.71045Z" fill="#84939E"/>
<path d="M31.4135 94.3477C31.3366 94.3874 31.2724 94.448 31.2282 94.5228C31.184 94.5975 31.1615 94.6832 31.1635 94.7702C31.1654 94.8572 31.1916 94.9418 31.2391 95.0145C31.2866 95.0871 31.3535 95.1448 31.432 95.181L33.8219 96.2803C33.857 96.2968 33.8885 96.32 33.9148 96.3486C33.9399 96.3779 33.9588 96.4121 33.9703 96.449L34.8984 99.4095C34.927 99.5068 34.9872 99.5917 35.0695 99.6504C35.1517 99.7091 35.2511 99.7382 35.3518 99.7331L35.3554 99.7329C35.4555 99.7304 35.5519 99.6942 35.6292 99.6301C35.7065 99.566 35.7603 99.4777 35.782 99.3792L36.1374 97.8945C36.1495 97.8455 36.1746 97.8008 36.21 97.7651C36.2455 97.7293 36.2899 97.704 36.3385 97.6918C36.3741 97.6822 36.4113 97.6802 36.4478 97.6859C36.4842 97.6915 36.5191 97.7047 36.5503 97.7246L40.9034 100.431C40.9663 100.47 41.0377 100.493 41.1116 100.499C41.1855 100.504 41.2595 100.491 41.3273 100.461C41.3949 100.431 41.4544 100.386 41.5008 100.328C41.5472 100.27 41.5791 100.202 41.5939 100.129L43.8565 88.7993C43.8737 88.714 43.8667 88.6255 43.8362 88.544C43.8057 88.4625 43.7529 88.3914 43.6841 88.3387C43.6152 88.2861 43.533 88.2541 43.4469 88.2464C43.3608 88.2388 43.2743 88.2558 43.1973 88.2954L43.0461 88.373L31.4135 94.3477ZM31.5078 95.013C31.4607 94.9913 31.4207 94.9565 31.3922 94.9129C31.3638 94.8692 31.3481 94.8184 31.3471 94.7662C31.346 94.7139 31.3595 94.6625 31.3861 94.6176C31.4127 94.5728 31.4513 94.5365 31.4975 94.5127L43.1265 88.5399L43.2812 88.4604C43.3274 88.4369 43.3792 88.4269 43.4307 88.4316C43.4822 88.4363 43.5314 88.4555 43.5726 88.4869C43.6138 88.5184 43.6454 88.5609 43.6639 88.6096C43.6823 88.6583 43.6867 88.7112 43.6768 88.7624L41.4141 100.092C41.4053 100.136 41.3861 100.177 41.3582 100.211C41.3303 100.246 41.2945 100.273 41.2538 100.291C41.2131 100.309 41.1688 100.317 41.1246 100.313C41.0803 100.31 41.0375 100.296 40.9998 100.273L36.6467 97.5669C36.6039 97.5397 36.5568 97.52 36.5074 97.5089L43.3965 88.8953C43.4237 88.8619 43.4385 88.82 43.4383 88.7768C43.4381 88.7336 43.423 88.6919 43.3954 88.6588C43.3679 88.6257 43.3298 88.6033 43.2876 88.5955C43.2455 88.5877 43.2019 88.595 43.1645 88.6161C43.1553 88.6212 43.1467 88.6271 43.1386 88.6338L33.9853 96.1642C33.9581 96.1437 33.9287 96.1263 33.8977 96.1123L31.5078 95.013Z" fill="#F1F1F1"/>
<path d="M31.4135 94.3477C31.3366 94.3874 31.2724 94.448 31.2282 94.5228C31.184 94.5975 31.1615 94.6832 31.1635 94.7702C31.1654 94.8572 31.1916 94.9418 31.2391 95.0145C31.2866 95.0871 31.3535 95.1448 31.432 95.181L33.8219 96.2803C33.857 96.2968 33.8885 96.32 33.9148 96.3486C33.9399 96.3779 33.9588 96.4121 33.9703 96.449L34.8984 99.4095C34.927 99.5068 34.9872 99.5917 35.0695 99.6504C35.1517 99.7091 35.2511 99.7382 35.3518 99.7331L35.3554 99.7329C35.4555 99.7304 35.5519 99.6942 35.6292 99.6301C35.7065 99.566 35.7603 99.4777 35.782 99.3792L36.1374 97.8945C36.1495 97.8455 36.1746 97.8008 36.21 97.7651C36.2455 97.7293 36.2899 97.704 36.3385 97.6918C36.3741 97.6822 36.4113 97.6802 36.4478 97.6859C36.4842 97.6915 36.5191 97.7047 36.5503 97.7246L40.9034 100.431C40.9663 100.47 41.0377 100.493 41.1116 100.499C41.1855 100.504 41.2595 100.491 41.3273 100.461C41.3949 100.431 41.4544 100.386 41.5008 100.328C41.5472 100.27 41.5791 100.202 41.5939 100.129L43.8565 88.7993C43.8737 88.714 43.8667 88.6255 43.8362 88.544C43.8057 88.4625 43.7529 88.3914 43.6841 88.3387C43.6152 88.2861 43.533 88.2541 43.4469 88.2464C43.3608 88.2388 43.2743 88.2558 43.1973 88.2954L43.0461 88.373L31.4135 94.3477ZM31.5078 95.013C31.4607 94.9913 31.4207 94.9565 31.3922 94.9129C31.3638 94.8692 31.3481 94.8184 31.3471 94.7662C31.346 94.7139 31.3595 94.6625 31.3861 94.6176C31.4127 94.5728 31.4513 94.5365 31.4975 94.5127L43.1265 88.5399L43.2812 88.4604C43.3274 88.4369 43.3792 88.4269 43.4307 88.4316C43.4822 88.4363 43.5314 88.4555 43.5726 88.4869C43.6138 88.5184 43.6454 88.5609 43.6639 88.6096C43.6823 88.6583 43.6867 88.7112 43.6768 88.7624L41.4141 100.092C41.4053 100.136 41.3861 100.177 41.3582 100.211C41.3303 100.246 41.2945 100.273 41.2538 100.291C41.2131 100.309 41.1688 100.317 41.1246 100.313C41.0803 100.31 41.0375 100.296 40.9998 100.273L36.6467 97.5669C36.6039 97.5397 36.5568 97.52 36.5074 97.5089C36.4366 97.4924 36.3628 97.4935 36.2925 97.5122C36.2825 97.5145 36.2726 97.5177 36.2626 97.5209L36.2617 97.5209C36.1875 97.5454 36.1208 97.5886 36.0678 97.6464C36.0149 97.7041 35.9775 97.7746 35.9591 97.851L35.6038 99.3366C35.5909 99.3959 35.5586 99.449 35.5119 99.4874C35.4653 99.5258 35.4072 99.5472 35.3469 99.5482L35.3451 99.5482C35.2847 99.5517 35.2248 99.5344 35.1755 99.4991C35.1261 99.4639 35.0901 99.4127 35.0734 99.3541L34.1454 96.3936C34.1359 96.3622 34.123 96.332 34.1068 96.3036L34.1067 96.3026C34.0913 96.2753 34.073 96.2497 34.0522 96.2262C34.0321 96.2032 34.0097 96.1824 33.9853 96.1642C33.9581 96.1437 33.9287 96.1263 33.8977 96.1123L31.5078 95.013Z" fill="#111F2B"/>
<path d="M33.9853 96.1645L43.1386 88.6342C43.1466 88.6274 43.1553 88.6215 43.1645 88.6164C43.2019 88.5953 43.2454 88.588 43.2876 88.5958C43.3298 88.6036 43.3679 88.626 43.3954 88.6591C43.4229 88.6922 43.4381 88.734 43.4383 88.7772C43.4385 88.8203 43.4237 88.8622 43.3964 88.8956L36.5074 97.5092L36.3859 97.6614L36.2433 97.5452L36.2617 97.5213L36.2626 97.5212L43.253 88.7794L34.1067 96.303L34.1067 96.3039L34.0667 96.3361L33.9506 96.1928L33.9853 96.1645Z" fill="#84939E"/>
<defs>
<linearGradient id="paint0_linear_48_287" x1="39.2915" y1="66.3286" x2="39.2915" y2="68.073" gradientUnits="userSpaceOnUse">
<stop stop-color="#F3397D"/>
<stop offset="1" stop-color="#FF9153"/>
</linearGradient>
<linearGradient id="paint1_linear_48_287" x1="33.3509" y1="62.5786" x2="33.3509" y2="64.323" gradientUnits="userSpaceOnUse">
<stop stop-color="#F3397D"/>
<stop offset="1" stop-color="#FF9153"/>
</linearGradient>
<linearGradient id="paint2_linear_48_287" x1="53.5028" y1="15.0107" x2="53.5028" y2="17.3183" gradientUnits="userSpaceOnUse">
<stop stop-color="#F3397D"/>
<stop offset="1" stop-color="#FF9153"/>
</linearGradient>
<linearGradient id="paint3_linear_48_287" x1="49.4227" y1="10.1069" x2="49.4227" y2="12.4145" gradientUnits="userSpaceOnUse">
<stop stop-color="#F3397D"/>
<stop offset="1" stop-color="#FF9153"/>
</linearGradient>
<linearGradient id="paint4_linear_48_287" x1="103.766" y1="19.6079" x2="103.766" y2="41.55" gradientUnits="userSpaceOnUse">
<stop stop-color="#F3397D"/>
<stop offset="1" stop-color="#FF9153"/>
</linearGradient>
</defs>
</svg>
