<svg width="231" height="56" viewBox="0 0 231 56" fill="none" xmlns="http://www.w3.org/2000/svg">
<path fill-rule="evenodd" clip-rule="evenodd" d="M27.2254 29.3831C28.4638 32.0791 29.8966 34.6486 32.4503 36.3593C36.5294 39.0915 42.439 38.9718 46.4254 36.0655C49.474 33.8418 51.3859 30.4565 51.7 26.2554C51.8085 24.9243 51.7497 23.5073 51.5215 22.0181C50.5768 15.9073 44.0842 4.51525 34.4819 0C44.5859 2.21017 52.7079 9.71751 55.8017 19.4644C55.8085 19.4927 55.8175 19.5215 55.8265 19.5503C55.8356 19.5791 55.8446 19.6079 55.8514 19.6362C57.9155 26.7785 56.625 34.2717 52.4838 40.0928L52.4842 40.0927C51.5531 41.4034 50.4751 42.6305 49.2593 43.7492L49.2591 43.7494C49.2207 43.7854 49.1824 43.8215 49.144 43.8554C48.9407 44.0384 48.7327 44.2192 48.5226 44.3977C48.4864 44.4283 48.4501 44.4583 48.4139 44.4883C48.3778 44.5182 48.3417 44.5481 48.3056 44.5785C48.1068 44.7412 47.9056 44.904 47.7 45.0621C47.6322 45.116 47.5617 45.1686 47.4916 45.2208C47.4706 45.2365 47.4496 45.2522 47.4288 45.2678C47.2299 45.417 47.0288 45.5661 46.8231 45.7107C46.7679 45.7497 46.7113 45.7872 46.6544 45.8249C46.6089 45.855 46.5632 45.8853 46.5181 45.9164C46.1565 46.1627 45.7859 46.4 45.4084 46.6283C45.3625 46.6561 45.3168 46.6843 45.2711 46.7124C45.1797 46.7686 45.0883 46.8249 44.9949 46.8791C44.8572 46.9597 44.7144 47.0369 44.5724 47.1137C44.5513 47.1252 44.5301 47.1366 44.509 47.148C44.326 47.2497 44.1452 47.3492 43.9576 47.4463C43.7973 47.5299 43.6347 47.6089 43.4721 47.688L43.4717 47.6881C43.2729 47.7853 43.074 47.8825 42.8706 47.9751C42.7124 48.0475 42.552 48.1175 42.3915 48.1876C42.1723 48.2825 41.9508 48.3729 41.7271 48.4633C41.5757 48.5243 41.422 48.5853 41.2683 48.6441H41.2706C41.0175 48.7412 40.7599 48.8316 40.5 48.922L40.454 48.9387C40.3387 48.9805 40.2245 49.022 40.1068 49.0599C39.7113 49.191 39.3113 49.3153 38.9045 49.4282C31.6909 51.4486 24.9361 49.9051 19.6593 46.8994C18.9994 46.5243 18.3644 46.1266 17.752 45.7085C17.4469 45.5006 17.1486 45.2859 16.8548 45.0689C16.2695 44.6328 15.7113 44.1808 15.1779 43.7175C14.6446 43.2542 14.1429 42.7774 13.6683 42.2915C13.1938 41.8056 12.7508 41.3107 12.3395 40.8136C12.1339 40.565 11.9373 40.3141 11.7474 40.0633C10.613 38.5582 9.77455 37.035 9.28642 35.6C8.21297 32.2644 8.3915 28.8633 9.84687 26.2011C9.9915 25.9345 10.1497 25.6768 10.3214 25.426C11.1779 24.1718 12.3531 23.1254 13.8514 22.3819C13.8695 22.3751 13.8875 22.3661 13.9056 22.3571C13.9237 22.348 13.9418 22.339 13.9599 22.3322C15.0333 21.8237 16.3079 21.5932 17.6051 21.6203C18.0367 21.6294 18.4706 21.6678 18.9022 21.7311C19.7633 21.8599 20.6085 22.0972 21.3836 22.4384C22.1587 22.7797 22.8638 23.2226 23.4469 23.7582C23.8763 24.1559 24.2672 24.5763 24.6265 25.0147C24.8073 25.2362 24.9791 25.4599 25.144 25.6881L25.1444 25.6886C25.971 26.8293 26.6261 28.0806 27.2247 29.3816L27.2254 29.3831Z" fill="url(#paint0_linear_48_315)"/>
<path d="M12.8616 8.55382C13.022 8.4702 13.1847 8.39337 13.3474 8.31201C13.1847 8.39111 13.022 8.4702 12.8616 8.55382Z" fill="url(#paint1_linear_48_315)"/>
<path d="M16.3192 7.07779C16.4502 7.0326 16.579 6.98514 16.7124 6.93994C16.579 6.98288 16.4502 7.03034 16.3192 7.07779Z" fill="url(#paint2_linear_48_315)"/>
<path d="M15.0898 7.53431C15.2412 7.47329 15.3949 7.41227 15.5485 7.35352C15.3949 7.41227 15.2435 7.47329 15.0898 7.53431Z" fill="url(#paint3_linear_48_315)"/>
<path d="M11.822 9.11854C11.9825 9.02588 12.1474 8.94 12.3079 8.84961C12.1452 8.93774 11.9802 9.02588 11.822 9.11854Z" fill="url(#paint4_linear_48_315)"/>
<path d="M7.67511 12.1444C7.8785 11.9591 8.08641 11.7806 8.29658 11.6021C8.08641 11.7806 7.8785 11.9614 7.67511 12.1444Z" fill="url(#paint5_linear_48_315)"/>
<path d="M10.2988 10.0815C10.6604 9.83517 11.0288 9.60014 11.4084 9.36963C11.0288 9.59788 10.6604 9.83517 10.2988 10.0815Z" fill="url(#paint6_linear_48_315)"/>
<path d="M8.51129 11.4216C8.71016 11.2566 8.91129 11.0962 9.11694 10.938C8.91129 11.0962 8.71016 11.2589 8.51129 11.4216Z" fill="url(#paint7_linear_48_315)"/>
<path d="M47.7587 27.8711C47.7113 28.0338 47.6593 28.192 47.6028 28.3502C47.6593 28.192 47.709 28.0315 47.7587 27.8711Z" fill="url(#paint8_linear_48_315)"/>
<path d="M42.909 33.6406C42.9271 33.6315 42.9474 33.6225 42.9655 33.6135C43.8649 33.1683 44.6468 32.6123 45.3135 31.9683C44.6468 32.6123 43.8627 33.1683 42.9655 33.6135C42.9474 33.6202 42.9271 33.6315 42.909 33.6406Z" fill="url(#paint9_linear_48_315)"/>
<path d="M33.3723 32.2418C33.5621 32.4158 33.7701 32.5785 33.9848 32.7322C33.7701 32.5785 33.5644 32.4158 33.3723 32.2418Z" fill="url(#paint10_linear_48_315)"/>
<g style="mix-blend-mode:multiply">
<path d="M33.3723 32.2418C33.5621 32.4158 33.7701 32.5785 33.9848 32.7322C33.7701 32.5785 33.5644 32.4158 33.3723 32.2418Z" fill="url(#paint11_linear_48_315)"/>
</g>
<path d="M4.335 15.9055V15.9029C5.26607 14.5921 6.34404 13.365 7.55986 12.2464C7.59828 12.2102 7.63669 12.1741 7.67511 12.1402C7.8785 11.9571 8.08641 11.7763 8.29658 11.5978C8.33274 11.5673 8.36889 11.5373 8.40504 11.5074C8.44121 11.4775 8.47737 11.4475 8.51353 11.417C8.7124 11.2543 8.91353 11.0916 9.11918 10.9334C9.187 10.8795 9.2575 10.8269 9.32759 10.7746C9.34858 10.759 9.36953 10.7434 9.39037 10.7277C9.58924 10.5786 9.79037 10.4294 9.99602 10.2848C10.0512 10.2459 10.1078 10.2084 10.1647 10.1707C10.2102 10.1406 10.2559 10.1103 10.3011 10.0791C10.6627 9.83281 11.0333 9.59553 11.4107 9.36728C11.4567 9.33941 11.5024 9.31128 11.5481 9.28316C11.6395 9.22692 11.7309 9.17067 11.8243 9.11643C11.9619 9.03581 12.1047 8.95862 12.2466 8.88186C12.2678 8.8704 12.289 8.85895 12.3101 8.8475C12.4932 8.74581 12.674 8.64637 12.8616 8.5492C13.022 8.46558 13.1847 8.38649 13.3474 8.30739C13.5463 8.21022 13.7452 8.11304 13.9486 8.02039C14.1068 7.94807 14.2672 7.87801 14.4277 7.80796C14.6469 7.71304 14.8683 7.62265 15.0921 7.53225C15.2435 7.47123 15.3971 7.41022 15.5508 7.35146C15.8039 7.25428 16.0616 7.16389 16.3214 7.07349C16.3368 7.06792 16.3522 7.06234 16.3676 7.05677C16.4829 7.01494 16.597 6.97353 16.7147 6.93564C17.1101 6.80457 17.5101 6.68027 17.9169 6.56728C24.6808 4.67123 31.0401 5.90965 36.1565 8.5492C37.1779 9.07801 38.152 9.66106 39.0695 10.2871C39.3746 10.495 39.6729 10.7097 39.9666 10.9266C40.552 11.3628 41.1124 11.8147 41.6435 12.278C42.1768 12.7413 42.6808 13.2181 43.1531 13.704C43.6277 14.1899 44.0706 14.6848 44.4819 15.182C44.6875 15.4306 44.8842 15.6814 45.074 15.9322C46.2085 17.4373 47.0469 18.9605 47.535 20.3955C48.3644 22.9718 48.4367 25.5842 47.761 27.869C47.7113 28.0294 47.6616 28.1899 47.6051 28.3481C47.4627 28.7549 47.2955 29.1458 47.1034 29.5255C46.9203 29.8848 46.726 30.2373 46.4977 30.5695C46.1565 31.0712 45.7633 31.539 45.3181 31.9684C44.6514 32.6125 43.8695 33.1684 42.97 33.6136C42.952 33.6226 42.9316 33.6317 42.9135 33.6407C42.9021 33.6456 42.8895 33.6517 42.8774 33.6573C42.8728 33.6594 42.8682 33.6614 42.8638 33.6633C41.7904 34.1718 40.5158 34.4023 39.2186 34.3752C37.7045 34.3458 36.161 33.9684 34.8706 33.2837C34.5565 33.1187 34.2627 32.9311 33.9847 32.73C33.77 32.5763 33.5621 32.4136 33.3723 32.2396C33.1576 32.0407 32.952 31.8373 32.7553 31.6272C32.7407 31.6126 32.7277 31.5972 32.7144 31.5815C32.705 31.5704 32.6955 31.5593 32.6853 31.5481C32.3214 31.1526 31.9847 30.7413 31.6751 30.3119C30.848 29.1707 30.1926 27.9187 29.5938 26.617C29.5938 26.617 29.5929 26.6144 29.5913 26.6093C28.3534 23.9152 26.9209 21.348 24.3689 19.6385C20.2898 16.9063 14.3802 17.026 10.3938 19.9322C7.34517 22.156 5.43331 25.5413 5.11918 29.7424C5.01071 31.0735 5.06946 32.4904 5.29771 33.9797L5.29545 33.982C6.24008 40.0927 12.7327 51.4848 22.335 56C12.231 53.7899 4.10901 46.2825 1.01749 36.5356C1.01071 36.5074 1.00167 36.4786 0.992627 36.4498C0.983587 36.4209 0.974548 36.3921 0.967768 36.3639C-1.09631 29.2199 0.194052 21.7265 4.335 15.9055Z" fill="url(#paint12_linear_48_315)"/>
<path d="M40.1068 49.0578C40.2401 49.0148 40.3689 48.9674 40.5 48.9199C40.3689 48.9651 40.2401 49.0126 40.1068 49.0578Z" fill="url(#paint13_linear_48_315)"/>
<path d="M44.9972 46.8789C44.8367 46.9716 44.6717 47.0574 44.5113 47.1478C44.674 47.0597 44.839 46.9716 44.9972 46.8789Z" fill="url(#paint14_linear_48_315)"/>
<path d="M43.9576 47.4463C43.7972 47.5299 43.6345 47.6067 43.4717 47.6881C43.6345 47.609 43.7972 47.5299 43.9576 47.4463Z" fill="url(#paint15_linear_48_315)"/>
<path d="M46.5203 45.9165C46.1587 46.1628 45.7904 46.3979 45.4107 46.6284C45.7904 46.4001 46.1587 46.1628 46.5203 45.9165Z" fill="url(#paint16_linear_48_315)"/>
<path d="M41.7271 48.4634C41.5757 48.5244 41.422 48.5854 41.2683 48.6442C41.422 48.5854 41.5734 48.5244 41.7271 48.4634Z" fill="url(#paint17_linear_48_315)"/>
<path d="M49.1441 43.853C48.9407 44.0383 48.7328 44.2169 48.5226 44.3954C48.7328 44.2169 48.9407 44.0361 49.1441 43.853Z" fill="url(#paint18_linear_48_315)"/>
<path d="M48.3056 44.5786C48.1067 44.7436 47.9056 44.904 47.7 45.0622C47.9056 44.904 48.1067 44.7413 48.3056 44.5786Z" fill="url(#paint19_linear_48_315)"/>
<path d="M17.6028 21.6201C18.0344 21.6292 18.4706 21.6653 18.9 21.7309C18.4683 21.6676 18.0344 21.6292 17.6028 21.6201Z" fill="url(#paint20_linear_48_315)"/>
<g style="mix-blend-mode:multiply">
<path d="M17.6028 21.6201C18.0344 21.6292 18.4706 21.6653 18.9 21.7309C18.4683 21.6676 18.0344 21.6292 17.6028 21.6201Z" fill="url(#paint21_linear_48_315)"/>
</g>
<path d="M89.7201 23.5866C89.7201 28.3343 86.0278 31.14 80.2247 31.14H71.7875V16.0332H80.2247C86.0306 16.0332 89.7201 18.8389 89.7201 23.5866ZM85.2298 23.5866C85.2298 20.9096 83.1134 19.5282 79.8787 19.5282H76.1863V27.6422H79.8787C83.1162 27.6422 85.2298 26.2608 85.2298 23.5838V23.5866Z" fill="white"/>
<path d="M110.673 27.7738V31.14H94.5508V16.0332H110.436V19.3995H98.8895V21.882H108.408V25.0967H98.8895V27.7738H110.673Z" fill="white"/>
<path d="M132.773 16.0332V24.0185C132.773 28.6146 129.644 31.6377 124.009 31.6377C118.375 31.6377 115.226 28.6175 115.226 24.0185V16.0332H119.628V23.6724C119.628 26.3065 121.095 28.0111 124.009 28.0111C126.924 28.0111 128.368 26.3065 128.368 23.6724V16.0332H132.77H132.773Z" fill="white"/>
<path d="M154.847 26.4125C154.847 29.5213 151.975 31.6349 146.495 31.6349C142.611 31.6349 139.351 30.5767 136.977 28.6776L139.288 25.9577C141.078 27.4678 143.561 28.3115 146.581 28.3115C149.172 28.3115 150.465 27.8368 150.465 26.8443C150.465 25.8519 149.258 25.5487 146.149 25.2913C141.659 24.9023 137.58 23.9099 137.58 20.5436C137.58 17.1773 141.078 15.5356 145.869 15.5356C149.106 15.5356 152.084 16.3136 154.157 17.7808L151.935 20.5207C150.25 19.3338 148.223 18.859 145.872 18.8362C144.101 18.8362 141.965 19.1164 141.965 20.1947C141.965 21.21 143.712 21.3387 146.409 21.5532C151.352 21.9622 154.847 22.9346 154.847 26.4096V26.4125Z" fill="white"/>
<path d="M174.052 27.5993V31.14H159.486V16.0332H163.887V27.6022H174.052V27.5993Z" fill="white"/>
<path d="M178.348 31.14V16.0332H182.749V31.14H178.348Z" fill="white"/>
<path d="M206.336 16.0332V31.14H202.472L192.717 21.2128V31.14H188.464V16.0332H193.126L202.083 25.2712V16.0332H206.336Z" fill="white"/>
<path d="M224.852 31.14L219.781 24.6448L216.435 27.6222V31.14H212.034V16.0332H216.435V23.0261L224.163 16.0332H229.646L222.933 22.0536L230.035 31.14H224.855H224.852Z" fill="white"/>
<path d="M79.7299 42.8208C79.7299 44.2022 78.4543 45.1403 76.0176 45.1403C74.2901 45.1403 72.8429 44.6713 71.7875 43.8275L72.8143 42.6206C73.6094 43.2927 74.7134 43.6645 76.0547 43.6645C77.2045 43.6645 77.7822 43.4529 77.7822 43.0124C77.7822 42.572 77.2445 42.4376 75.8631 42.3232C73.8668 42.1516 72.0564 41.7082 72.0564 40.2124C72.0564 38.7166 73.6094 37.9873 75.7373 37.9873C77.1759 37.9873 78.5001 38.3334 79.4182 38.9855L78.4315 40.2039C77.6821 39.6776 76.7812 39.466 75.7373 39.4545C74.9508 39.4545 74.0012 39.5804 74.0012 40.058C74.0012 40.5099 74.7792 40.5671 75.9775 40.6615C78.1741 40.8445 79.7271 41.2764 79.7271 42.8179L79.7299 42.8208Z" fill="white"/>
<path d="M86.2108 41.5652C86.2108 39.2915 87.9269 37.9873 90.5839 37.9873C93.2408 37.9873 94.9655 39.2915 94.9655 41.5652C94.9655 43.839 93.238 45.1432 90.5839 45.1432C87.9297 45.1432 86.2108 43.839 86.2108 41.5652ZM92.972 41.5652C92.972 40.2982 92.0596 39.5804 90.5839 39.5804C89.1081 39.5804 88.1957 40.2982 88.1957 41.5652C88.1957 42.8322 89.1081 43.5501 90.5839 43.5501C92.0596 43.5501 92.972 42.8294 92.972 41.5652Z" fill="white"/>
<path d="M103.872 39.752V41.0275H108.11V42.552H103.872V44.9201H101.915V38.2075H108.945V39.752H103.872Z" fill="white"/>
<path d="M122.608 39.772H119.817V44.9201H117.86V39.772H115.089V38.2075H122.608V39.772Z" fill="white"/>
<path d="M140.509 38.2075L138.064 44.9201H136.116L134.552 40.2496L132.979 44.9201H131.051L128.597 38.2075H130.602L132.069 42.8208L133.671 38.2075H135.473L137.074 42.8208L138.541 38.2075H140.506H140.509Z" fill="white"/>
<path d="M152.132 43.6359H148.451L147.819 44.9201H145.769L149.241 38.2075H151.377L154.849 44.9201H152.767L152.135 43.6359H152.132ZM151.452 42.2459L150.29 39.8692L149.121 42.2459H151.452Z" fill="white"/>
<path d="M167.042 44.9201L165.269 42.8008H163.292V44.9201H161.345V38.2075H166.052C167.768 38.2075 169.101 38.9654 169.101 40.4984C169.101 41.6196 168.392 42.3289 167.336 42.6378L169.313 44.9201H167.039H167.042ZM165.909 41.3822C166.61 41.3822 167.116 41.1906 167.116 40.5385C167.116 39.8864 166.607 39.6948 165.909 39.6948H163.281V41.3822H165.909Z" fill="white"/>
<path d="M183.284 43.4243V44.9201H176.12V38.2075H183.178V39.7033H178.047V40.8073H182.277V42.2345H178.047V43.4243H183.284Z" fill="white"/>
<defs>
<linearGradient id="paint0_linear_48_315" x1="32.7086" y1="0" x2="32.7086" y2="50.3424" gradientUnits="userSpaceOnUse">
<stop stop-color="#F3397D"/>
<stop offset="1" stop-color="#FF9153"/>
</linearGradient>
<linearGradient id="paint1_linear_48_315" x1="13.1045" y1="8.31201" x2="13.1045" y2="8.55382" gradientUnits="userSpaceOnUse">
<stop stop-color="#F3397D"/>
<stop offset="1" stop-color="#FF9153"/>
</linearGradient>
<linearGradient id="paint2_linear_48_315" x1="16.5158" y1="6.93994" x2="16.5158" y2="7.07779" gradientUnits="userSpaceOnUse">
<stop stop-color="#F3397D"/>
<stop offset="1" stop-color="#FF9153"/>
</linearGradient>
<linearGradient id="paint3_linear_48_315" x1="15.3192" y1="7.35352" x2="15.3192" y2="7.53431" gradientUnits="userSpaceOnUse">
<stop stop-color="#F3397D"/>
<stop offset="1" stop-color="#FF9153"/>
</linearGradient>
<linearGradient id="paint4_linear_48_315" x1="12.065" y1="8.84961" x2="12.065" y2="9.11854" gradientUnits="userSpaceOnUse">
<stop stop-color="#F3397D"/>
<stop offset="1" stop-color="#FF9153"/>
</linearGradient>
<linearGradient id="paint5_linear_48_315" x1="7.98584" y1="11.6021" x2="7.98584" y2="12.1444" gradientUnits="userSpaceOnUse">
<stop stop-color="#F3397D"/>
<stop offset="1" stop-color="#FF9153"/>
</linearGradient>
<linearGradient id="paint6_linear_48_315" x1="10.8536" y1="9.36963" x2="10.8536" y2="10.0815" gradientUnits="userSpaceOnUse">
<stop stop-color="#F3397D"/>
<stop offset="1" stop-color="#FF9153"/>
</linearGradient>
<linearGradient id="paint7_linear_48_315" x1="8.81412" y1="10.938" x2="8.81412" y2="11.4216" gradientUnits="userSpaceOnUse">
<stop stop-color="#F3397D"/>
<stop offset="1" stop-color="#FF9153"/>
</linearGradient>
<linearGradient id="paint8_linear_48_315" x1="47.6807" y1="27.8711" x2="47.6807" y2="28.3502" gradientUnits="userSpaceOnUse">
<stop stop-color="#F3397D"/>
<stop offset="1" stop-color="#FF9153"/>
</linearGradient>
<linearGradient id="paint9_linear_48_315" x1="44.1113" y1="31.9683" x2="44.1113" y2="33.6406" gradientUnits="userSpaceOnUse">
<stop stop-color="#F3397D"/>
<stop offset="1" stop-color="#FF9153"/>
</linearGradient>
<linearGradient id="paint10_linear_48_315" x1="33.3701" y1="31.6294" x2="33.3701" y2="32.7322" gradientUnits="userSpaceOnUse">
<stop stop-color="#F3397D"/>
<stop offset="1" stop-color="#FF9153"/>
</linearGradient>
<linearGradient id="paint11_linear_48_315" x1="33.3701" y1="31.6294" x2="33.3701" y2="32.7322" gradientUnits="userSpaceOnUse">
<stop stop-color="#F3397D"/>
<stop offset="1" stop-color="#FF9153"/>
</linearGradient>
<linearGradient id="paint12_linear_48_315" x1="24.109" y1="5.65186" x2="24.109" y2="56" gradientUnits="userSpaceOnUse">
<stop stop-color="#F3397D"/>
<stop offset="1" stop-color="#FF9153"/>
</linearGradient>
<linearGradient id="paint13_linear_48_315" x1="40.3034" y1="48.9199" x2="40.3034" y2="49.0578" gradientUnits="userSpaceOnUse">
<stop stop-color="#F3397D"/>
<stop offset="1" stop-color="#FF9153"/>
</linearGradient>
<linearGradient id="paint14_linear_48_315" x1="44.7542" y1="46.8789" x2="44.7542" y2="47.1478" gradientUnits="userSpaceOnUse">
<stop stop-color="#F3397D"/>
<stop offset="1" stop-color="#FF9153"/>
</linearGradient>
<linearGradient id="paint15_linear_48_315" x1="43.7147" y1="47.4463" x2="43.7147" y2="47.6881" gradientUnits="userSpaceOnUse">
<stop stop-color="#F3397D"/>
<stop offset="1" stop-color="#FF9153"/>
</linearGradient>
<linearGradient id="paint16_linear_48_315" x1="45.9655" y1="45.9165" x2="45.9655" y2="46.6284" gradientUnits="userSpaceOnUse">
<stop stop-color="#F3397D"/>
<stop offset="1" stop-color="#FF9153"/>
</linearGradient>
<linearGradient id="paint17_linear_48_315" x1="41.4977" y1="48.4634" x2="41.4977" y2="48.6442" gradientUnits="userSpaceOnUse">
<stop stop-color="#F3397D"/>
<stop offset="1" stop-color="#FF9153"/>
</linearGradient>
<linearGradient id="paint18_linear_48_315" x1="48.8333" y1="43.853" x2="48.8333" y2="44.3954" gradientUnits="userSpaceOnUse">
<stop stop-color="#F3397D"/>
<stop offset="1" stop-color="#FF9153"/>
</linearGradient>
<linearGradient id="paint19_linear_48_315" x1="48.0028" y1="44.5786" x2="48.0028" y2="45.0622" gradientUnits="userSpaceOnUse">
<stop stop-color="#F3397D"/>
<stop offset="1" stop-color="#FF9153"/>
</linearGradient>
<linearGradient id="paint20_linear_48_315" x1="18.2514" y1="21.6201" x2="18.2514" y2="21.7309" gradientUnits="userSpaceOnUse">
<stop stop-color="#F3397D"/>
<stop offset="1" stop-color="#FF9153"/>
</linearGradient>
<linearGradient id="paint21_linear_48_315" x1="18.2514" y1="21.6201" x2="18.2514" y2="21.7309" gradientUnits="userSpaceOnUse">
<stop stop-color="#F3397D"/>
<stop offset="1" stop-color="#FF9153"/>
</linearGradient>
</defs>
</svg>
