<svg width="198" height="48" viewBox="0 0 198 48" fill="none" xmlns="http://www.w3.org/2000/svg">
<path fill-rule="evenodd" clip-rule="evenodd" d="M22.9996 25.1855C24.0458 27.4964 25.2562 29.6988 27.4135 31.1651C30.8595 33.507 35.8518 33.4044 39.2195 30.9133C41.7949 29.0073 43.41 26.1056 43.6754 22.5046C43.767 21.3637 43.7174 20.1492 43.5246 18.8726C42.7266 13.6349 37.2417 3.87022 29.1298 0C37.6655 1.89443 44.5269 8.3293 47.1405 16.6838C47.1462 16.708 47.1538 16.7327 47.1615 16.7574C47.1691 16.7821 47.1767 16.8068 47.1825 16.831C48.9262 22.953 47.836 29.3758 44.3376 34.3653L44.3379 34.3651C43.5513 35.4886 42.6407 36.5404 41.6136 37.4993L41.6134 37.4995C41.581 37.5304 41.5486 37.5613 41.5162 37.5903C41.3444 37.7472 41.1687 37.9022 40.9912 38.0552C40.9606 38.0814 40.93 38.1071 40.8994 38.1328C40.8689 38.1584 40.8384 38.1841 40.8079 38.2102C40.6399 38.3496 40.47 38.4891 40.2963 38.6247C40.239 38.6709 40.1794 38.7159 40.1203 38.7607C40.1025 38.7742 40.0848 38.7876 40.0672 38.801C39.8992 38.9288 39.7293 39.0567 39.5555 39.1806C39.5089 39.214 39.461 39.2462 39.413 39.2785C39.3745 39.3043 39.336 39.3302 39.2978 39.3569C38.9923 39.568 38.6792 39.7714 38.3604 39.9671C38.3216 39.991 38.283 40.0151 38.2444 40.0392C38.1671 40.0874 38.0899 40.1356 38.011 40.1821C37.8947 40.2512 37.7741 40.3174 37.6542 40.3832C37.6363 40.393 37.6184 40.4028 37.6006 40.4126C37.4459 40.4998 37.2932 40.585 37.1348 40.6683C36.9993 40.7399 36.862 40.8076 36.7246 40.8754L36.7243 40.8755C36.5563 40.9588 36.3883 41.0421 36.2165 41.1215C36.0828 41.1835 35.9473 41.2436 35.8117 41.3036C35.6266 41.385 35.4395 41.4625 35.2505 41.54C35.1225 41.5923 34.9927 41.6446 34.8629 41.6949H34.8648C34.651 41.7782 34.4334 41.8557 34.2138 41.9332L34.175 41.9474C34.0776 41.9833 33.9811 42.0188 33.8816 42.0513C33.5475 42.1637 33.2096 42.2702 32.866 42.3671C26.7721 44.0988 21.0657 42.7758 16.6079 40.1995C16.0504 39.878 15.514 39.537 14.9966 39.1787C14.7389 39.0005 14.4869 38.8165 14.2387 38.6305C13.7442 38.2567 13.2727 37.8692 12.8221 37.4722C12.3716 37.0751 11.9477 36.6663 11.5468 36.2499C11.1459 35.8334 10.7717 35.4092 10.4243 34.9831C10.2505 34.77 10.0844 34.555 9.92408 34.34C8.9657 33.0499 8.25741 31.7443 7.84504 30.5143C6.93821 27.6552 7.08903 24.74 8.31851 22.4581C8.44069 22.2295 8.57433 22.0087 8.71942 21.7937C9.44298 20.7186 10.4357 19.8218 11.7015 19.1845C11.7167 19.1787 11.732 19.1709 11.7473 19.1632C11.7626 19.1554 11.7778 19.1477 11.7931 19.1419C12.6999 18.7061 13.7767 18.5085 14.8725 18.5317C15.2372 18.5395 15.6037 18.5724 15.9683 18.6266C16.6957 18.737 17.4097 18.9404 18.0646 19.2329C18.7194 19.5254 19.315 19.9051 19.8076 20.3642C20.1703 20.7051 20.5006 21.0654 20.8041 21.4412C20.9569 21.631 21.102 21.8228 21.2413 22.0184L21.2416 22.0188C21.94 22.9965 22.4934 24.0691 22.9991 25.1842L22.9996 25.1855Z" fill="url(#paint0_linear_1_137)"/>
<path d="M10.8653 7.33171C11.0008 7.26004 11.1383 7.19418 11.2758 7.12445C11.1383 7.19225 11.0008 7.26004 10.8653 7.33171Z" fill="url(#paint1_linear_1_137)"/>
<path d="M13.7862 6.06683C13.8969 6.02809 14.0057 5.98741 14.1184 5.94867C14.0057 5.98547 13.8969 6.02615 13.7862 6.06683Z" fill="url(#paint2_linear_1_137)"/>
<path d="M12.7476 6.45809C12.8755 6.40579 13.0054 6.35349 13.1352 6.30313C13.0054 6.35349 12.8774 6.40579 12.7476 6.45809Z" fill="url(#paint3_linear_1_137)"/>
<path d="M9.98706 7.81596C10.1226 7.73654 10.262 7.66293 10.3975 7.58545C10.2601 7.66099 10.1207 7.73654 9.98706 7.81596Z" fill="url(#paint4_linear_1_137)"/>
<path d="M6.48389 10.4097C6.65571 10.2508 6.83135 10.0978 7.00889 9.94476C6.83135 10.0978 6.65571 10.2528 6.48389 10.4097Z" fill="url(#paint5_linear_1_137)"/>
<path d="M8.70032 8.64118C9.00578 8.43004 9.31696 8.22858 9.6377 8.03101C9.31696 8.22665 9.00578 8.43004 8.70032 8.64118Z" fill="url(#paint6_linear_1_137)"/>
<path d="M7.19019 9.78983C7.35819 9.64843 7.5281 9.5109 7.70183 9.37531C7.5281 9.5109 7.35819 9.65037 7.19019 9.78983Z" fill="url(#paint7_linear_1_137)"/>
<path d="M40.3459 23.8896C40.3058 24.0291 40.2619 24.1646 40.2142 24.3002C40.2619 24.1646 40.3039 24.0271 40.3459 23.8896Z" fill="url(#paint8_linear_1_137)"/>
<path d="M36.2489 28.8349C36.2642 28.8271 36.2814 28.8194 36.2966 28.8116C37.0565 28.43 37.717 27.9535 38.2802 27.4015C37.717 27.9535 37.0545 28.43 36.2966 28.8116C36.2814 28.8174 36.2642 28.8271 36.2489 28.8349Z" fill="url(#paint9_linear_1_137)"/>
<path d="M28.1925 27.6358C28.3528 27.785 28.5285 27.9245 28.7098 28.0562C28.5285 27.9245 28.3547 27.785 28.1925 27.6358Z" fill="url(#paint10_linear_1_137)"/>
<g style="mix-blend-mode:multiply">
<path d="M28.1925 27.6358C28.3528 27.785 28.5285 27.9245 28.7098 28.0562C28.5285 27.9245 28.3547 27.785 28.1925 27.6358Z" fill="url(#paint11_linear_1_137)"/>
</g>
<path d="M3.66214 13.6332V13.631C4.4487 12.5075 5.35935 11.4557 6.38646 10.4969C6.41891 10.4659 6.45137 10.4349 6.48382 10.4058C6.65564 10.2489 6.83128 10.094 7.00883 9.94093C7.03937 9.91479 7.06992 9.88912 7.10046 9.86346C7.13101 9.83779 7.16156 9.81212 7.19211 9.78597C7.36011 9.6465 7.53002 9.50703 7.70375 9.37144C7.76105 9.32523 7.8206 9.28017 7.87981 9.23537C7.89755 9.22196 7.91525 9.20856 7.93285 9.19517C8.10085 9.06733 8.27076 8.93948 8.44449 8.81551C8.49113 8.78217 8.53895 8.75002 8.58697 8.71774C8.62543 8.69188 8.66401 8.66594 8.70222 8.63924C9.00768 8.4281 9.32078 8.22471 9.6396 8.02907C9.67842 8.00518 9.71702 7.98107 9.75563 7.95697C9.83284 7.90876 9.91006 7.86055 9.98897 7.81406C10.1052 7.74496 10.2259 7.67879 10.3458 7.613C10.3637 7.60318 10.3816 7.59336 10.3994 7.58355C10.5541 7.49638 10.7068 7.41115 10.8653 7.32786C11.0008 7.25619 11.1383 7.18839 11.2757 7.12059C11.4437 7.0373 11.6117 6.95401 11.7835 6.87459C11.9172 6.8126 12.0527 6.75256 12.1883 6.69251C12.3735 6.61115 12.5606 6.53367 12.7496 6.45619C12.8775 6.40389 13.0073 6.35159 13.1371 6.30122C13.3509 6.21793 13.5686 6.14045 13.7881 6.06297C13.8011 6.05819 13.8141 6.05341 13.8271 6.04863C13.9245 6.01278 14.0209 5.97729 14.1203 5.94481C14.4544 5.83246 14.7923 5.72592 15.136 5.62907C20.85 4.00389 26.2222 5.06539 30.5445 7.32786C31.4074 7.78113 32.2302 8.28088 33.0053 8.81745C33.2631 8.99565 33.5151 9.17967 33.7632 9.36563C34.2577 9.73948 34.7312 10.1269 35.1798 10.524C35.6304 10.9211 36.0561 11.3298 36.4551 11.7463C36.856 12.1627 37.2302 12.5869 37.5777 13.0131C37.7514 13.2262 37.9175 13.4412 38.0779 13.6562C39.0362 14.9463 39.7445 16.2518 40.1569 17.4819C40.8575 19.6901 40.9186 21.9293 40.3478 23.8877C40.3058 24.0252 40.2638 24.1627 40.2161 24.2983C40.0958 24.647 39.9545 24.9821 39.7922 25.3075C39.6376 25.6155 39.4734 25.9177 39.2806 26.2024C38.9923 26.6325 38.6601 27.0334 38.284 27.4015C37.7208 27.9535 37.0603 28.43 36.3005 28.8116C36.2852 28.8194 36.268 28.8271 36.2527 28.8349C36.2431 28.8391 36.2324 28.8443 36.2222 28.8491C36.2183 28.8509 36.2144 28.8526 36.2107 28.8543C35.3039 29.2901 34.2271 29.4877 33.1313 29.4644C31.8522 29.4392 30.5483 29.1158 29.4582 28.5288C29.1928 28.3874 28.9446 28.2266 28.7098 28.0543C28.5284 27.9225 28.3528 27.7831 28.1924 27.6339C28.0111 27.4635 27.8373 27.2891 27.6712 27.109C27.6589 27.0965 27.6479 27.0833 27.6366 27.0698C27.6287 27.0604 27.6207 27.0508 27.6121 27.0412C27.3047 26.7022 27.0202 26.3497 26.7587 25.9816C26.0599 25.0034 25.5063 23.9303 25.0004 22.8145C25.0004 22.8145 24.9997 22.8123 24.9983 22.808C23.9526 20.4988 22.7424 18.2983 20.5865 16.8329C17.1405 14.4911 12.1482 14.5937 8.7805 17.0848C6.2051 18.9908 4.58998 21.8925 4.32461 25.4935C4.23297 26.6344 4.28261 27.8489 4.47543 29.1254L4.47352 29.1274C5.27153 34.3651 10.7564 44.1298 18.8683 48C10.3326 46.1056 3.47123 39.6707 0.859557 31.3162C0.85383 31.292 0.846193 31.2673 0.838557 31.2426C0.83092 31.2179 0.823284 31.1932 0.817556 31.169C-0.926144 25.0456 0.163932 18.6227 3.66214 13.6332Z" fill="url(#paint12_linear_1_137)"/>
<path d="M33.8816 42.0494C33.9942 42.0126 34.1031 41.9719 34.2138 41.9312C34.1031 41.97 33.9942 42.0107 33.8816 42.0494Z" fill="url(#paint13_linear_1_137)"/>
<path d="M38.0129 40.1821C37.8774 40.2615 37.738 40.3351 37.6025 40.4126C37.7399 40.337 37.8793 40.2615 38.0129 40.1821Z" fill="url(#paint14_linear_1_137)"/>
<path d="M37.1348 40.6683C36.9992 40.7399 36.8618 40.8058 36.7243 40.8755C36.8618 40.8077 36.9992 40.7399 37.1348 40.6683Z" fill="url(#paint15_linear_1_137)"/>
<path d="M39.2997 39.3569C38.9942 39.5681 38.683 39.7695 38.3623 39.9671C38.683 39.7715 38.9942 39.5681 39.2997 39.3569Z" fill="url(#paint16_linear_1_137)"/>
<path d="M35.2505 41.5399C35.1226 41.5922 34.9927 41.6445 34.8629 41.6949C34.9927 41.6445 35.1206 41.5922 35.2505 41.5399Z" fill="url(#paint17_linear_1_137)"/>
<path d="M41.5162 37.5884C41.3443 37.7472 41.1687 37.9002 40.9911 38.0533C41.1687 37.9002 41.3443 37.7453 41.5162 37.5884Z" fill="url(#paint18_linear_1_137)"/>
<path d="M40.8079 38.2102C40.6399 38.3516 40.47 38.4891 40.2963 38.6247C40.47 38.4891 40.6399 38.3496 40.8079 38.2102Z" fill="url(#paint19_linear_1_137)"/>
<path d="M14.8705 18.5317C15.2352 18.5395 15.6036 18.5705 15.9664 18.6267C15.6017 18.5724 15.2352 18.5395 14.8705 18.5317Z" fill="url(#paint20_linear_1_137)"/>
<g style="mix-blend-mode:multiply">
<path d="M14.8705 18.5317C15.2352 18.5395 15.6036 18.5705 15.9664 18.6267C15.6017 18.5724 15.2352 18.5395 14.8705 18.5317Z" fill="url(#paint21_linear_1_137)"/>
</g>
<path d="M76.7982 20.2173C76.7982 24.2868 73.6483 26.6917 68.6977 26.6917H61.5V13.743H68.6977C73.6507 13.743 76.7982 16.1479 76.7982 20.2173ZM72.9676 20.2173C72.9676 17.9228 71.162 16.7387 68.4025 16.7387H65.2526V23.6935H68.4025C71.1645 23.6935 72.9676 22.5095 72.9676 20.2149V20.2173Z" fill="#212121"/>
<path d="M94.6729 23.8063V26.6917H80.9192V13.743H94.4704V16.6284H84.6205V18.7563H92.7405V21.5117H84.6205V23.8063H94.6729Z" fill="#212121"/>
<path d="M113.526 13.743V20.5875C113.526 24.527 110.857 27.1183 106.05 27.1183C101.244 27.1183 98.5573 24.5295 98.5573 20.5875V13.743H102.312V20.2909C102.312 22.5487 103.564 24.0098 106.05 24.0098C108.537 24.0098 109.769 22.5487 109.769 20.2909V13.743H113.524H113.526Z" fill="#212121"/>
<path d="M132.357 22.6394C132.357 25.3042 129.908 27.1158 125.233 27.1158C121.919 27.1158 119.138 26.2088 117.113 24.581L119.084 22.2496C120.612 23.544 122.729 24.2672 125.306 24.2672C127.517 24.2672 128.619 23.8603 128.619 23.0096C128.619 22.1589 127.59 21.8991 124.938 21.6784C121.107 21.345 117.628 20.4944 117.628 17.609C117.628 14.7236 120.612 13.3164 124.698 13.3164C127.46 13.3164 130 13.9832 131.769 15.2408L129.873 17.5894C128.436 16.572 126.706 16.1651 124.701 16.1454C123.191 16.1454 121.368 16.3857 121.368 17.3099C121.368 18.1802 122.859 18.2905 125.16 18.4744C129.376 18.8249 132.357 19.6584 132.357 22.637V22.6394Z" fill="#212121"/>
<path d="M148.741 23.6568V26.6917H136.315V13.743H140.07V23.6592H148.741V23.6568Z" fill="#212121"/>
<path d="M152.406 26.6917V13.743H156.161V26.6917H152.406Z" fill="#212121"/>
<path d="M176.283 13.743V26.6917H172.987L164.664 18.1826V26.6917H161.036V13.743H165.013L172.655 21.6613V13.743H176.283Z" fill="#212121"/>
<path d="M192.079 26.6917L187.753 21.1244L184.898 23.6764V26.6917H181.143V13.743H184.898V19.7369L191.491 13.743H196.168L190.442 18.9033L196.5 26.6917H192.081H192.079Z" fill="#212121"/>
<path d="M68.2756 36.7036C68.2756 37.8877 67.1874 38.6918 65.1086 38.6918C63.6349 38.6918 62.4003 38.2897 61.5 37.5665L62.3759 36.532C63.0542 37.1081 63.996 37.4268 65.1403 37.4268C66.1212 37.4268 66.614 37.2454 66.614 36.8679C66.614 36.4903 66.1553 36.3751 64.9769 36.2771C63.2738 36.13 61.7294 35.75 61.7294 34.4679C61.7294 33.1857 63.0542 32.5606 64.8695 32.5606C66.0968 32.5606 67.2265 32.8572 68.0097 33.4162L67.1679 34.4605C66.5286 34.0094 65.7601 33.828 64.8695 33.8182C64.1985 33.8182 63.3885 33.9261 63.3885 34.3355C63.3885 34.7228 64.0521 34.7718 65.0745 34.8527C66.9483 35.0096 68.2732 35.3798 68.2732 36.7012L68.2756 36.7036Z" fill="#212121"/>
<path d="M73.8044 35.6274C73.8044 33.6785 75.2684 32.5606 77.5351 32.5606C79.8017 32.5606 81.273 33.6785 81.273 35.6274C81.273 37.5763 79.7993 38.6942 77.5351 38.6942C75.2708 38.6942 73.8044 37.5763 73.8044 35.6274ZM79.5724 35.6274C79.5724 34.5414 78.7941 33.9261 77.5351 33.9261C76.2761 33.9261 75.4977 34.5414 75.4977 35.6274C75.4977 36.7134 76.2761 37.3287 77.5351 37.3287C78.7941 37.3287 79.5724 36.711 79.5724 35.6274Z" fill="#212121"/>
<path d="M88.8709 34.0732V35.1666H92.4868V36.4732H88.8709V38.503H87.202V32.7494H93.1993V34.0732H88.8709Z" fill="#212121"/>
<path d="M104.855 34.0904H102.473V38.503H100.804V34.0904H98.4401V32.7494H104.855V34.0904Z" fill="#212121"/>
<path d="M120.126 32.7494L118.04 38.503H116.378L115.044 34.4997L113.702 38.503H112.057L109.964 32.7494H111.674L112.926 36.7036L114.292 32.7494H115.829L117.196 36.7036L118.447 32.7494H120.124H120.126Z" fill="#212121"/>
<path d="M130.042 37.4023H126.902L126.362 38.503H124.613L127.575 32.7494H129.398L132.36 38.503H130.583L130.044 37.4023H130.042ZM129.461 36.2109L128.47 34.1737L127.473 36.2109H129.461Z" fill="#212121"/>
<path d="M142.761 38.503L141.248 36.6865H139.562V38.503H137.901V32.7494H141.917C143.381 32.7494 144.518 33.399 144.518 34.713C144.518 35.674 143.913 36.282 143.012 36.5467L144.698 38.503H142.759H142.761ZM141.795 35.4705C142.393 35.4705 142.824 35.3063 142.824 34.7473C142.824 34.1884 142.39 34.0242 141.795 34.0242H139.553V35.4705H141.795Z" fill="#212121"/>
<path d="M156.617 37.2209V38.503H150.505V32.7494H156.527V34.0315H152.15V34.9778H155.758V36.2011H152.15V37.2209H156.617Z" fill="#212121"/>
<defs>
<linearGradient id="paint0_linear_1_137" x1="27.6318" y1="0" x2="27.6318" y2="43.1506" gradientUnits="userSpaceOnUse">
<stop stop-color="#F3397D"/>
<stop offset="1" stop-color="#FF9153"/>
</linearGradient>
<linearGradient id="paint1_linear_1_137" x1="11.0705" y1="7.12445" x2="11.0705" y2="7.33171" gradientUnits="userSpaceOnUse">
<stop stop-color="#F3397D"/>
<stop offset="1" stop-color="#FF9153"/>
</linearGradient>
<linearGradient id="paint2_linear_1_137" x1="13.9523" y1="5.94867" x2="13.9523" y2="6.06683" gradientUnits="userSpaceOnUse">
<stop stop-color="#F3397D"/>
<stop offset="1" stop-color="#FF9153"/>
</linearGradient>
<linearGradient id="paint3_linear_1_137" x1="12.9414" y1="6.30313" x2="12.9414" y2="6.45809" gradientUnits="userSpaceOnUse">
<stop stop-color="#F3397D"/>
<stop offset="1" stop-color="#FF9153"/>
</linearGradient>
<linearGradient id="paint4_linear_1_137" x1="10.1923" y1="7.58545" x2="10.1923" y2="7.81596" gradientUnits="userSpaceOnUse">
<stop stop-color="#F3397D"/>
<stop offset="1" stop-color="#FF9153"/>
</linearGradient>
<linearGradient id="paint5_linear_1_137" x1="6.74639" y1="9.94476" x2="6.74639" y2="10.4097" gradientUnits="userSpaceOnUse">
<stop stop-color="#F3397D"/>
<stop offset="1" stop-color="#FF9153"/>
</linearGradient>
<linearGradient id="paint6_linear_1_137" x1="9.16901" y1="8.03101" x2="9.16901" y2="8.64118" gradientUnits="userSpaceOnUse">
<stop stop-color="#F3397D"/>
<stop offset="1" stop-color="#FF9153"/>
</linearGradient>
<linearGradient id="paint7_linear_1_137" x1="7.44601" y1="9.37531" x2="7.44601" y2="9.78983" gradientUnits="userSpaceOnUse">
<stop stop-color="#F3397D"/>
<stop offset="1" stop-color="#FF9153"/>
</linearGradient>
<linearGradient id="paint8_linear_1_137" x1="40.28" y1="23.8896" x2="40.28" y2="24.3002" gradientUnits="userSpaceOnUse">
<stop stop-color="#F3397D"/>
<stop offset="1" stop-color="#FF9153"/>
</linearGradient>
<linearGradient id="paint9_linear_1_137" x1="37.2646" y1="27.4015" x2="37.2646" y2="28.8349" gradientUnits="userSpaceOnUse">
<stop stop-color="#F3397D"/>
<stop offset="1" stop-color="#FF9153"/>
</linearGradient>
<linearGradient id="paint10_linear_1_137" x1="28.1905" y1="27.1109" x2="28.1905" y2="28.0562" gradientUnits="userSpaceOnUse">
<stop stop-color="#F3397D"/>
<stop offset="1" stop-color="#FF9153"/>
</linearGradient>
<linearGradient id="paint11_linear_1_137" x1="28.1905" y1="27.1109" x2="28.1905" y2="28.0562" gradientUnits="userSpaceOnUse">
<stop stop-color="#F3397D"/>
<stop offset="1" stop-color="#FF9153"/>
</linearGradient>
<linearGradient id="paint12_linear_1_137" x1="20.3669" y1="4.84442" x2="20.3669" y2="48" gradientUnits="userSpaceOnUse">
<stop stop-color="#F3397D"/>
<stop offset="1" stop-color="#FF9153"/>
</linearGradient>
<linearGradient id="paint13_linear_1_137" x1="34.0477" y1="41.9312" x2="34.0477" y2="42.0494" gradientUnits="userSpaceOnUse">
<stop stop-color="#F3397D"/>
<stop offset="1" stop-color="#FF9153"/>
</linearGradient>
<linearGradient id="paint14_linear_1_137" x1="37.8077" y1="40.1821" x2="37.8077" y2="40.4126" gradientUnits="userSpaceOnUse">
<stop stop-color="#F3397D"/>
<stop offset="1" stop-color="#FF9153"/>
</linearGradient>
<linearGradient id="paint15_linear_1_137" x1="36.9295" y1="40.6683" x2="36.9295" y2="40.8755" gradientUnits="userSpaceOnUse">
<stop stop-color="#F3397D"/>
<stop offset="1" stop-color="#FF9153"/>
</linearGradient>
<linearGradient id="paint16_linear_1_137" x1="38.831" y1="39.3569" x2="38.831" y2="39.9671" gradientUnits="userSpaceOnUse">
<stop stop-color="#F3397D"/>
<stop offset="1" stop-color="#FF9153"/>
</linearGradient>
<linearGradient id="paint17_linear_1_137" x1="35.0567" y1="41.5399" x2="35.0567" y2="41.6949" gradientUnits="userSpaceOnUse">
<stop stop-color="#F3397D"/>
<stop offset="1" stop-color="#FF9153"/>
</linearGradient>
<linearGradient id="paint18_linear_1_137" x1="41.2537" y1="37.5884" x2="41.2537" y2="38.0533" gradientUnits="userSpaceOnUse">
<stop stop-color="#F3397D"/>
<stop offset="1" stop-color="#FF9153"/>
</linearGradient>
<linearGradient id="paint19_linear_1_137" x1="40.5521" y1="38.2102" x2="40.5521" y2="38.6247" gradientUnits="userSpaceOnUse">
<stop stop-color="#F3397D"/>
<stop offset="1" stop-color="#FF9153"/>
</linearGradient>
<linearGradient id="paint20_linear_1_137" x1="15.4185" y1="18.5317" x2="15.4185" y2="18.6267" gradientUnits="userSpaceOnUse">
<stop stop-color="#F3397D"/>
<stop offset="1" stop-color="#FF9153"/>
</linearGradient>
<linearGradient id="paint21_linear_1_137" x1="15.4185" y1="18.5317" x2="15.4185" y2="18.6267" gradientUnits="userSpaceOnUse">
<stop stop-color="#F3397D"/>
<stop offset="1" stop-color="#FF9153"/>
</linearGradient>
</defs>
</svg>
