<svg width="176" height="22" viewBox="0 0 176 22" fill="none" xmlns="http://www.w3.org/2000/svg">
<path d="M3.81856 11.0576C5.19653 11.0576 6.64013 10.9424 8.0181 10.8272C8.60867 10.8272 9.13361 10.712 9.72417 10.712C12.2177 10.4817 14.7111 10.2513 17.2046 10.0209C20.223 9.79058 23.1758 9.44503 26.1943 9.21466C30.4594 8.75393 34.7246 8.40838 38.9898 7.94764C39.974 7.83246 40.9583 7.83246 41.9426 7.71728C44.4361 7.48691 46.9295 7.25654 49.423 7.14136C51.9165 6.91099 54.41 6.68063 56.9035 6.56544C57.8877 6.45026 58.872 6.33508 59.8563 6.33508C63.7933 6.10471 67.796 5.87435 71.7331 5.64398C74.161 5.5288 76.5888 5.41361 79.0823 5.18325C80.0666 5.18325 80.9852 5.06806 81.9695 5.06806C85.7753 4.95288 89.6468 4.8377 93.4526 4.72251C97.2585 4.60733 100.999 4.49215 104.805 4.37696C105.789 4.37696 106.773 4.37696 107.823 4.37696C110.316 4.37696 112.744 4.37696 115.238 4.37696C119.109 4.37696 122.915 4.37696 126.787 4.26178C128.033 4.26178 129.28 4.26178 130.527 4.26178C133.151 4.26178 135.776 4.26178 138.401 4.26178C138.598 4.26178 138.86 4.26178 139.057 4.26178C133.151 4.37696 127.18 4.49215 121.275 4.72251C118.781 4.8377 116.353 4.8377 113.86 4.95288C112.81 4.95288 111.694 4.95288 110.645 5.06806C107.036 5.18325 103.492 5.41361 99.8832 5.5288C95.7493 5.75916 91.6153 5.87435 87.4814 6.10471C86.7596 6.10471 86.1034 6.21989 85.3816 6.21989C83.1506 6.45026 80.9852 6.56544 78.7542 6.79581C74.2922 7.14136 69.8302 7.48691 65.3682 7.83246C64.712 7.83246 64.0558 7.94764 63.3996 8.06283C61.2342 8.29319 59.0032 8.63874 56.8378 8.86911C52.9008 9.32984 49.0293 9.79058 45.0922 10.2513C44.0423 10.3665 42.9268 10.5969 41.877 10.712C39.3835 11.0576 36.89 11.4031 34.3965 11.8639C31.2469 12.3246 28.0316 12.7853 24.8819 13.2461C20.4855 13.9372 16.0235 14.6283 11.6271 15.3194C10.5772 15.4346 9.52732 15.6649 8.41181 15.7801C6.50889 16.1257 4.60597 16.4712 2.70305 16.8168C2.5062 16.8168 2.30935 17.0471 2.30935 17.5079C2.30935 17.8534 2.5062 18.199 2.70305 18.199C3.42485 18.199 4.08103 18.3141 4.80283 18.3141C4.67159 18.8901 4.60597 19.2356 4.60597 19.5812C4.60597 20.8482 5.19653 22 5.98395 22C11.4302 21.4241 16.8109 20.733 22.2572 20.2723C26.9817 19.9267 31.7062 19.466 36.4307 19.1204C41.6145 18.6597 46.8639 18.199 52.0477 17.8534C53.6882 17.7382 55.3286 17.623 56.9691 17.3927C57.4284 17.3927 57.8877 17.2775 58.4127 17.2775C66.8118 16.9319 75.2109 16.4712 83.61 16.1257C88.072 15.8953 92.5996 15.6649 97.0616 15.5497C98.7021 15.4346 100.277 15.4346 101.917 15.3194C110.513 15.089 119.109 14.8586 127.705 14.6283C131.38 14.5131 135.054 14.3979 138.729 14.2827C141.879 14.1675 145.028 14.1675 148.178 13.9372C150.803 13.822 153.362 13.5916 155.987 13.4764C157.299 13.3613 158.611 13.3613 159.858 13.2461C162.811 12.9005 165.764 12.555 168.716 12.2094C168.52 12.6702 168.52 13.3613 168.585 13.822C168.651 14.3979 168.848 14.8586 169.176 15.089C169.438 15.3194 169.832 15.5497 170.094 15.3194C170.751 14.8586 171.407 14.3979 171.997 13.9372C171.997 13.9372 171.997 13.9372 171.932 13.9372C171.997 13.9372 171.997 13.822 172.063 13.822C172.129 13.822 172.194 13.7068 172.194 13.7068H172.129C172.457 13.4764 172.785 13.2461 173.178 12.9005C173.507 12.6702 173.9 12.3246 174.228 12.0942C174.622 11.7487 174.95 11.4031 175.344 11.0576C175.738 10.712 176 9.79058 176 8.98429C176 8.52356 175.934 8.17801 175.803 7.71728C175.672 7.25654 175.344 6.68063 175.016 6.56544C174.688 6.45026 174.36 6.33508 174.031 6.33508C173.966 6.33508 173.9 6.33508 173.835 6.33508C173.638 6.33508 173.375 6.33508 173.178 6.45026C172.653 6.56544 172.194 6.68063 171.669 6.68063C171.275 6.68063 170.882 6.79581 170.422 6.79581C169.307 6.91099 168.257 7.02618 167.142 7.25654C166.879 7.25654 166.551 7.37173 166.289 7.37173C166.42 7.14136 166.485 6.91099 166.485 6.68063C166.551 6.45026 166.551 6.21989 166.551 5.98953C166.551 5.87435 166.551 5.64398 166.617 5.5288C166.617 5.29843 166.617 5.06806 166.551 4.95288C166.551 4.95288 166.617 4.95288 166.617 4.8377C166.813 4.60733 167.01 4.37696 167.142 3.91623C167.273 3.57068 167.338 3.10995 167.338 2.64921C167.338 2.18848 167.273 1.84293 167.142 1.3822C167.076 1.26702 167.01 1.03665 166.945 0.921466C166.748 0.575916 166.551 0.460733 166.354 0.34555C165.96 0.115183 165.501 0 165.042 0C164.648 0 164.32 0 163.926 0C163.401 0 162.876 0 162.351 0C161.63 0 160.842 0 160.12 0C158.152 0 156.183 0 154.215 0C152.378 0 150.475 0 148.637 0C146.931 0 145.291 0 143.585 0C136.826 0 130.133 0.115183 123.374 0.230366C118.322 0.34555 113.269 0.460733 108.217 0.460733C105.986 0.460733 103.689 0.575916 101.458 0.6911C96.4054 0.921466 91.3529 1.03665 86.3003 1.26702C84.8567 1.26702 83.4131 1.3822 81.9695 1.3822C81.1165 1.3822 80.3291 1.49738 79.476 1.49738C74.4891 1.84293 69.5021 2.18848 64.5151 2.53403C63.0059 2.64921 61.4967 2.7644 59.9219 2.87958C59.0689 2.87958 58.2158 2.99476 57.3628 3.10995C52.3758 3.57068 47.4545 4.03141 42.4675 4.49215C39.9084 4.72251 37.3493 4.95288 34.7902 5.29843C30.3938 5.75916 25.9974 6.21989 21.6666 6.79581C17.8608 7.25654 14.055 7.60209 10.2491 7.94764C9.65855 8.06283 9.06799 8.06283 8.41181 8.17801C7.42754 8.29319 6.44327 8.29319 5.45901 8.40838C4.60597 8.86911 3.68732 8.86911 2.83429 8.86911C2.76867 8.40838 2.5062 8.06283 2.30935 8.17801C1.71878 8.17801 1.19384 8.29319 0.603279 8.40838C0.340807 8.52356 0.0783357 8.75393 0.0127177 9.21466C-0.0529002 9.79058 0.143954 10.3665 0.406425 10.4817C0.668897 10.5969 0.931369 10.712 1.19384 10.8272C1.45631 10.9424 1.65317 10.9424 1.91564 10.9424C2.57182 11.0576 3.16238 11.0576 3.81856 11.0576ZM157.365 7.37173C158.152 7.37173 159.005 7.37173 159.792 7.37173C159.858 7.71728 159.989 7.94764 160.12 8.17801C159.792 8.17801 159.464 8.29319 159.202 8.29319C158.611 8.29319 158.021 8.40838 157.43 8.40838C154.805 8.52356 152.246 8.75393 149.622 8.86911C148.44 8.98429 147.259 9.09948 146.078 9.09948C144.241 9.09948 142.338 9.21466 140.501 9.21466C136.236 9.32984 132.036 9.44503 127.771 9.56021C119.503 9.79058 111.301 10.0209 103.033 10.2513C97.1272 10.3665 91.2216 10.712 85.316 11.0576C76.4576 11.5183 67.5336 11.8639 58.6751 12.3246C56.9035 12.4398 55.1318 12.555 53.3601 12.7853C48.3075 13.2461 43.2549 13.5916 38.2024 14.0524C33.281 14.5131 28.294 14.8586 23.3727 15.3194C22.9134 15.3194 22.454 15.4346 21.9947 15.4346C23.3071 15.2042 24.6851 15.089 25.9974 14.8586C30.6563 14.2827 35.3152 13.5916 39.974 13.0157C41.6145 12.7853 43.2549 12.555 44.8298 12.3246C45.6828 12.2094 46.5358 12.0942 47.3232 12.0942C52.2446 11.6335 57.1003 11.0576 61.956 10.5969C62.8747 10.4817 63.859 10.3665 64.7776 10.2513C66.1556 10.1361 67.5336 10.0209 68.8459 10.0209C73.8329 9.67539 78.8198 9.32984 83.8068 8.98429C84.9223 8.86911 86.0378 8.86911 87.0877 8.75393C87.3502 8.75393 87.6783 8.75393 87.9407 8.75393C88.7281 8.75393 89.5156 8.75393 90.2374 8.63874C95.2243 8.40838 100.277 8.29319 105.264 8.06283C107.56 7.94764 109.857 7.83246 112.154 7.83246C119.569 7.71728 127.049 7.60209 134.464 7.48691C142.207 7.48691 149.818 7.37173 157.365 7.37173Z" fill="#7E91F2"/>
</svg>
